<?xml version="1.0" encoding="utf-8"?>
<!-- Generator: Adobe Illustrator 24.2.3, SVG Export Plug-In . SVG Version: 6.00 Build 0)  -->
<svg version="1.1" baseProfile="tiny" id="Layer_1" xmlns="http://www.w3.org/2000/svg" xmlns:xlink="http://www.w3.org/1999/xlink"
	 x="0px" y="0px" viewBox="0 0 144 144" overflow="visible" xml:space="preserve">
<g>
	<path fill="none" stroke="#000000" stroke-width="2.6572" stroke-miterlimit="10" d="M69.98,24.94c0.36,0.33,0.46,0.75,0.45,1.23
		c-0.01,6.49,0,12.98-0.01,19.47c0,1.09-0.17,1.25-1.31,1.25c-1.35,0.01-2.69,0.02-4.04-0.01c-0.62-0.01-1.1,0.17-1.55,0.62
		c-3.23,3.26-6.48,6.51-9.74,9.74c-0.43,0.42-0.63,0.86-0.61,1.46c0.03,0.92,0,1.84,0.01,2.76c0.01,0.74-0.3,1.15-1.09,1.15
		c-3-0.01-6-0.02-9,0c-0.88,0.01-1.04-0.62-1.22-1.24c-0.56-1.93-1.58-3.57-3.07-4.9c-2.63-2.35-5.71-3.2-9.18-2.59
		c-1.31,0.23-1.56,0.07-1.56-1.23c0-8.79,0-17.57-0.01-26.36c0-0.51,0.12-0.94,0.37-1.35C42.28,24.94,56.13,24.94,69.98,24.94z"/>
	<path fill="none" stroke="#000000" stroke-width="2.2678" stroke-miterlimit="10" d="M24.93,65.25c0.37-1.64,1.04-3.1,2.46-4.11
		c1.82-1.29,3.81-1.55,5.85-0.71c2.01,0.83,3.25,2.39,3.62,4.56c0.59,3.43-1.8,6.35-4.78,6.88c-3.38,0.6-6.27-1.4-7.04-4.86
		c-0.02-0.07-0.07-0.13-0.11-0.19C24.93,66.3,24.93,65.77,24.93,65.25z"/>
	<path fill="none" stroke="#000000" stroke-width="2.6572" stroke-miterlimit="10" d="M95.14,71.44c0,2.57-0.02,5.15,0.01,7.72
		c0.01,0.6-0.18,1.04-0.6,1.46c-2.76,2.74-5.51,5.49-8.25,8.25c-0.42,0.43-0.87,0.59-1.47,0.59c-5.15-0.02-10.29-0.02-15.44,0
		c-0.63,0-1.1-0.17-1.54-0.62c-2.71-2.74-5.44-5.47-8.19-8.19c-0.42-0.42-0.62-0.85-0.61-1.45c0.02-5.21,0.02-10.41,0-15.62
		c0-0.6,0.19-1.03,0.61-1.45c2.74-2.71,5.48-5.44,8.19-8.18c0.42-0.43,0.86-0.6,1.45-0.6c5.18,0.01,10.35,0.02,15.53,0
		c0.63,0,1.09,0.18,1.54,0.64c2.69,2.72,5.4,5.43,8.12,8.12c0.48,0.47,0.66,0.96,0.65,1.62C95.12,66.3,95.14,68.87,95.14,71.44z"/>
	<path fill="none" stroke="#000000" stroke-width="2.4254" stroke-miterlimit="10" d="M102.63,86.15
		c9.11,0.03,16.48,7.43,16.43,16.5c-0.04,9.09-7.49,16.48-16.54,16.41c-9.07-0.06-16.39-7.42-16.38-16.48
		C86.16,93.48,93.55,86.11,102.63,86.15z"/>
	<path d="M29.65,98.71c0-4.26,0-8.52,0-12.77c0-1.23,0.15-1.39,1.36-1.39c2.24,0,4.47,0,6.71,0c1.12,0,1.34,0.23,1.34,1.34
		c0,5.51,0.02,11.03-0.02,16.54c-0.01,0.84,0.24,0.99,1.02,0.98c4.63-0.04,9.25-0.03,13.88,0c0.65,0,0.83-0.18,0.8-0.82
		c-0.05-1.22-0.01-2.45-0.02-3.68c0-0.73,0.24-1.35,0.94-1.65c0.68-0.3,1.3-0.1,1.86,0.38c3.51,3.02,7.03,6.01,10.53,9.03
		c1.07,0.92,1.08,1.87,0.02,2.79c-3.52,3.04-7.06,6.07-10.6,9.09c-0.55,0.47-1.18,0.67-1.87,0.32c-0.64-0.33-0.88-0.9-0.89-1.59
		c0-1.19-0.06-2.39,0.02-3.58c0.06-0.81-0.24-0.92-0.97-0.92c-7.54,0.03-15.07,0.02-22.61,0.02c-1.43,0-1.52-0.1-1.52-1.51
		C29.65,107.1,29.65,102.9,29.65,98.71z"/>
</g>
</svg>
