<?xml version="1.0" encoding="utf-8"?>
<!-- Generator: Adobe Illustrator 24.2.3, SVG Export Plug-In . SVG Version: 6.00 Build 0)  -->
<svg version="1.1" baseProfile="tiny" id="Layer_1" xmlns="http://www.w3.org/2000/svg" xmlns:xlink="http://www.w3.org/1999/xlink"
	 x="0px" y="0px" viewBox="0 0 144 144" overflow="visible" xml:space="preserve">
<g>
	<path d="M11.37,64.42c0.62-0.81,0.65-0.79,1.72-0.96c1.16-0.18,2.3-0.47,3.48-0.46c0.48-0.35,1.07-0.11,1.55-0.27
		c0.53-0.17,1.04-0.17,1.57-0.22c0.44-0.04,0.87-0.19,1.44-0.33c0.72-1.83,1.34-3.82,2.42-5.72c-0.39-0.59-0.74-1.19-1.16-1.75
		c-1.07-1.42-2.2-2.79-3.25-4.23c-0.52-0.72-1.19-1.43-0.8-2.64c1.25-1.25,2.64-2.64,4.04-4.04c1.9-1.9,3.8-3.8,5.69-5.69
		c0.17-0.17,0.33-0.35,0.5-0.5c0.64-0.55,1.25-0.6,1.93-0.13c0.59,0.4,1.16,0.82,1.73,1.25c1.41,1.08,2.81,2.18,4.22,3.26
		c0.29,0.22,0.62,0.4,0.99,0.64c1.81-1.1,3.86-1.78,5.77-2.55c0.44-3.07,0.86-6.02,1.27-8.93c0.23-0.22,0.43-0.41,0.68-0.66
		c2.1,0,4.26,0,6.44,0c0-3.9,0-7.76,0-11.73c0.3-0.32,0.65-0.68,0.98-1.03c2.91,0,5.74,0,8.58,0c2.76,0,5.53,0,8.29,0
		c1.36,0,1.57,0.12,2.24,1.21c-0.09,0.3-0.15,0.54-0.25,0.88c-0.12,0.11-0.31,0.31-0.52,0.51c-5.51,0-11.04,0-16.56,0
		c-0.19,0.94-0.24,6.68-0.09,10.15c2.16,0,4.32,0,6.43,0c0.21,0.21,0.38,0.38,0.62,0.62c0.41,2.86,0.84,5.8,1.28,8.86
		c0.17,0.11,0.42,0.39,0.73,0.47c1.84,0.43,3.45,1.39,5.19,2.19c2.01-1.54,4.05-3.1,6.09-4.65c0.14-0.11,0.33-0.15,0.48-0.26
		c1.17-0.82,1.52-0.8,2.52,0.21c1.48,1.48,2.96,2.96,4.44,4.44c6.47,0,12.94,0,19.48,0c0.24-1.46,0.82-2.8,1.72-3.99
		c0.71-0.95,1.52-1.8,2.58-2.42c0.74-0.44,1.47-0.82,2.32-0.98c0.06-0.01,0.11-0.15,0.17-0.16c0.91-0.1,1.84-0.32,2.73-0.23
		c1.01,0.1,2.06,0.27,3.01,0.72c1.3,0.62,2.55,1.35,3.46,2.51c0.78,0.99,1.53,2.08,1.78,3.27c0.3,1.38,0.65,2.85,0.07,4.3
		c-0.11,0.27-0.02,0.62-0.02,0.72c-1.75,4.59-4.95,6.75-9.66,6.68c-0.72-0.41-1.65-0.12-2.31-0.71c-0.85,0.02-1.45-0.57-2.07-0.98
		c-0.71-0.46-1.25-1.19-1.87-1.79c-0.58-0.56-0.72-1.37-1.15-2.01c-0.47-0.71-0.46-1.55-0.78-2.31c-5.55,0-11.1,0-16.52,0
		c0.87,0.87,1.79,1.79,2.6,2.6c0,0.69,0,1.11,0,1.56c-1.68,2.44-3.67,4.69-5.21,7.17c0.84,2.03,1.64,3.96,2.43,5.87
		c0.69,0.1,1.36,0.21,2.03,0.3c0.64,0.09,1.31,0.06,1.91,0.27c0.57,0.19,1.16,0.07,1.68,0.24c0.53,0.17,1.09,0.05,1.56,0.23
		c0.72,0.28,1.63-0.01,2.22,0.76c0.09,0.34,0.23,0.73,0.29,1.12c0.05,0.39,0.01,0.79,0.01,1.18c0,1.38,0,2.76,0,4.25
		c1.06,0,2.11,0,3.16,0c0.59,0,1.19,0.04,1.78-0.01c0.8-0.07,1.41,0.23,1.92,0.85c0,0.37,0,0.76,0,1.19
		c-0.18,0.16-0.38,0.35-0.66,0.59c-1.99,0-4.07,0-6.17,0c0,2.01,0,3.97,0,5.98c-0.33,0.44-0.67,0.89-0.91,1.21
		c-3.1,0.46-6.04,0.89-8.99,1.33c-0.43,1.66-1.03,3.23-1.83,4.71c-0.54,0.99-0.56,1.05,0.25,2.19c1.05,1.46,2.23,2.83,3.2,4.35
		c0.37,0.58,0.87,1.07,1.36,1.64c0,0.33,0,0.71,0,1.18c-0.24,0.64-0.83,1.09-1.34,1.61c-0.49,0.5-0.98,0.98-1.55,1.55
		c5.66,0,11.21,0,16.78,0c0.24-0.76,0.38-1.61,0.75-2.36c1.49-3,2.76-4.09,5.84-5.1c2.79-0.91,5.54-0.33,7.89,1.44
		c1.56,1.17,2.74,2.73,3.27,4.66c0.17,0.61,0.38,1.21,0.35,1.87c-0.05,1.18,0.02,2.34-0.46,3.48c-0.43,1.03-0.87,2-1.54,2.92
		c-0.89,1.24-2.12,1.97-3.41,2.64c-0.5,0.26-2.13,0.65-2.57,0.65c-0.59,0-1.18,0-1.78,0c-1.75,0.01-3.23-0.68-4.64-1.68
		c-1.38-0.97-2.33-2.22-2.98-3.73c-0.29-0.67-0.49-1.38-0.75-2.13c-6.5,0-13.08,0-19.7,0c-1.69,1.69-3.42,3.42-5.13,5.13
		c-0.5,0.17-0.95-0.04-1.29-0.29c-1.1-0.8-2.15-1.67-3.24-2.49c-1.19-0.9-2.41-1.78-3.61-2.67c-1.96,1.02-3.97,1.8-5.96,2.46
		c-0.15,0.62,0.08,1.18-0.24,1.76c-0.26,0.47,0.04,1.09-0.23,1.68c-0.23,0.51-0.08,1.17-0.25,1.79c-0.22,0.8-0.15,1.67-0.28,2.5
		c-0.08,0.54-0.3,1.06-0.45,1.57c-0.47,0.32-0.97,0.38-1.52,0.37c-1.77-0.02-3.54-0.01-5.33-0.01c0,3.41,0,6.75,0,10.14
		c5.47,0,10.94,0,16.4,0c0.21,0.24,0.4,0.44,0.62,0.69c0,0.33,0,0.72,0,1.2c-0.32,0.23-0.68,0.5-1.05,0.77
		c-5.56,0-11.13-0.01-16.69,0.01c-0.89,0-1.56-0.21-1.91-1.23c0-3.72,0-7.59,0-11.54c-0.3-0.01-0.6-0.04-0.9-0.04
		c-1.5,0-3,0.01-4.5-0.01c-0.47-0.01-0.95-0.12-1.37-0.17c-0.35-0.84-0.63-1.56-0.6-2.38c0.02-0.4-0.14-0.8-0.22-1.2
		c-0.07-0.36,0.01-0.71-0.19-1.11c-0.22-0.43-0.11-1.01-0.24-1.55c-0.23-0.92-0.22-1.9-0.32-3c-0.16-0.52-0.83-0.6-1.32-0.73
		c-1.6-0.45-3.07-1.17-4.6-1.96c-0.55,0.38-1.14,0.77-1.7,1.19c-1.71,1.3-3.41,2.62-5.12,3.93c-0.65,0.5-1.31,0.49-1.93-0.04
		c-0.27-0.23-0.51-0.5-0.76-0.75c-2.87-2.87-5.75-5.75-8.62-8.63c-0.37-0.38-0.7-0.8-1-1.14c0-0.49,0-0.89,0-1.2
		c0.89-1.16,1.77-2.25,2.59-3.39c0.71-0.99,0.7-1.03,1.78-1.58c0.29,0.13,0.62,0.29,0.94,0.44c0.11,0.34,0.22,0.65,0.37,1.11
		c0,0.18-1.92,2.88-2.76,3.73c2.86,2.86,5.72,5.72,8.65,8.65c0.48-0.35,1.07-0.77,1.66-1.2c1.51-1.11,3.05-2.2,4.52-3.36
		c0.55-0.44,1.11-0.64,1.76-0.56c0.68,0.4,1.31,0.95,2.03,1.13c0.73,0.19,1.26,0.83,2.05,0.79c0.6,0.54,1.45,0.5,2.12,0.89
		c0.26,0.15,0.63,0.09,0.97,0.22c0.58,0.22,0.73,0.69,0.76,1.12c0.1,1.36,0.42,2.7,0.53,4.06c0.09,1.08,0.38,2.14,0.45,3.24
		c0.02,0.28,0.19,0.55,0.3,0.82c3.99,0,7.96,0,12,0c0.42-2.8,0.84-5.59,1.26-8.37c0.12-0.95,0.99-1.04,1.65-1.22
		c1.67-0.47,3.27-1.07,4.76-1.95c0.28-0.17,0.61-0.25,0.89-0.43c0.48-0.31,0.98-0.37,1.59-0.29c2.31,1.7,4.66,3.44,7.02,5.19
		c2.65-2.65,5.3-5.3,7.95-7.95c0.24-0.24,0.58-0.44,0.45-0.89c-0.67-0.79-4.42-5.79-5.23-7.23c0.37-0.72,0.81-1.44,1.13-2.22
		c0.64-1.55,1.47-3.03,1.76-4.72c0.08-0.45,0.42-0.85,0.69-1.35c2.85-0.52,5.77-0.85,8.72-1.3c0.03-0.03,0.11-0.11,0.24-0.24
		c0-3.93,0-7.91,0-11.96c-0.73-0.09-1.53-0.14-2.3-0.29c-0.6-0.12-1.22-0.13-1.79-0.26c-0.61-0.14-1.24-0.06-1.79-0.24
		c-0.41-0.13-0.81-0.16-1.22-0.21c-0.37-0.04-0.73-0.14-1.09-0.23c-0.32-0.08-0.64-0.17-1.03-0.28c-0.7-2.84-2.03-5.45-3.24-8.01
		c0.09-0.31,0.16-0.55,0.22-0.77c1.66-2.27,3.46-4.44,4.93-6.7c-2.9-2.9-5.74-5.74-8.57-8.57c-2.26,1.67-4.59,3.4-7.03,5.2
		c-0.3-0.08-0.73-0.1-1.07-0.29c-1.18-0.67-2.4-1.25-3.67-1.73c-0.78-0.3-1.56-0.66-2.37-0.83c-0.5-0.1-0.84-0.49-1.34-0.52
		c-0.26-0.42-0.37-0.87-0.36-1.39c0.01-0.4-0.15-0.8-0.22-1.2c-0.06-0.37,0.13-0.77-0.23-1.1c-0.08-0.07-0.01-0.3-0.01-0.46
		c-0.04-1.33-0.47-2.61-0.49-3.95c0-0.27-0.2-0.54-0.33-0.85c-3.92,0-7.9,0-11.87,0c-0.2,0.4-0.45,0.8-0.32,1.28
		c0.14,0.49-0.25,0.86-0.25,1.32c0,0.45-0.02,0.87-0.19,1.34c-0.24,0.7-0.2,1.5-0.28,2.26c-0.06,0.64-0.23,1.26-0.28,1.91
		c-0.05,0.66-0.66,1.2-1.27,1.3c-1.29,0.23-2.43,0.82-3.64,1.24c-0.92,0.33-1.77,0.86-2.66,1.3c-0.98,0.49-1.24,0.41-2.11-0.25
		c-1.13-0.86-2.25-1.75-3.44-2.54c-0.94-0.63-1.78-1.41-2.59-2.05c-2.86,2.86-5.7,5.7-8.65,8.65c0-0.12-0.05,0.04,0.01,0.11
		c1.63,2.17,3.28,4.34,4.97,6.56c0,0.39,0,0.86,0,1.28c-1.24,2.22-2.27,4.48-2.88,6.96c-0.22,0.22-0.47,0.47-0.77,0.77
		c-2.81,0.42-5.67,0.84-8.56,1.27c-0.16,0.89-0.21,9.1-0.06,11.94c0.08,0.08,0.17,0.17,0.24,0.24c0.73,0.11,1.43,0.21,2.14,0.31
		c0.71,0.1,1.43,0.19,2.26,0.31c0.17,0.2,0.43,0.49,0.75,0.85c0,0.2,0,0.51,0,0.87c-0.26,0.23-0.56,0.49-0.91,0.8
		c-0.42-0.01-0.93,0.05-1.46-0.2c-0.46-0.21-1.08,0.17-1.55-0.26c-0.02-0.02-0.08,0-0.12,0c-0.95-0.09-1.91-0.18-2.93-0.28
		c-0.16-0.08-0.41-0.17-0.6-0.33c-0.19-0.15-0.32-0.38-0.47-0.57C11.37,74.53,11.37,69.47,11.37,64.42z M116.99,43.76
		c0.13-2.09-0.84-3.59-2.24-4.94c-1.19-1.14-2.63-1.52-4.18-1.62c-0.55-0.03-1.13,0.08-1.67,0.24c-0.56,0.16-1.09,0.43-1.6,0.7
		c-0.42,0.23-0.84,0.5-1.19,0.84c-0.44,0.42-0.85,0.89-1.17,1.41c-0.3,0.49-0.46,1.07-0.69,1.61c-0.22,0.54,0.21,1.17-0.25,1.67
		c0.37,0.99,0.25,2.08,0.81,3.07c0.6,1.07,1.37,1.92,2.39,2.5c0.99,0.56,2.06,1.01,3.26,0.98c1.79-0.04,3.45-0.61,4.65-1.87
		C116.3,47.1,117.19,45.58,116.99,43.76z M110.64,106.86c0.57-0.56,1.29-0.16,1.9-0.47c0.54-0.27,1.14-0.51,1.67-0.79
		c0.53-0.28,0.97-0.79,1.35-1.28c0.38-0.49,0.78-0.98,0.97-1.6c0.09-0.28,0.47-1.59,0.47-1.81c0-0.67,0.15-1.38-0.03-2
		c-0.89-3.1-2.96-4.82-5.65-5.09c-3.84-0.38-6.12,1.95-7.1,4.82c-0.01,1.02-0.17,2.08,0.04,3.05c0.16,0.75,0.38,1.59,0.94,2.2
		c1.06,1.14,2.12,2.29,3.75,2.64C109.47,106.67,110.08,106.39,110.64,106.86z"/>
	<path d="M77.68,132.63c-0.9-0.69-0.95-0.79-0.95-1.95c0-3.83,0-7.65,0-11.48c0-0.08-0.01-0.16,0-0.24
		c0.15-1.59,0.37-1.92,1.96-1.94c5.6-0.05,11.2-0.02,16.81-0.02c2.05,0,4.1,0,6.28,0c0.3,0.28,0.66,0.63,0.99,0.94
		c0,4.58,0,9.07,0,13.62c-0.21,0.32-0.45,0.7-0.69,1.07C93.95,132.63,85.81,132.63,77.68,132.63z M100.14,130c0-3.52,0-6.94,0-10.36
		c-3.82-0.16-19.78-0.1-20.76,0.07c0,3.43,0,6.85,0,10.29C86.31,130,93.21,130,100.14,130z"/>
	<path d="M28.66,71.94c0-0.36,0.01-0.71,0-1.07c-0.04-1.3,0.21-2.56,0.43-3.84c0.18-1.07,0.47-2.11,0.8-3.12
		c0.46-1.41,1.12-2.78,1.88-4.07c0.84-1.42,1.7-2.86,2.95-4c0.36-0.33,0.57-0.83,0.94-1.14c1.66-1.35,3.26-2.76,5.14-3.85
		c1.6-0.93,3.28-1.62,4.99-2.25c0.83-0.3,1.78-0.27,2.6-0.58c0.68-0.25,1.38-0.04,2.01-0.3c0.65-0.27,1.3-0.1,1.95-0.14
		c0.71-0.04,1.42-0.05,2.13,0c1.57,0.12,3.13,0.39,4.65,0.77c1.67,0.41,3.26,1.07,4.8,1.84c1.29,0.65,2.49,1.45,3.66,2.31
		c1.53,1.12,2.84,2.48,4.04,3.89c1.55,1.82,2.88,3.83,3.71,6.15c0.33,0.92,0.69,1.84,1,2.78c0.18,0.52,0.26,1.08,0.38,1.62
		c0.08,0.36,0.17,0.72,0.24,1.09c0.06,0.33-0.11,0.68,0.21,0.99c0.12,0.11,0.03,0.45,0.03,0.69c0,1.34,0.02,2.68-0.01,4.02
		c-0.01,0.48,0.15,0.96-0.19,1.46c-0.25,0.37,0.18,1-0.27,1.42c0.01,1.33-0.54,2.53-0.96,3.75c-0.44,1.28-1.04,2.49-1.71,3.68
		c-0.7,1.25-1.51,2.42-2.42,3.48c-1.07,1.26-2.27,2.45-3.61,3.49c-1.59,1.24-3.31,2.24-5.1,3.15c-0.77,0.39-3.67,1.33-4.47,1.5
		c-1.19,0.25-2.38,0.4-3.59,0.52c-0.75,0.07-1.52,0.26-2.27,0.17c-1.97-0.23-4-0.14-5.88-0.93c-1.25-0.07-2.34-0.65-3.44-1.14
		c-1.07-0.47-2.11-1-3.12-1.62c-1.47-0.9-2.83-1.9-4.02-3.13c-0.89-0.92-1.9-1.73-2.6-2.83c-0.46-0.72-0.97-1.41-1.41-2.14
		c-0.44-0.72-0.9-1.44-1.25-2.2c-0.75-1.67-1.35-3.4-1.77-5.19c-0.2-0.84-0.34-1.69-0.44-2.53C28.58,73.77,28.66,72.85,28.66,71.94z
		 M68.49,73.97c0,4.34,0,8.63,0,13.05c0.26-0.17,0.47-0.25,0.6-0.4c0.2-0.22,0.31-0.52,0.52-0.73c0.96-0.97,1.67-2.14,2.31-3.31
		c0.52-0.95,1.08-1.91,1.37-2.98c0.28-1.07,0.91-2.04,0.84-3.2c0.47-0.41,0.02-1.05,0.27-1.42c0.34-0.5,0.17-0.98,0.19-1.46
		c0.04-1.22,0.04-2.45,0-3.67c-0.03-0.75-0.06-1.54-0.28-2.25c-0.37-1.15-0.63-2.32-1.09-3.45c-0.55-1.37-1.22-2.66-1.98-3.91
		c-0.45-0.75-1.05-1.39-1.56-2.09c-0.79-1.09-1.76-1.98-2.74-2.87c-0.87-0.79-1.91-1.42-2.94-2.02c-1.07-0.62-2.15-1.25-3.35-1.62
		c-1.2-0.37-2.34-0.96-3.63-0.95c-0.44-0.46-1.08-0.04-1.53-0.31c-0.57-0.34-1.14-0.12-1.71-0.15c-0.87-0.05-1.75-0.1-2.6,0.01
		c-0.84,0.11-1.69,0.29-2.53,0.41c-1.34,0.19-2.61,0.6-3.82,1.09c-2.2,0.89-4.25,2.11-6.05,3.66c-2.15,1.86-3.9,4.06-5.2,6.6
		c-0.72,1.41-1.41,2.83-1.6,4.43c-0.44,0.35-0.19,0.91-0.44,1.36c-0.24,0.43-0.22,1.02-0.26,1.54c-0.04,0.51-0.01,1.03-0.01,1.54
		c0,0.47,0,0.95,0,1.42c0,0.46,0.02,0.92,0.03,1.39c3.24-2.4,6.42-4.75,9.62-7.12c0.36,0,0.75,0,1.06,0
		c0.61,0.5,1.19,0.95,1.74,1.43c0.7,0.61,1.32,1.28,2.06,1.86c1.19,0.93,2.24,2.04,3.37,3.08c3.68-2.39,7.35-4.78,11.06-7.19
		c-0.61-0.48-1.24-0.39-1.84-0.37c-0.55,0.02-1.06-0.03-1.56-0.4c-0.08-0.43-0.17-0.9-0.25-1.29c0.57-0.78,1.26-1.02,2.08-0.92
		c0.52,0.06,1.04,0.19,1.56,0.22c0.55,0.04,1.1,0.01,1.66,0.01c0.98,0,1.96,0,2.93,0c0.38,0.29,0.74,0.56,1.03,0.78
		c0,0.5,0,0.89,0,1.11c-0.51,1.23-0.96,2.31-1.4,3.39c-0.32,0.78-0.71,1.53-0.93,2.34c-0.2,0.77-0.56,1.27-1.45,1.44
		c-0.38-0.26-0.81-0.55-1.16-0.79c0-0.51,0-0.9,0-1.12c0.34-0.81,0.61-1.46,0.88-2.11c-0.07-0.02-0.12-0.05-0.14-0.04
		c-4.05,2.47-7.97,5.15-11.94,7.75c-0.03,0.02-0.06,0.04-0.08,0.05c-0.41,0-0.8,0-1.09,0c-0.69-0.57-1.32-1.07-1.93-1.6
		c-0.72-0.64-1.37-1.35-2.15-1.95c-1.1-0.85-2.08-1.87-3.08-2.8c-3.23,2.4-6.45,4.8-9.64,7.16c0.32,3.06,3.45,8.89,5.69,10.41
		c0-1.8,0-3.52,0-5.24c0-1.73,0-3.46,0-5.25c0.4-0.26,0.81-0.53,1.13-0.74c1.25,0.4,1.48,1.3,1.48,2.35c0,3.75,0,7.5,0,11.31
		c2,1.62,4.31,2.66,6.85,3.43c0-2.88,0-5.68,0-8.53c0.43-0.28,0.87-0.56,1.28-0.82c0.39,0.2,0.69,0.35,0.92,0.47
		c0.33,0.48,0.43,0.93,0.43,1.45c-0.02,2.41-0.01,4.81-0.01,7.22c0,0.3,0.03,0.6,0.04,0.91c1.21-0.17,2.28,0.27,3.42,0.25
		c1.16-0.02,2.26-0.39,3.4-0.3c0-4.75,0-9.4,0-14.06c0.12-0.74,0.73-0.89,1.39-1.14c0.41,0.28,0.84,0.57,1.27,0.86
		c0,4.59,0,9.11,0,13.68c2.53-0.78,4.86-1.8,6.82-3.43c0-4.84,0-9.58,0-14.31c0-0.79,0.26-1.39,1.04-1.7
		c0.13-0.05,0.24-0.17,0.41-0.29C67.69,73.41,68.09,73.69,68.49,73.97z"/>
	<path d="M107.54,79.82c-0.3-0.3-0.66-0.66-0.96-0.97c0-4.6,0-9.1,0-13.46c0.35-1.01,1.02-1.23,1.9-1.22
		c7.69,0.02,15.38,0.01,23.18,0.01c0.3,0.3,0.66,0.66,0.96,0.97c0,4.6,0,9.1,0,13.46c-0.35,1.01-1.02,1.23-1.9,1.22
		C123.03,79.81,115.34,79.82,107.54,79.82z M109.22,66.81c0,3.53,0,6.95,0,10.36c4.26,0.17,19.77,0.1,20.76-0.08
		c0-3.43,0-6.85,0-10.28C123.05,66.81,116.15,66.81,109.22,66.81z"/>
	<path d="M102.79,26.04c-0.3,0.3-0.66,0.66-0.96,0.96c-7.68,0-15.25,0-22.83-0.01c-0.37,0-0.75-0.05-1.12-0.11
		c-0.92-0.13-0.95-0.81-1.12-1.43c-0.06-0.22-0.01-0.47-0.01-0.71c0-4.1,0-8.21,0-12.41c0.3-0.3,0.66-0.66,0.96-0.96
		c8.15,0,16.2,0,24.32,0c0.24,0.33,0.51,0.7,0.77,1.06C102.79,16.94,102.79,21.43,102.79,26.04z M79.36,24.36
		c6.99,0,13.89,0,20.78,0c0.14-3.1,0.09-9.42-0.07-10.34c-6.9,0-13.79,0-20.7,0C79.36,17.48,79.36,20.9,79.36,24.36z"/>
</g>
</svg>
