<?xml version="1.0" encoding="utf-8"?>
<!-- Generator: Adobe Illustrator 24.2.3, SVG Export Plug-In . SVG Version: 6.00 Build 0)  -->
<svg version="1.1" baseProfile="tiny" id="Layer_1" xmlns="http://www.w3.org/2000/svg" xmlns:xlink="http://www.w3.org/1999/xlink"
	 x="0px" y="0px" viewBox="0 0 144 144" overflow="visible" xml:space="preserve">
<g>
	<path d="M45.8,61.14c0.26-0.83,0.42-1.64,0.77-2.35c0.71-1.42,2.26-2.84,4-2.92c0.35-0.02,0.67-0.3,1.06-0.2
		c1.02,0.28,2.11,0.38,2.98,1.06c3.94-2.4,7.87-4.79,11.88-7.23c-0.19-1.54,0.45-2.95,1.51-4.1c0.57-0.62,1.34-1.14,2.23-1.35
		c3.4-0.83,5.73,0.68,6.92,3.47c3.4,0.78,6.79,1.55,10.27,2.34c0.96-1.7,2.44-2.86,4.49-3.09c1.59-0.18,3.02,0.47,4.19,1.44
		c1.88-1.19,3.77-2.4,5.66-3.58c1.87-1.17,3.75-2.32,5.66-3.49c0-0.3,0.02-0.57,0-0.84c-0.11-1.56,0.6-2.83,1.58-3.9
		c0.78-0.85,1.82-1.36,3.01-1.48c0.32-0.03,0.65-0.23,0.95-0.19c1.12,0.16,2.26,0.36,3.16,1.12c0.88,0.73,1.56,1.61,1.89,2.74
		c0.27,0.91,0.33,2.51-0.02,3.46c-0.16,0.45-0.34,0.94-0.65,1.28c-0.92,1-1.82,2.09-3.35,2.18c-1.17,0.58-2.26-0.05-3.37-0.21
		c-0.44-0.48-0.94-0.19-1.26,0.06c-1.36,1.02-2.85,1.84-4.28,2.74c-1.31,0.82-2.6,1.68-3.97,2.42c-1.11,0.6-2.13,1.38-3.19,2.08
		c-0.29,1.07-0.52,2.16-1.32,2.99c0.04,0.34-0.25,0.51-0.45,0.63c-0.63,0.39-1.16,0.95-1.92,1.13c-0.57,0.14-1.14,0.41-1.7,0.39
		c-1.28-0.04-2.54-0.34-3.52-1.25c-0.44-0.41-0.93-0.77-1.21-1.36c-0.14-0.29-0.55-0.46-0.79-0.65c-1.85-0.2-3.57-0.73-5.32-1.12
		c-1.7-0.38-3.43-0.67-5.22-1.23c-0.04,0.06-0.13,0.16-0.19,0.29c-0.39,0.83-1.19,1.21-1.9,1.66c-0.42,0.27-0.94,0.51-1.43,0.54
		c-1.13,0.07-2.31,0.2-3.32-0.47c-0.46-0.3-0.91-0.37-1.27-0.34c-3.87,2.35-7.63,4.64-11.43,6.95c-0.04,2.69-1.26,4.66-3.82,5.66
		c-1.6,0.62-4.16,0.14-4.99-0.96c-0.34-0.05-0.62,0.03-0.95,0.16c-1.89,0.8-3.77,1.6-5.68,2.34c-1.01,0.39-2.01,0.83-3.01,1.26
		c-0.68,0.29-1.35,0.58-2.12,0.91c0.14,0.89-0.15,1.79-0.64,2.62c-0.74,1.26-1.76,2.21-3.21,2.66c-1.34,0.42-2.62,0.18-3.9-0.22
		c-0.59-0.6-1.46-0.8-1.94-1.62c-0.37-0.62-0.81-1.17-0.99-1.88c-0.05-0.19-0.12-0.38-0.13-0.57c-0.02-0.48-0.01-0.97,0-1.45
		c0.03-1.61,0.83-2.84,2.02-3.81c0.54-0.44,1.17-0.8,1.9-0.92c0.12-0.02,0.24-0.13,0.36-0.13c1.1,0,2.22-0.14,3.26,0.41
		c0.11,0.06,0.29,0.04,0.36,0.12c0.65,0.72,1.3,0.46,2.01,0.1c1.4-0.7,2.9-1.19,4.33-1.83c1.13-0.51,2.29-0.99,3.46-1.43
		C44.14,61.87,45,61.54,45.8,61.14z"/>
	<path fill="none" stroke="#000000" stroke-width="2.7056" stroke-miterlimit="10" d="M109.22,64.19c2.21,0,4.46-0.02,6.71,0.01
		c1.18,0.02,2.09,0.59,2.6,1.68c0.19,0.4,0.32,0.84,0.32,1.33c-0.02,13.02-0.01,26.03-0.01,39.05c0,1.19-0.74,2.4-2.15,2.81
		c-0.42,0.12-0.83,0.21-1.27,0.21c-1.59-0.02-3.19-0.04-4.78,0.01c-0.62,0.02-1.19-0.15-1.78-0.25c-0.65-0.11-1.75-1.34-1.89-2.04
		c-0.15-0.74-0.17-1.47-0.17-2.21c0-12.36,0-24.72-0.01-37.08c0-0.89,0.18-1.7,0.81-2.37c0.22-0.23,0.51-0.51,0.92-0.74
		C108.75,64.48,108.97,64.34,109.22,64.19z"/>
	<path fill="none" stroke="#000000" stroke-width="2.7056" stroke-miterlimit="10" d="M66.3,71.75c0.65-0.62,1.13-1.31,1.96-1.53
		c2.22,0,4.43,0.05,6.65-0.02c1.34-0.04,2.82,0.96,3.04,2.49c0.07,0.46,0.17,0.91,0.17,1.37c0,10.49-0.01,20.98,0.02,31.47
		c0,0.59-0.08,1.18-0.27,1.66c-0.35,0.9-0.99,1.61-2.03,1.89c-0.74,0.2-1.47,0.18-2.2,0.19c-1.45,0.01-2.91,0-4.36,0
		c-0.59,0-1.56-0.27-2.02-0.63c-0.71-0.55-1.19-1.23-1.19-2.18c0-11.15,0.01-22.29-0.01-33.44C66.06,72.56,66.31,72.19,66.3,71.75z"
		/>
	<path fill="none" stroke="#000000" stroke-width="2.7056" stroke-miterlimit="10" d="M88.63,76.24c2.33,0,4.68,0,7.03,0
		c1.11,0,2.27,0.87,2.61,1.93c0.13,0.41,0.22,0.82,0.22,1.26c-0.01,8.83-0.02,17.66,0,26.48c0,1.27-0.61,2.19-1.56,2.87
		c-0.44,0.32-1.1,0.44-1.67,0.45c-1.87,0.05-3.74,0.02-5.61,0.02c-0.62,0-1.79-0.41-2.24-0.84c-0.25-0.23-0.39-0.58-0.57-0.88
		c-0.13-0.22-0.26-0.45-0.42-0.73c0-9.07,0-18.21,0-27.35c0-1.43,0.56-2.48,1.94-3.03C88.46,76.41,88.53,76.32,88.63,76.24z"/>
	<path fill="none" stroke="#000000" stroke-width="2.7056" stroke-miterlimit="10" d="M57.56,107.01c-0.19,0.38-0.32,0.72-0.53,1
		c-0.41,0.54-1.01,0.82-1.63,1.05c-0.42,0.15-0.83,0.21-1.27,0.21c-1.63-0.01-3.25-0.05-4.88,0.01c-0.59,0.02-1.13-0.15-1.67-0.26
		c-0.64-0.12-1.06-0.66-1.44-1.18c-0.14-0.19-0.25-0.39-0.39-0.6c-0.45-2.34-0.19-4.74-0.23-7.14c-0.04-2.42-0.01-4.85-0.01-7.27
		c0-2.42-0.01-4.85,0-7.27c0.01-1.49-0.13-3,0.35-4.76c0.21-0.23,0.62-0.67,1.05-1.1c0.25-0.25,1.29-0.58,1.73-0.58
		c1.94,0,3.88-0.01,5.81,0c1.53,0.01,2.43,0.75,3.02,2.12c0.09,0.2,0.07,0.46,0.07,0.7C57.56,90.34,57.56,98.71,57.56,107.01z"/>
	<path fill="none" stroke="#000000" stroke-width="2.7056" stroke-miterlimit="10" d="M37.2,106.83c-0.15,0.26-0.32,0.47-0.41,0.71
		c-0.48,1.24-1.55,1.65-2.7,1.7c-1.93,0.09-3.88,0.02-5.81,0.03c-0.61,0-1.2-0.18-1.64-0.54c-0.55-0.45-1.16-0.91-1.3-1.74
		c-0.06-0.31-0.18-0.62-0.18-0.96c0-6.16,0-12.32,0-18.43c0.14-0.24,0.3-0.42,0.37-0.63c0.28-0.96,1.01-1.36,1.87-1.69
		c0.28-0.1,0.53-0.11,0.78-0.11c2.01-0.01,4.02-0.01,6.02-0.01c1.42,0,3.01,1.14,3.01,3.01C37.2,94.42,37.2,100.65,37.2,106.83z"/>
</g>
</svg>
