<?xml version="1.0" encoding="utf-8"?>
<!-- Generator: Adobe Illustrator 24.2.3, SVG Export Plug-In . SVG Version: 6.00 Build 0)  -->
<svg version="1.1" baseProfile="tiny" id="Layer_1" xmlns="http://www.w3.org/2000/svg" xmlns:xlink="http://www.w3.org/1999/xlink"
	 x="0px" y="0px" viewBox="0 0 144 144" overflow="visible" xml:space="preserve">
<g>
	<path d="M63.28,33.39c6.04,0,12.07,0,18.11,0c2.29,0.92,1.86,3.05,1.99,4.98c1.26,0,2.34,0,3.43,0c3.4,0,3.77,0.35,4,3.8
		c0.01,0.08,0.11,0.16,0.24,0.33c2.63,0,5.33-0.01,8.03,0c3.3,0.01,4.53,1.24,4.53,4.51c0,17.55,0,35.11,0,52.66
		c0,3.65-0.03,7.29-0.04,10.94c-20.19,0-40.38,0-60.58,0c-1.93-0.96-2.59-2.46-2.59-4.64c0.07-19.61,0.04-39.22,0.04-58.83
		c0-3.46,1.21-4.67,4.67-4.67c2.69,0,5.38,0,8.11,0c0.03-0.41,0.05-0.67,0.06-0.92c0.08-2.51,0.76-3.17,3.31-3.17
		c1.49,0,2.99,0,4.45,0C61.88,34.18,61.88,34.18,63.28,33.39z M90.76,45.77c0,1.01,0.01,1.84,0,2.67c-0.03,2.05-0.89,2.91-2.97,2.96
		c-0.62,0.02-1.25,0-1.87,0c-9.78,0-19.56,0-29.34,0c-2.42,0-3.27-0.81-3.3-3.1c-0.01-0.82,0-1.64,0-2.5c-3.29,0-6.43,0-9.57,0
		c0,20.57,0,41.01,0,61.5c18.96,0,37.81,0,56.62,0c0-20.56,0-41,0-61.54C97.12,45.77,94.03,45.77,90.76,45.77z M56.67,48.02
		c10.29,0,20.44,0,30.64,0c0-2.18,0-4.27,0-6.29c-0.16-0.1-0.2-0.15-0.24-0.15c-1.45-0.02-2.91-0.02-4.36-0.05
		c-2.07-0.04-2.58-0.55-2.59-2.58c0-0.75,0-1.5,0-2.27c-5.33,0-10.4,0-15.64,0c0,0.69,0,1.3,0,1.91c0,2.55-0.4,2.94-3.01,2.94
		c-1.59,0-3.18,0-4.8,0C56.67,43.79,56.67,45.81,56.67,48.02z"/>
	<path d="M67.17,59.9c-0.04-0.08-0.07-0.15-0.11-0.19c-0.97-1-0.82-2.11,0.45-2.67c0.28-0.12,0.86,0.08,1.1,0.33
		c0.46,0.47,0.83,0.33,1.33,0.13c0.49-0.19,0.65-0.46,0.57-0.97c-0.15-1.01,0.56-1.03,1.27-1.03c0.68,0,1.46-0.24,1.49,0.9
		c0.03,0.86,0.08,0.86,1.5,1.39c0.16-0.2,0.32-0.56,0.59-0.7c0.27-0.14,0.73-0.2,0.97-0.07c0.42,0.24,0.8,0.62,1.07,1.02
		c0.14,0.2,0.15,0.74,0,0.87c-0.83,0.7-0.66,1.41-0.08,2.21c0.27,0,0.64-0.09,0.92,0.02c0.29,0.11,0.62,0.38,0.71,0.65
		c0.13,0.4,0.05,0.86,0.06,1.29c0.01,0.74-0.49,0.92-1.07,0.84c-0.7-0.1-0.89,0.36-0.97,0.84c-0.05,0.31,0.03,0.78,0.23,0.98
		c0.9,0.84,0.18,1.32-0.3,1.9c-0.52,0.62-1.05,0.86-1.63,0.13c-0.46-0.59-0.95-0.37-1.37-0.07c-0.25,0.18-0.46,0.58-0.48,0.89
		c-0.07,0.75-0.02,1.51-0.02,2.38c1.46,0,2.82,0,4.17,0c1.66,0,3.33-0.01,4.99,0.01c1.07,0.01,1.42,0.37,1.43,1.45
		c0.02,1.43-0.01,2.87,0.01,4.3c0.01,0.8-0.34,1.35-1.13,1.34c-0.79-0.01-1.13-0.55-1.11-1.36c0.03-1.09,0.01-2.19,0.01-3.37
		c-2.8,0-5.53,0-8.37,0c0,1.01,0.01,2,0,2.99c-0.01,1.01-0.54,1.61-1.38,1.6c-0.79-0.01-1.31-0.57-1.34-1.54
		c-0.03-0.99-0.01-1.99-0.01-3.06c-2.82,0-5.56,0-8.43,0c0,1.14-0.02,2.26,0.01,3.38c0.02,0.8-0.32,1.35-1.11,1.36
		c-0.79,0-1.14-0.55-1.13-1.35c0.02-1.4,0-2.8,0.01-4.2c0.01-1.18,0.36-1.55,1.55-1.55c2.96-0.01,5.92,0,9.02,0
		c0-0.96,0.11-1.89-0.05-2.78c-0.07-0.37-0.74-0.62-1.07-0.88c-0.19,0.07-0.27,0.08-0.31,0.12c-1.08,1.07-1.92,0.99-2.66-0.38
		c-0.15-0.27,0.05-0.9,0.3-1.17c0.39-0.43,0.38-0.75,0.16-1.23c-0.21-0.47-0.41-0.76-1.01-0.68c-1.31,0.16-0.92-0.9-1.05-1.57
		c-0.13-0.71,0.11-1.25,0.91-1.18C66.87,61.34,66.86,60.48,67.17,59.9z M71.98,65.39c1.57-0.02,2.83-1.31,2.79-2.88
		c-0.04-1.56-1.33-2.79-2.92-2.75c-1.53,0.03-2.74,1.29-2.74,2.83C69.12,64.17,70.39,65.41,71.98,65.39z"/>
	<g>
		<g>
			<path d="M60.65,87.28H49.38c-0.61,0-1.11-0.5-1.11-1.11v0c0-0.61,0.5-1.11,1.11-1.11h11.27c0.61,0,1.11,0.5,1.11,1.11v0
				C61.75,86.78,61.26,87.28,60.65,87.28z"/>
			<path d="M60.65,94.56H49.38c-0.61,0-1.11-0.5-1.11-1.11v0c0-0.61,0.5-1.11,1.11-1.11h11.27c0.61,0,1.11,0.5,1.11,1.11v0
				C61.75,94.06,61.26,94.56,60.65,94.56z"/>
			<path d="M60.65,101.83H49.38c-0.61,0-1.11-0.5-1.11-1.11v0c0-0.61,0.5-1.11,1.11-1.11h11.27c0.61,0,1.11,0.5,1.11,1.11v0
				C61.75,101.34,61.26,101.83,60.65,101.83z"/>
		</g>
		<g>
			<path d="M77.63,87.35H66.37c-0.61,0-1.11-0.5-1.11-1.11v0c0-0.61,0.5-1.11,1.11-1.11h11.27c0.61,0,1.11,0.5,1.11,1.11v0
				C78.74,86.86,78.25,87.35,77.63,87.35z"/>
			<path d="M77.63,94.63H66.37c-0.61,0-1.11-0.5-1.11-1.11v0c0-0.61,0.5-1.11,1.11-1.11h11.27c0.61,0,1.11,0.5,1.11,1.11v0
				C78.74,94.13,78.25,94.63,77.63,94.63z"/>
			<path d="M77.63,101.91H66.37c-0.61,0-1.11-0.5-1.11-1.11v0c0-0.61,0.5-1.11,1.11-1.11h11.27c0.61,0,1.11,0.5,1.11,1.11v0
				C78.74,101.41,78.25,101.91,77.63,101.91z"/>
		</g>
		<g>
			<path d="M94.62,87.43H83.35c-0.61,0-1.11-0.5-1.11-1.11v0c0-0.61,0.5-1.11,1.11-1.11h11.27c0.61,0,1.11,0.5,1.11,1.11v0
				C95.73,86.93,95.23,87.43,94.62,87.43z"/>
			<path d="M94.62,94.71H83.35c-0.61,0-1.11-0.5-1.11-1.11v0c0-0.61,0.5-1.11,1.11-1.11h11.27c0.61,0,1.11,0.5,1.11,1.11v0
				C95.73,94.21,95.23,94.71,94.62,94.71z"/>
			<path d="M94.62,101.99H83.35c-0.61,0-1.11-0.5-1.11-1.11v0c0-0.61,0.5-1.11,1.11-1.11h11.27c0.61,0,1.11,0.5,1.11,1.11v0
				C95.73,101.49,95.23,101.99,94.62,101.99z"/>
		</g>
	</g>
</g>
</svg>
