<?xml version="1.0" encoding="utf-8"?>
<!-- Generator: Adobe Illustrator 24.2.3, SVG Export Plug-In . SVG Version: 6.00 Build 0)  -->
<svg version="1.1" baseProfile="tiny" id="Layer_1" xmlns="http://www.w3.org/2000/svg" xmlns:xlink="http://www.w3.org/1999/xlink"
	 x="0px" y="0px" viewBox="0 0 144 144" overflow="visible" xml:space="preserve">
<g>
	<path d="M24.63,42.25c1.47,0,2.94-0.07,4.41,0.01c4,0.23,6.26,1.95,7.44,5.84c0.94,3.1,1.74,6.24,2.52,9.38
		c0.95,3.81,1.8,7.65,2.7,11.48c0.76,3.25-0.12,6.08-2.27,8.53c-2.72,3.1-2.8,3.1-0.85,6.75c1.84,3.44,3.98,6.7,6.83,9.41
		c2.82,2.68,5.67,5.33,8.61,7.87c4.1,3.54,8.71,6.19,13.96,7.69c1.01,0.29,1.78,0.07,2.45-0.65c0.56-0.6,1.08-1.24,1.65-1.83
		c2.16-2.23,4.75-3.47,7.9-3.05c6.98,0.92,13.96,1.87,20.92,2.89c2.91,0.42,5.41,1.66,6.6,4.57c0.42,1.02,0.64,2.16,0.73,3.27
		c0.31,3.82,0.63,7.65,0.74,11.48c0.15,5.07-6.64,10.51-12.11,9.95c-7.91-0.82-15.79-1.86-23.5-3.87
		c-11.54-3-22.21-7.72-31.67-15.14c-14.73-11.56-24.31-26.51-29.52-44.36c-1.58-5.42-2.82-10.95-4.11-16.45
		c-1.33-5.64,3.3-13.29,9.97-13.6c2.2-0.1,4.4-0.27,6.59-0.4C24.63,42.09,24.63,42.17,24.63,42.25z M24.52,46.79
		c-1.53,0.08-3.6,0.15-5.67,0.32c-3.96,0.33-6.97,4.28-6.07,8.16c1.25,5.42,2.48,10.86,4.06,16.2
		c4.99,16.89,14.12,31.02,28.13,41.91c9.04,7.03,19.27,11.4,30.27,14.18c7.05,1.78,14.23,2.84,21.47,3.46
		c4.23,0.36,7.7-2.62,7.64-6.83c-0.04-3.1-0.46-6.2-0.84-9.28c-0.34-2.79-0.8-3.25-3.59-3.67c-5.51-0.83-11.07-1.37-16.53-2.42
		c-4.08-0.78-7.27-0.26-9.89,3.3c-1.51,2.05-4,2.49-6.5,1.72c-1.81-0.55-3.64-1.12-5.35-1.9c-8.92-4.09-15.88-10.68-22.25-17.92
		c-2.76-3.13-4.96-6.75-6.41-10.74c-0.89-2.45-0.58-4.67,0.99-6.71c0.47-0.62,0.97-1.22,1.52-1.77c1.54-1.54,2.01-3.29,1.45-5.44
		c-1.07-4.18-1.99-8.4-3.03-12.59c-0.61-2.47-1.31-4.92-2.01-7.37c-0.44-1.52-1.33-2.44-3.08-2.38
		C27.58,47.05,26.32,46.89,24.52,46.79z"/>
	<path d="M68.79,21.47c21.36,0.86,38.75,9.86,49.84,29.04c9.59,16.59,9.83,33.92,1.77,51.34c-0.52,1.13-1.31,1.84-2.61,1.7
		c-1.11-0.12-1.88-0.81-2.01-1.9c-0.08-0.63,0.13-1.37,0.41-1.97c3.79-7.92,5.49-16.26,4.91-25.03
		c-0.87-13.23-6.19-24.45-15.74-33.57C88.83,25.3,63.91,21.8,43.54,32.25c-0.27,0.14-0.54,0.28-0.81,0.4
		c-1.34,0.59-2.63,0.21-3.25-0.94c-0.65-1.21-0.22-2.56,1.13-3.28c6.59-3.51,13.61-5.68,21.04-6.48
		C63.84,21.71,66.05,21.65,68.79,21.47z"/>
	<g>
		<g>
			<path d="M53.13,80.31c2.71,0,5.15-0.01,7.59,0.01c0.49,0,0.99,0.02,1.45,0.14c0.97,0.25,1.47,0.98,1.36,1.87
				c-0.11,0.91-0.73,1.51-1.74,1.53c-1.96,0.04-3.93,0.02-5.89,0.02c-1.83,0-3.66,0.02-5.5-0.01c-1.99-0.03-2.91-1.4-2.14-3.24
				c0.26-0.62,0.58-1.29,1.05-1.75c2.08-1.99,4.24-3.88,6.33-5.86c0.99-0.94,2.03-1.88,2.74-3.02c1.24-1.99,0.57-4.24-1.3-5.11
				c-2.04-0.94-4.2,0.03-5.05,2.27c-0.17,0.46-0.34,0.92-0.57,1.35c-0.51,0.98-1.25,1.33-2.16,1.07c-0.9-0.25-1.34-0.93-1.26-2.05
				c0.14-2.07,1.1-3.72,2.86-4.78c2.94-1.76,6.07-1.8,9.1-0.31c3.05,1.51,4.1,5.52,2.32,8.57c-0.65,1.11-1.53,2.13-2.47,3.01
				c-1.69,1.59-3.51,3.04-5.25,4.58C54.11,79.05,53.72,79.62,53.13,80.31z"/>
			<path d="M79.41,79.21c0,1.04,0.04,2.02-0.01,2.99c-0.07,1.37-0.73,2.05-1.88,2.05c-1.11-0.01-1.81-0.74-1.88-2.07
				c-0.05-0.97-0.01-1.95-0.01-3.04c-2.24,0-4.38,0.01-6.53-0.01c-0.72-0.01-1.45,0.01-2.14-0.14c-1.7-0.38-2.37-2.04-1.39-3.49
				c1.07-1.57,2.23-3.07,3.37-4.58c2.08-2.78,4.15-5.55,6.24-8.32c0.59-0.78,1.25-1.45,2.37-1.25c1.06,0.19,1.7,0.77,1.79,1.89
				c0.09,1.14,0.08,2.29,0.08,3.43c0.01,2.97,0,5.94,0,8.94c1.28,0.41,3.35-0.34,3.19,1.97C82.49,79.49,80.76,78.99,79.41,79.21z
				 M75.57,66.98c-2.22,3-4.3,5.8-6.44,8.71c2.3,0,4.35,0,6.44,0C75.57,72.85,75.57,70.08,75.57,66.98z"/>
		</g>
		<g>
			<path d="M95.62,81.55L95.62,81.55c0.74-0.43,1-1.38,0.57-2.12l-8.57-14.85c-0.43-0.74-1.38-1-2.12-0.57l0,0
				c-0.74,0.43-1,1.38-0.57,2.12l8.57,14.85C93.92,81.72,94.88,81.98,95.62,81.55z"/>
			<path d="M85.49,81.55L85.49,81.55c-0.74-0.43-1-1.38-0.57-2.12l8.57-14.85c0.43-0.74,1.38-1,2.12-0.57h0
				c0.74,0.43,1,1.38,0.57,2.12l-8.57,14.85C87.19,81.72,86.23,81.98,85.49,81.55z"/>
		</g>
		<path d="M104.43,83.22l8.55-19.17c0.11-0.25,0.17-0.51,0.17-0.78v-0.18c0-1.06-0.86-1.92-1.92-1.92H98.57
			c-1.06,0-1.92,0.86-1.92,1.92v0c0,1.06,0.86,1.92,1.92,1.92h7.84c0.84,0,1.4,0.87,1.05,1.64l-6.65,14.96
			c-0.58,1.31,0.38,2.79,1.81,2.79l0,0C103.41,84.4,104.11,83.94,104.43,83.22z"/>
	</g>
	<path fill="none" stroke="#000000" stroke-width="4.8724" stroke-linecap="round" stroke-miterlimit="10" d="M32.63,20.82
		c10.2-6.13,22.15-9.66,34.92-9.66c37.49,0,67.89,30.39,67.89,67.89c0,11.09-2.66,21.55-7.37,30.79"/>
</g>
</svg>
