<?xml version="1.0" encoding="utf-8"?>
<!-- Generator: Adobe Illustrator 24.2.3, SVG Export Plug-In . SVG Version: 6.00 Build 0)  -->
<svg version="1.1" baseProfile="tiny" id="Layer_1" xmlns="http://www.w3.org/2000/svg" xmlns:xlink="http://www.w3.org/1999/xlink"
	 x="0px" y="0px" viewBox="0 0 144 144" overflow="visible" xml:space="preserve">
<g>
	<path d="M56.23,85.35H88.3V54.34c0-1.38-1.12-2.49-2.49-2.49c-1.38,0-2.49,1.12-2.49,2.49v26.02H61.22V35.47h24.76
		c1.31,0,2.38-1.07,2.38-2.38c0-1.31-1.07-2.38-2.38-2.38H61.22V19.53h22.09v3.14c0,1.38,1.12,2.49,2.49,2.49
		c1.38,0,2.49-1.12,2.49-2.49v-8.13H56.23V85.35z"/>
	<path d="M85.81,40.4c-1.44,0-2.6,1.17-2.6,2.6c0,1.44,1.17,2.6,2.6,2.6c1.44,0,2.6-1.17,2.6-2.6C88.41,41.57,87.25,40.4,85.81,40.4
		z"/>
	<rect x="69.67" y="44.36" width="5.2" height="5.2"/>
	<rect x="69.67" y="53.96" width="5.2" height="5.2"/>
	<rect x="69.67" y="63.56" width="5.2" height="5.2"/>
	<path d="M56.27,131.2h32.04v-25.7H56.27V131.2z M75.84,118.35l8.41-6.72v13.43L75.84,118.35z M78.84,127.14h-14l7-5.59
		L78.84,127.14z M71.85,115.16l-7-5.59h14L71.85,115.16z M67.85,118.35l-7.51,6v-12L67.85,118.35z"/>
	<path d="M86.01,88.16H58.57c-1.31,0-2.38,1.07-2.38,2.38s1.07,2.38,2.38,2.38h27.44c1.31,0,2.38-1.07,2.38-2.38
		S87.32,88.16,86.01,88.16z"/>
	<path d="M86.01,96.83H58.57c-1.31,0-2.38,1.07-2.38,2.38v0c0,1.31,1.07,2.38,2.38,2.38h27.44c1.31,0,2.38-1.07,2.38-2.38v0
		C88.39,97.9,87.32,96.83,86.01,96.83z"/>
	<circle cx="47.27" cy="101.7" r="2.6"/>
	<rect x="31.12" y="95.13" width="5.2" height="5.2"/>
	<rect x="31.12" y="85.54" width="5.2" height="5.2"/>
	<rect x="31.12" y="75.94" width="5.2" height="5.2"/>
	<path d="M47.44,113.99c1.31,0,2.38-1.07,2.38-2.38s-1.07-2.38-2.38-2.38H22.68V64.34h22.09v26.02c0,1.38,1.12,2.49,2.49,2.49
		c1.38,0,2.49-1.12,2.49-2.49V59.35H17.69v70.81h32.07v-8.13c0-1.38-1.12-2.49-2.49-2.49c-1.38,0-2.49,1.12-2.49,2.49v3.14H22.68
		v-11.18H47.44z"/>
	<path d="M49.77,13.5H17.73v25.7h32.04V13.5z M29.31,26.35l-7.51,6v-12L29.31,26.35z M26.3,17.57h14l-7,5.59L26.3,17.57z
		 M33.3,29.54l7,5.59h-14L33.3,29.54z M37.3,26.35l8.41-6.72v13.43L37.3,26.35z"/>
	<path d="M20.03,56.55h27.44c1.31,0,2.38-1.07,2.38-2.38c0-1.31-1.07-2.38-2.38-2.38H20.03c-1.31,0-2.38,1.07-2.38,2.38
		C17.65,55.48,18.72,56.55,20.03,56.55z"/>
	<path d="M20.03,47.87h27.44c1.31,0,2.38-1.07,2.38-2.38s-1.07-2.38-2.38-2.38H20.03c-1.31,0-2.38,1.07-2.38,2.38
		S18.72,47.87,20.03,47.87z"/>
	<circle cx="124.35" cy="103.17" r="2.6"/>
	<rect x="108.21" y="96.61" width="5.2" height="5.2"/>
	<rect x="108.21" y="87.01" width="5.2" height="5.2"/>
	<rect x="108.21" y="77.41" width="5.2" height="5.2"/>
	<path d="M124.53,115.46c1.31,0,2.38-1.07,2.38-2.38c0-1.31-1.07-2.38-2.38-2.38H99.77V65.81h22.09v26.02
		c0,1.38,1.12,2.49,2.49,2.49s2.49-1.12,2.49-2.49V60.82H94.78v70.81h32.07v-8.13c0-1.38-1.12-2.49-2.49-2.49s-2.49,1.12-2.49,2.49
		v3.14H99.77v-11.18H124.53z"/>
	<path d="M94.82,57.25h32.04v-25.7H94.82V57.25z M98.88,35.62h23.91v17.57H98.88V35.62z"/>
	<path d="M97.12,27.97h27.44c1.31,0,2.38-1.07,2.38-2.38c0-1.31-1.07-2.38-2.38-2.38H97.12c-1.31,0-2.38,1.07-2.38,2.38
		C94.74,26.91,95.8,27.97,97.12,27.97z"/>
	<path d="M97.12,19.3h27.44c1.31,0,2.38-1.07,2.38-2.38c0-1.31-1.07-2.38-2.38-2.38H97.12c-1.31,0-2.38,1.07-2.38,2.38
		C94.74,18.24,95.8,19.3,97.12,19.3z"/>
</g>
</svg>
