<?xml version="1.0" encoding="UTF-8"?>
<svg version="1.1" xmlns="http://www.w3.org/2000/svg" width="512" height="512">
<path d="M0 0 C0.66 0 1.32 0 2 0 C9.30722195 46.9690517 13.46268848 94.08640636 15.87432861 141.54718018 C15.98507051 143.70861027 16.10024103 145.86971931 16.21826172 148.03076172 C17.34241001 169.00194191 17.09941713 190.00616071 17 211 C21.22416811 209.10395005 23.61324835 206.2085052 26.5 202.6875 C27.56568335 201.41626844 28.63344774 200.14677897 29.703125 198.87890625 C30.52006836 197.91041748 30.52006836 197.91041748 31.35351562 196.92236328 C35.73947662 191.80150669 40.37069563 186.90006255 45 182 C45.70769531 181.24976563 46.41539062 180.49953125 47.14453125 179.7265625 C52.37776569 174.33345329 58.12706823 169.67561149 64 165 C65.06214465 164.12484567 66.12331635 163.24850939 67.18359375 162.37109375 C99.40705812 136 99.40705812 136 113 136 C111.42245466 142.13716028 108.07882695 147.04554583 104.6875 152.3125 C104.06447998 153.28437256 103.44145996 154.25624512 102.79956055 155.25756836 C93.89968136 168.96776759 83.80009198 181.74127989 73 194 C72.36231689 194.72670898 71.72463379 195.45341797 71.06762695 196.20214844 C65.17727517 202.83823913 58.98625395 209.13230549 52.6875 215.375 C51.7022352 216.35522882 50.71720819 217.33569672 49.73242188 218.31640625 C47.93333541 220.10743424 46.1326606 221.89680546 44.33081055 223.68505859 C43.56164307 224.44898926 42.79247559 225.21291992 42 226 C41.23921143 226.71881348 40.47842285 227.43762695 39.69458008 228.17822266 C37.77297228 229.82939096 37.77297228 229.82939096 38 232 C39.45623779 231.98428955 39.45623779 231.98428955 40.94189453 231.96826172 C110.61332574 231.29098623 180.13328725 236.58020326 249 247 C249 247.66 249 248.32 249 249 C201.70931796 256.35725967 154.28799897 260.49517397 106.50030518 262.87432861 C104.30187485 262.98482704 102.10378205 263.0999382 99.90576172 263.21826172 C79.2861618 264.31143978 58.64145404 264.10050146 38 264 C39.89604995 268.22416811 42.7914948 270.61324835 46.3125 273.5 C47.58373156 274.56568335 48.85322103 275.63344774 50.12109375 276.703125 C50.76675293 277.24775391 51.41241211 277.79238281 52.07763672 278.35351562 C57.19849331 282.73947662 62.09993745 287.37069563 67 292 C68.12535156 293.06154297 68.12535156 293.06154297 69.2734375 294.14453125 C74.66617241 299.37740247 79.32735392 305.12516828 84 311 C84.8871799 312.08532336 85.77522762 313.16993783 86.6640625 314.25390625 C95.6635482 325.32872499 103.17797029 337.08095854 109.625 349.8125 C110.13969849 350.82642822 110.13969849 350.82642822 110.66479492 351.86083984 C112.08944743 354.76361109 113 356.72355644 113 360 C106.86283972 358.42245466 101.95445417 355.07882695 96.6875 351.6875 C95.71562744 351.06447998 94.74375488 350.44145996 93.74243164 349.79956055 C80.03223241 340.89968136 67.25872011 330.80009198 55 320 C54.27329102 319.36231689 53.54658203 318.72463379 52.79785156 318.06762695 C46.16176087 312.17727517 39.86769451 305.98625395 33.625 299.6875 C32.64477118 298.7022352 31.66430328 297.71720819 30.68359375 296.73242188 C28.89256576 294.93333541 27.10319454 293.1326606 25.31494141 291.33081055 C24.55101074 290.56164307 23.78708008 289.79247559 23 289 C22.28118652 288.23921143 21.56237305 287.47842285 20.82177734 286.69458008 C19.17060904 284.77297228 19.17060904 284.77297228 17 285 C17.01047363 286.00635498 17.02094727 287.01270996 17.03173828 288.04956055 C17.68553334 357.69089922 12.41564653 427.16071689 2 496 C1.34 496 0.68 496 0 496 C-10.57171171 426.12924808 -15.73558208 355.67812112 -15 285 C-19.22416811 286.89604995 -21.61324835 289.7914948 -24.5 293.3125 C-25.56568335 294.58373156 -26.63344774 295.85322103 -27.703125 297.12109375 C-28.24775391 297.76675293 -28.79238281 298.41241211 -29.35351562 299.07763672 C-33.73947662 304.19849331 -38.37069563 309.09993745 -43 314 C-44.06154297 315.12535156 -44.06154297 315.12535156 -45.14453125 316.2734375 C-50.37740247 321.66617241 -56.12516828 326.32735392 -62 331 C-63.08532336 331.8871799 -64.16993783 332.77522762 -65.25390625 333.6640625 C-76.32872499 342.6635482 -88.08095854 350.17797029 -100.8125 356.625 C-101.82642822 357.13969849 -101.82642822 357.13969849 -102.86083984 357.66479492 C-105.76361109 359.08944743 -107.72355644 360 -111 360 C-109.42242471 353.86272324 -106.07864404 348.95467354 -102.6875 343.6875 C-102.06593018 342.71707764 -101.44436035 341.74665527 -100.80395508 340.74682617 C-94.99326225 331.78993111 -88.67014483 323.32853132 -82 315 C-81.21109375 313.99839844 -80.4221875 312.99679687 -79.609375 311.96484375 C-68.20765087 297.71268858 -55.12945094 285.00834029 -42.19140625 272.17553711 C-41.46824219 271.45760986 -40.74507812 270.73968262 -40 270 C-39.24589844 269.28787354 -38.49179688 268.57574707 -37.71484375 267.84204102 C-35.77287184 266.17547561 -35.77287184 266.17547561 -36 264 C-36.9708252 264.01047363 -37.94165039 264.02094727 -38.94189453 264.03173828 C-108.4076242 264.70642236 -178.39197262 260.09282286 -247 249 C-247 248.34 -247 247.68 -247 247 C-199.71501174 239.60489898 -152.23129407 235.56078456 -104.44891357 233.12567139 C-102.28490083 233.01462031 -100.12117972 232.89942057 -97.95751953 232.78173828 C-77.32153983 231.68181401 -56.65803536 231.89941781 -36 232 C-37.89604995 227.77583189 -40.7914948 225.38675165 -44.3125 222.5 C-45.58373156 221.43431665 -46.85322103 220.36655226 -48.12109375 219.296875 C-48.76675293 218.75224609 -49.41241211 218.20761719 -50.07763672 217.64648438 C-55.19849331 213.26052338 -60.09993745 208.62930437 -65 204 C-65.75023437 203.29230469 -66.50046875 202.58460938 -67.2734375 201.85546875 C-72.66654671 196.62223431 -77.32438851 190.87293177 -82 185 C-82.87515433 183.93785535 -83.75149061 182.87668365 -84.62890625 181.81640625 C-111 149.59294188 -111 149.59294188 -111 136 C-104.86272324 137.57757529 -99.95467354 140.92135596 -94.6875 144.3125 C-93.71707764 144.93406982 -92.74665527 145.55563965 -91.74682617 146.19604492 C-82.78993111 152.00673775 -74.32853132 158.32985517 -66 165 C-64.99839844 165.78890625 -63.99679688 166.5778125 -62.96484375 167.390625 C-48.71268858 178.79234913 -36.00834029 191.87054906 -23.17553711 204.80859375 C-22.45760986 205.53175781 -21.73968262 206.25492188 -21 207 C-20.28787354 207.75410156 -19.57574707 208.50820312 -18.84204102 209.28515625 C-17.17547561 211.22712816 -17.17547561 211.22712816 -15 211 C-15.01047363 209.99364502 -15.02094727 208.98729004 -15.03173828 207.95043945 C-15.68553334 138.30910078 -10.41564653 68.83928311 0 0 Z " fill="#f7541e" transform="translate(255,8)"/>
</svg>
