<svg version="1.2" xmlns="http://www.w3.org/2000/svg" viewBox="0 0 1001 700" width="1001" height="700"><defs><linearGradient id="P" gradientUnits="userSpaceOnUse"/><linearGradient id="g1" x2="1" href="#P" gradientTransform="matrix(11.713,0,0,12.072,571.83,305.96)"><stop stop-color="#ffcaca"/><stop offset="1" stop-color="#f99b9b"/></linearGradient><linearGradient id="g2" x2="1" href="#P" gradientTransform="matrix(12.918,0,0,10.408,611.831,294.617)"><stop stop-color="#ffcaca"/><stop offset="1" stop-color="#f99b9b"/></linearGradient><linearGradient id="g3" x2="1" href="#P" gradientTransform="matrix(35.13,0,0,40.117,624.17,69.272)"><stop stop-color="#ffcaca"/><stop offset="1" stop-color="#f99b9b"/></linearGradient><linearGradient id="g4" x2="1" href="#P" gradientTransform="matrix(75.731,0,0,41.069,558.028,159.42)"><stop stop-color="#fff"/><stop offset="1" stop-color="#cecece"/></linearGradient><linearGradient id="g5" x2="1" href="#P" gradientTransform="matrix(23.239,0,0,13.268,632.474,183.817)"><stop stop-color="#ffcaca"/><stop offset="1" stop-color="#f99b9b"/></linearGradient><linearGradient id="g6" x2="1" href="#P" gradientTransform="matrix(19.734,76.215,-90.527,23.44,214.107,143.243)"><stop offset=".02" stop-color="#d9d2c7"/><stop offset="1" stop-color="#f3f3f6"/></linearGradient><linearGradient id="g7" x2="1" href="#P" gradientTransform="matrix(63.539,0,0,80.516,203.535,158.137)"><stop offset=".02" stop-color="#d9d2c7"/><stop offset="1" stop-color="#f3f3f6"/></linearGradient><linearGradient id="g8" x2="1" href="#P" gradientTransform="matrix(29.296,0,0,69.075,232.067,163.858)"><stop offset=".02" stop-color="#bdb0a6"/><stop offset="1" stop-color="#a09c9c"/></linearGradient><linearGradient id="g9" x2="1" href="#P" gradientTransform="matrix(-44.618,59.909,-55.921,-41.649,311.452,196.15)"><stop offset=".02" stop-color="#d9d2c7"/><stop offset="1" stop-color="#f3f3f6"/></linearGradient><linearGradient id="g10" x2="1" href="#P" gradientTransform="matrix(-72.686,.423,-0.037,-6.404,279.437,238.414)"><stop offset=".02" stop-color="#bdb0a6"/><stop offset="1" stop-color="#a09c9c"/></linearGradient><linearGradient id="g11" x2="1" href="#P" gradientTransform="matrix(0,-178.031,4.358,0,-4557.821,444.669)"><stop stop-color="#fff"/><stop offset="1" stop-color="#cecece"/></linearGradient><linearGradient id="g12" x2="1" href="#P" gradientTransform="matrix(-23.108,0,0,-6.702,219.614,246.549)"><stop stop-color="#fff"/><stop offset="1" stop-color="#cecece"/></linearGradient><linearGradient id="g13" x2="1" href="#P" gradientTransform="matrix(40.09,0,0,107.332,325.952,447.731)"><stop stop-color="#d9d3cc"/><stop offset="1" stop-color="#c8cbcc"/></linearGradient><linearGradient id="g14" x2="1" href="#P" gradientTransform="matrix(-40.09,0,0,-107.341,490.839,447.731)"><stop stop-color="#d9d3cc"/><stop offset="1" stop-color="#c8cbcc"/></linearGradient><linearGradient id="g15" x2="1" href="#P" gradientTransform="matrix(5.256,0,0,107.333,405.888,447.731)"><stop stop-color="#d9d3cc"/><stop offset="1" stop-color="#c8cbcc"/></linearGradient><linearGradient id="g16" x2="1" href="#P" gradientTransform="matrix(38.639,0,0,16.346,388.023,259.247)"><stop stop-color="#d9d3cc"/><stop offset="1" stop-color="#c8cbcc"/></linearGradient><linearGradient id="g17" x2="1" href="#P" gradientTransform="matrix(-49.85,0,0,-120.5,866.489,521.42)"><stop stop-color="#ffcaca"/><stop offset="1" stop-color="#f99b9b"/></linearGradient><linearGradient id="g18" x2="1" href="#P" gradientTransform="matrix(-31.977,.169,-0.229,-43.197,823.825,287.129)"><stop stop-color="#ffcaca"/><stop offset="1" stop-color="#f99b9b"/></linearGradient><linearGradient id="g19" x2="1" href="#P" gradientTransform="matrix(-18.407,3.485,-4.237,-22.377,725.319,324.272)"><stop stop-color="#ffcaca"/><stop offset="1" stop-color="#f99b9b"/></linearGradient><linearGradient id="g20" x2="1" href="#P" gradientTransform="matrix(-22.62,0,0,-14.015,803.918,383.67)"><stop stop-color="#ffcaca"/><stop offset="1" stop-color="#f99b9b"/></linearGradient><linearGradient id="g21" x2="1" href="#P" gradientTransform="matrix(-39.978,0,0,-122.539,824.941,521.497)"><stop stop-color="#ffcaca"/><stop offset="1" stop-color="#f99b9b"/></linearGradient><linearGradient id="g22" x2="1" href="#P" gradientTransform="matrix(14.415,0,0,15.305,595.139,600.811)"><stop stop-color="#ffcaca"/><stop offset="1" stop-color="#f99b9b"/></linearGradient><linearGradient id="g23" x2="1" href="#P" gradientTransform="matrix(16.196,0,0,17.192,546.255,621.779)"><stop stop-color="#ffcaca"/><stop offset="1" stop-color="#f99b9b"/></linearGradient><linearGradient id="g24" x2="1" href="#P" gradientTransform="matrix(211.002,0,0,7.583,444.055,476.768)"><stop stop-color="#d9d3cc"/><stop offset="1" stop-color="#c8cbcc"/></linearGradient><linearGradient id="g25" x2="1" href="#P" gradientTransform="matrix(53.209,0,0,113.245,417.581,484.35)"><stop stop-color="#d9d3cc"/><stop offset="1" stop-color="#c8cbcc"/></linearGradient><linearGradient id="g26" x2="1" href="#P" gradientTransform="matrix(38.967,0,0,39.23,633.225,355.58)"><stop stop-color="#ffcaca"/><stop offset="1" stop-color="#f99b9b"/></linearGradient><linearGradient id="g27" x2="1" href="#P" gradientTransform="matrix(15.956,-83.977,67.054,12.74,633.114,528.728)"><stop stop-color="#f0f0ed"/><stop offset="1" stop-color="#c8cbcc"/></linearGradient><linearGradient id="g28" x2="1" href="#P" gradientTransform="matrix(34.803,0,0,10.408,522.971,465.793)"><stop stop-color="#ffcaca"/><stop offset="1" stop-color="#f99b9b"/></linearGradient><linearGradient id="g29" x2="1" href="#P" gradientTransform="matrix(35.528,0,0,11.636,638.488,548.564)"><stop stop-color="#f0f0ed"/><stop offset="1" stop-color="#c8cbcc"/></linearGradient><linearGradient id="g30" x2="1" href="#P" gradientTransform="matrix(5.217,0,0,62.865,653.643,560.2)"><stop stop-color="#f0f0ed"/><stop offset="1" stop-color="#c8cbcc"/></linearGradient><linearGradient id="g31" x2="1" href="#P" gradientTransform="matrix(46.826,0,0,3.71,632.839,623.058)"><stop stop-color="#f0f0ed"/><stop offset="1" stop-color="#c8cbcc"/></linearGradient><linearGradient id="g32" x2="1" href="#P" gradientTransform="matrix(6.513,0,0,4.775,632.839,626.768)"><stop stop-color="#f0f0ed"/><stop offset="1" stop-color="#c8cbcc"/></linearGradient><linearGradient id="g33" x2="1" href="#P" gradientTransform="matrix(6.513,0,0,4.775,673.152,626.768)"><stop stop-color="#f0f0ed"/><stop offset="1" stop-color="#c8cbcc"/></linearGradient><linearGradient id="g34" x2="1" href="#P" gradientTransform="matrix(-22.127,0,0,-23.575,199.234,585.045)"><stop stop-color="#ffcaca"/><stop offset="1" stop-color="#f99b9b"/></linearGradient><linearGradient id="g35" x2="1" href="#P" gradientTransform="matrix(-22.127,0,0,-23.575,239.951,586.286)"><stop stop-color="#ffcaca"/><stop offset="1" stop-color="#f99b9b"/></linearGradient><linearGradient id="g36" x2="1" href="#P" gradientTransform="matrix(-31.248,0,0,-34.787,248.203,267.509)"><stop stop-color="#ffcaca"/><stop offset="1" stop-color="#f99b9b"/></linearGradient><linearGradient id="g37" x2="1" href="#P" gradientTransform="matrix(0,68.065,-104.543,0,289.35,349.733)"><stop offset=".02" stop-color="#d68d2d"/><stop offset="1" stop-color="#ffd773"/></linearGradient><linearGradient id="g38" x2="1" href="#P" gradientTransform="matrix(-112.182,0,0,-52.774,369.505,370.832)"><stop offset=".02" stop-color="#d68d2d"/><stop offset="1" stop-color="#ffd773"/></linearGradient><linearGradient id="g39" x2="1" href="#P" gradientTransform="matrix(-110.748,0,0,-46.219,369.189,348.527)"><stop offset=".02" stop-color="#d68d2d"/><stop offset="1" stop-color="#ffd773"/></linearGradient><linearGradient id="g40" x2="1" href="#P" gradientTransform="matrix(-27.305,0,0,-18.556,261.476,360.799)"><stop stop-color="#ffcaca"/><stop offset="1" stop-color="#f99b9b"/></linearGradient><linearGradient id="g41" x2="1" href="#P" gradientTransform="matrix(-2.747,34.139,-49.353,-3.971,399.366,154.515)"><stop offset=".02" stop-color="#d68d2d"/><stop offset="1" stop-color="#ffd773"/></linearGradient><linearGradient id="g42" x2="1" href="#P" gradientTransform="matrix(-5.28,87.322,-172.863,-10.452,386.481,153.19)"><stop offset=".02" stop-color="#d68d2d"/><stop offset="1" stop-color="#ffd773"/></linearGradient><linearGradient id="g43" x2="1" href="#P" gradientTransform="matrix(-2.058,-36.222,81.414,-4.626,359.866,189.549)"><stop offset=".02" stop-color="#d68d2d"/><stop offset="1" stop-color="#ffd773"/></linearGradient></defs><style>.a{fill:#f3f3f6}.b{fill:#1e1e1e}.c{fill:#1f366a}.d{fill:#f7541e}.e{fill:#413f56}.f{fill:#fff}.g{fill:#dbdbde}.h{fill:#dfe6f5}.i{fill:#83c0aa}.j{fill:#f8eadf}.k{fill:#303b37}.l{fill:#f7541e}.m{fill:#f0f3f7}.n{fill:none;stroke:#65c8d0;stroke-miterlimit:10;stroke-width:.4}.o{fill:url(#g1)}.p{fill:url(#g2)}.q{fill:url(#g3)}.r{fill:#ff9b96}.s{fill:url(#g4)}.t{opacity:.17;fill:#222b28}.u{fill:url(#g5)}.v{fill:url(#g6)}.w{fill:url(#g7)}.x{fill:url(#g8)}.y{fill:url(#g9)}.z{fill:url(#g10)}.A{fill:url(#g11)}.B{fill:url(#g12)}.C{fill:url(#g13)}.D{fill:url(#g14)}.E{fill:url(#g15)}.F{fill:url(#g16)}.G{fill:none;stroke:#a09e9d;stroke-miterlimit:10;stroke-width:1}.H{fill:#1e3569}.I{fill:url(#g17)}.J{fill:url(#g18)}.K{fill:url(#g19)}.L{opacity:.3;fill:#222b28}.M{fill:url(#g20)}.N{fill:url(#g21)}.O{fill:url(#g22)}.P{fill:url(#g23)}.Q{fill:url(#g24)}.R{fill:url(#g25)}.S{fill:url(#g26)}.T{fill:url(#g27)}.U{fill:url(#g28)}.V{fill:url(#g29)}.W{fill:url(#g30)}.X{fill:url(#g31)}.Y{fill:url(#g32)}.Z{fill:url(#g33)}.a0{fill:none;stroke:#9b9595;stroke-miterlimit:10;stroke-width:1.6}.a1{fill:none;stroke:#9b9595;stroke-miterlimit:10;stroke-width:1.6;stroke-dasharray:1.5686466666666663,1.5686466666666663}.a2{fill:#f4f2f2}.a3{fill:#d8cece}.a4{fill:#9e9797}.a5{fill:url(#g34)}.a6{fill:url(#g35)}.a7{fill:url(#g36)}.a8{opacity:.09;fill:#222b28}.a9{fill:url(#g37)}.aa{fill:url(#g38)}.ab{fill:url(#g39)}.ac{fill:url(#g40)}.ad{fill:url(#g41)}.ae{fill:url(#g42)}.af{fill:url(#g43)}.ag{fill:none;stroke:#9b9595;stroke-miterlimit:10;stroke-width:.4;stroke-dasharray:1.57301}</style><path class="a" d="m762.3 235.8v237.1c0 4.3-3.6 7.8-7.9 7.8h-371.6c-4.3 0-7.8-3.5-7.8-7.8v-237.1c0-4.4 3.5-7.9 7.8-7.9h371.6c4.3 0 7.9 3.5 7.9 7.9z"/><path class="b" d="m762.3 235.8v12h-387.3v-12c0-4.4 3.5-7.9 7.8-7.9h371.6c4.3 0 7.9 3.5 7.9 7.9z"/><path class="c" d="m762.3 265h-387.3v-17.2h387.3z"/><path class="d" d="m741 244.3h-39c-0.5 0-0.9-0.4-0.9-0.9v-10.6c0-0.5 0.4-0.8 0.9-0.8h39c0.4 0 0.8 0.3 0.8 0.8v10.6c0 0.5-0.4 0.9-0.8 0.9z"/><path class="d" d="m389.9 237.3c0 1.3-1.1 2.4-2.5 2.4-1.4 0-2.5-1.1-2.5-2.4 0-1.4 1.1-2.5 2.5-2.5 1.4 0 2.5 1.1 2.5 2.5z"/><path class="e" d="m398.6 237.3c0 1.3-1.1 2.4-2.5 2.4-1.3 0-2.4-1.1-2.4-2.4 0-1.4 1.1-2.5 2.4-2.5 1.4 0 2.5 1.1 2.5 2.5z"/><path class="a" d="m407.3 237.3c0 1.3-1.1 2.4-2.4 2.4-1.4 0-2.5-1.1-2.5-2.4 0-1.4 1.1-2.5 2.5-2.5 1.3 0 2.4 1.1 2.4 2.5z"/><path class="f" d="m405.9 474.4h-25.6c-0.8 0-1.4-0.7-1.4-1.5v-203.1c0-0.8 0.6-1.5 1.4-1.5h25.6c0.8 0 1.4 0.7 1.4 1.5v203.1c0 0.8-0.6 1.5-1.4 1.5z"/><path class="f" d="m512.4 474.4h-99.7c-0.8 0-1.4-0.7-1.4-1.5v-203.1c0-0.8 0.6-1.5 1.4-1.5h99.7c0.8 0 1.4 0.7 1.4 1.5v203.1c0 0.8-0.6 1.5-1.4 1.5z"/><path class="f" d="m754.8 474.4h-71.3c-0.8 0-1.5-0.7-1.5-1.5v-203.1c0-0.8 0.7-1.5 1.5-1.5h71.3c0.7 0 1.4 0.7 1.4 1.5v203.1c0 0.8-0.7 1.5-1.4 1.5z"/><path class="f" d="m675.8 474.4h-157c-0.8 0-1.4-0.7-1.4-1.5v-203.1c0-0.8 0.6-1.5 1.4-1.5h157c0.8 0 1.5 0.7 1.5 1.5v203.1c0 0.8-0.7 1.5-1.5 1.5z"/><path class="g" d="m402.1 294.6h-18c-0.3 0-0.6-0.3-0.6-0.6v-16.2c0-0.3 0.3-0.6 0.6-0.6h18c0.3 0 0.6 0.3 0.6 0.6v16.2c0 0.3-0.3 0.6-0.6 0.6z"/><path class="h" d="m402.1 321.1h-18c-0.3 0-0.6-0.3-0.6-0.6v-16.2c0-0.3 0.3-0.6 0.6-0.6h18c0.3 0 0.6 0.3 0.6 0.6v16.2c0 0.3-0.3 0.6-0.6 0.6z"/><path class="i" d="m402.1 347.5h-18c-0.3 0-0.6-0.2-0.6-0.5v-16.2c0-0.4 0.3-0.6 0.6-0.6h18c0.3 0 0.6 0.2 0.6 0.6v16.2c0 0.3-0.3 0.5-0.6 0.5z"/><path class="j" d="m402.1 374h-18c-0.3 0-0.6-0.2-0.6-0.5v-16.3c0-0.3 0.3-0.5 0.6-0.5h18c0.3 0 0.6 0.2 0.6 0.5v16.3c0 0.3-0.3 0.5-0.6 0.5z"/><g style="opacity:.23"><path class="k" d="m457.8 280.7h-39.4c-0.3 0-0.6-0.3-0.6-0.7v-4c0-0.4 0.3-0.7 0.6-0.7h39.4c0.4 0 0.7 0.3 0.7 0.7v4c0 0.4-0.3 0.7-0.7 0.7z"/></g><path class="h" d="m467.9 290.8h-49.5c-0.4 0-0.6-0.3-0.6-0.6v-3.7c0-0.3 0.2-0.6 0.6-0.6h49.5c0.4 0 0.7 0.3 0.7 0.6v3.7c0 0.3-0.3 0.6-0.7 0.6z"/><path class="h" d="m498.8 290.8h-26.6c-0.3 0-0.6-0.3-0.6-0.6v-3.7c0-0.3 0.3-0.6 0.6-0.6h26.6c0.4 0 0.6 0.3 0.6 0.6v3.7c0 0.3-0.2 0.6-0.6 0.6z"/><path class="h" d="m454.3 300.5h-35.9c-0.4 0-0.6-0.3-0.6-0.7v-3.6c0-0.4 0.2-0.6 0.6-0.6h35.9c0.3 0 0.6 0.2 0.6 0.6v3.6c0 0.4-0.3 0.7-0.6 0.7z"/><path class="h" d="m495.1 300.5h-35.9c-0.3 0-0.6-0.3-0.6-0.7v-3.6c0-0.4 0.3-0.6 0.6-0.6h35.9c0.3 0 0.6 0.2 0.6 0.6v3.6c0 0.4-0.3 0.7-0.6 0.7z"/><path class="h" d="m474.1 310.1h-55.7c-0.4 0-0.6-0.3-0.6-0.6v-3.7c0-0.3 0.2-0.6 0.6-0.6h55.7c0.4 0 0.6 0.3 0.6 0.6v3.7c0 0.3-0.2 0.6-0.6 0.6z"/><path class="l" d="m565.8 282.6h-39.3c-0.4 0-0.7-0.3-0.7-0.7v-4c0-0.4 0.3-0.7 0.7-0.7h39.3c0.4 0 0.7 0.3 0.7 0.7v4c0 0.4-0.3 0.7-0.7 0.7z"/><path class="h" d="m576 292.7h-49.6c-0.3 0-0.6-0.3-0.6-0.6v-3.7c0-0.4 0.3-0.6 0.6-0.6h49.6c0.3 0 0.6 0.2 0.6 0.6v3.7c0 0.3-0.3 0.6-0.6 0.6z"/><path class="h" d="m606.8 292.7h-26.6c-0.3 0-0.6-0.3-0.6-0.6v-3.7c0-0.4 0.3-0.6 0.6-0.6h26.6c0.4 0 0.7 0.2 0.7 0.6v3.7c0 0.3-0.3 0.6-0.7 0.6z"/><path class="h" d="m562.3 302.3h-35.9c-0.3 0-0.6-0.3-0.6-0.6v-3.7c0-0.3 0.3-0.6 0.6-0.6h35.9c0.3 0 0.6 0.3 0.6 0.6v3.7c0 0.3-0.3 0.6-0.6 0.6z"/><path class="h" d="m603.1 302.3h-35.9c-0.3 0-0.6-0.3-0.6-0.6v-3.7c0-0.3 0.3-0.6 0.6-0.6h35.9c0.3 0 0.6 0.3 0.6 0.6v3.7c0 0.3-0.3 0.6-0.6 0.6z"/><path class="h" d="m674.8 302.3h-35.9c-0.3 0-0.6-0.3-0.6-0.6v-3.7c0-0.3 0.3-0.6 0.6-0.6h35.9c0.3 0 0.6 0.3 0.6 0.6v3.7c0 0.3-0.3 0.6-0.6 0.6z"/><path class="l" d="m722.7 307h-28.6c-0.3 0-0.5-0.2-0.5-0.5v-2.9c0-0.3 0.2-0.5 0.5-0.5h28.6c0.2 0 0.5 0.2 0.5 0.5v2.9c0 0.3-0.3 0.5-0.5 0.5z"/><path class="h" d="m689.5 307h-4.9c-0.2 0-0.4-0.2-0.4-0.5v-2.9c0-0.3 0.2-0.5 0.4-0.5h4.9c0.2 0 0.5 0.2 0.5 0.5v2.9c0 0.3-0.3 0.5-0.5 0.5z"/><path class="h" d="m689.5 314.5h-4.9c-0.2 0-0.4-0.2-0.4-0.5v-2.9c0-0.3 0.2-0.5 0.4-0.5h4.9c0.2 0 0.5 0.2 0.5 0.5v2.9c0 0.3-0.3 0.5-0.5 0.5z"/><path class="h" d="m689.5 322h-4.9c-0.2 0-0.4-0.2-0.4-0.5v-2.9c0-0.3 0.2-0.5 0.4-0.5h4.9c0.2 0 0.5 0.2 0.5 0.5v2.9c0 0.3-0.3 0.5-0.5 0.5z"/><path class="h" d="m730 314.3h-35.9c-0.3 0-0.5-0.2-0.5-0.4v-2.7c0-0.2 0.2-0.4 0.5-0.4h35.9c0.3 0 0.5 0.2 0.5 0.4v2.7c0 0.2-0.2 0.4-0.5 0.4z"/><path class="h" d="m752.4 314.3h-19.3c-0.2 0-0.4-0.2-0.4-0.4v-2.7c0-0.2 0.2-0.4 0.4-0.4h19.3c0.3 0 0.5 0.2 0.5 0.4v2.7c0 0.2-0.2 0.4-0.5 0.4z"/><path class="h" d="m720.1 321.3h-26c-0.3 0-0.5-0.2-0.5-0.4v-2.7c0-0.2 0.2-0.4 0.5-0.4h26c0.2 0 0.5 0.2 0.5 0.4v2.7c0 0.2-0.3 0.4-0.5 0.4z"/><path class="h" d="m749.7 321.3h-26c-0.3 0-0.5-0.2-0.5-0.4v-2.7c0-0.2 0.2-0.4 0.5-0.4h26c0.3 0 0.5 0.2 0.5 0.4v2.7c0 0.2-0.2 0.4-0.5 0.4z"/><path class="l" d="m722.7 338.1h-28.6c-0.3 0-0.5-0.2-0.5-0.5v-2.9c0-0.3 0.2-0.5 0.5-0.5h28.6c0.2 0 0.5 0.2 0.5 0.5v2.9c0 0.3-0.3 0.5-0.5 0.5z"/><path class="h" d="m689.5 338.1h-4.9c-0.2 0-0.4-0.2-0.4-0.5v-2.9c0-0.3 0.2-0.5 0.4-0.5h4.9c0.2 0 0.5 0.2 0.5 0.5v2.9c0 0.3-0.3 0.5-0.5 0.5z"/><path class="h" d="m689.5 345.6h-4.9c-0.2 0-0.4-0.2-0.4-0.5v-2.9c0-0.3 0.2-0.5 0.4-0.5h4.9c0.2 0 0.5 0.2 0.5 0.5v2.9c0 0.3-0.3 0.5-0.5 0.5z"/><path class="h" d="m689.5 353.1h-4.9c-0.2 0-0.4-0.2-0.4-0.5v-2.9c0-0.3 0.2-0.5 0.4-0.5h4.9c0.2 0 0.5 0.2 0.5 0.5v2.9c0 0.3-0.3 0.5-0.5 0.5z"/><path class="h" d="m730 345.4h-35.9c-0.3 0-0.5-0.2-0.5-0.4v-2.7c0-0.2 0.2-0.4 0.5-0.4h35.9c0.3 0 0.5 0.2 0.5 0.4v2.7c0 0.2-0.2 0.4-0.5 0.4z"/><path class="h" d="m752.4 345.4h-19.3c-0.2 0-0.4-0.2-0.4-0.4v-2.7c0-0.2 0.2-0.4 0.4-0.4h19.3c0.3 0 0.5 0.2 0.5 0.4v2.7c0 0.2-0.2 0.4-0.5 0.4z"/><path class="h" d="m720.1 352.4h-26c-0.3 0-0.5-0.2-0.5-0.4v-2.7c0-0.2 0.2-0.4 0.5-0.4h26c0.2 0 0.5 0.2 0.5 0.4v2.7c0 0.2-0.3 0.4-0.5 0.4z"/><path class="h" d="m749.7 352.4h-26c-0.3 0-0.5-0.2-0.5-0.4v-2.7c0-0.2 0.2-0.4 0.5-0.4h26c0.3 0 0.5 0.2 0.5 0.4v2.7c0 0.2-0.2 0.4-0.5 0.4z"/><path class="i" d="m722.7 369.2h-28.6c-0.3 0-0.5-0.2-0.5-0.5v-2.9c0-0.3 0.2-0.5 0.5-0.5h28.6c0.2 0 0.5 0.2 0.5 0.5v2.9c0 0.3-0.3 0.5-0.5 0.5z"/><path class="h" d="m689.5 369.2h-4.9c-0.2 0-0.4-0.2-0.4-0.5v-2.9c0-0.3 0.2-0.5 0.4-0.5h4.9c0.2 0 0.5 0.2 0.5 0.5v2.9c0 0.3-0.3 0.5-0.5 0.5z"/><path class="h" d="m689.5 376.7h-4.9c-0.2 0-0.4-0.2-0.4-0.5v-2.9c0-0.3 0.2-0.5 0.4-0.5h4.9c0.2 0 0.5 0.2 0.5 0.5v2.9c0 0.3-0.3 0.5-0.5 0.5z"/><path class="h" d="m689.5 384.2h-4.9c-0.2 0-0.4-0.2-0.4-0.5v-2.9c0-0.3 0.2-0.5 0.4-0.5h4.9c0.2 0 0.5 0.2 0.5 0.5v2.9c0 0.3-0.3 0.5-0.5 0.5z"/><path class="h" d="m730 376.5h-35.9c-0.3 0-0.5-0.2-0.5-0.4v-2.7c0-0.2 0.2-0.4 0.5-0.4h35.9c0.3 0 0.5 0.2 0.5 0.4v2.7c0 0.2-0.2 0.4-0.5 0.4z"/><path class="h" d="m752.4 376.5h-19.3c-0.2 0-0.4-0.2-0.4-0.4v-2.7c0-0.2 0.2-0.4 0.4-0.4h19.3c0.3 0 0.5 0.2 0.5 0.4v2.7c0 0.2-0.2 0.4-0.5 0.4z"/><path class="h" d="m720.1 383.5h-26c-0.3 0-0.5-0.2-0.5-0.4v-2.7c0-0.2 0.2-0.4 0.5-0.4h26c0.2 0 0.5 0.2 0.5 0.4v2.7c0 0.2-0.3 0.4-0.5 0.4z"/><path class="h" d="m749.7 383.5h-26c-0.3 0-0.5-0.2-0.5-0.4v-2.7c0-0.2 0.2-0.4 0.5-0.4h26c0.3 0 0.5 0.2 0.5 0.4v2.7c0 0.2-0.2 0.4-0.5 0.4z"/><path class="i" d="m722.7 400.3h-28.6c-0.3 0-0.5-0.2-0.5-0.5v-2.9c0-0.3 0.2-0.5 0.5-0.5h28.6c0.2 0 0.5 0.2 0.5 0.5v2.9c0 0.3-0.3 0.5-0.5 0.5z"/><path class="h" d="m689.5 400.3h-4.9c-0.2 0-0.4-0.2-0.4-0.5v-2.9c0-0.3 0.2-0.5 0.4-0.5h4.9c0.2 0 0.5 0.2 0.5 0.5v2.9c0 0.3-0.3 0.5-0.5 0.5z"/><path class="h" d="m689.5 407.8h-4.9c-0.2 0-0.4-0.2-0.4-0.5v-2.9c0-0.3 0.2-0.5 0.4-0.5h4.9c0.2 0 0.5 0.2 0.5 0.5v2.9c0 0.3-0.3 0.5-0.5 0.5z"/><path class="h" d="m689.5 415.3h-4.9c-0.2 0-0.4-0.2-0.4-0.5v-2.9c0-0.3 0.2-0.5 0.4-0.5h4.9c0.2 0 0.5 0.2 0.5 0.5v2.9c0 0.3-0.3 0.5-0.5 0.5z"/><path class="h" d="m730 407.6h-35.9c-0.3 0-0.5-0.2-0.5-0.4v-2.7c0-0.2 0.2-0.4 0.5-0.4h35.9c0.3 0 0.5 0.2 0.5 0.4v2.7c0 0.2-0.2 0.4-0.5 0.4z"/><path class="h" d="m752.4 407.6h-19.3c-0.2 0-0.4-0.2-0.4-0.4v-2.7c0-0.2 0.2-0.4 0.4-0.4h19.3c0.3 0 0.5 0.2 0.5 0.4v2.7c0 0.2-0.2 0.4-0.5 0.4z"/><path class="h" d="m720.1 414.6h-26c-0.3 0-0.5-0.2-0.5-0.4v-2.7c0-0.2 0.2-0.4 0.5-0.4h26c0.2 0 0.5 0.2 0.5 0.4v2.7c0 0.2-0.3 0.4-0.5 0.4z"/><path class="h" d="m749.7 414.6h-26c-0.3 0-0.5-0.2-0.5-0.4v-2.7c0-0.2 0.2-0.4 0.5-0.4h26c0.3 0 0.5 0.2 0.5 0.4v2.7c0 0.2-0.2 0.4-0.5 0.4z"/><path class="l" d="m727.8 280.6h-39.3c-0.4 0-0.7-0.3-0.7-0.7v-4c0-0.4 0.3-0.7 0.7-0.7h39.3c0.4 0 0.7 0.3 0.7 0.7v4c0 0.4-0.3 0.7-0.7 0.7z"/><g style="opacity:.23"><path class="k" d="m457.8 326.9h-39.4c-0.3 0-0.6-0.3-0.6-0.7v-4c0-0.4 0.3-0.7 0.6-0.7h39.4c0.4 0 0.7 0.3 0.7 0.6v4.1c0 0.4-0.3 0.7-0.7 0.7z"/></g><path class="h" d="m467.9 337h-49.5c-0.4 0-0.6-0.3-0.6-0.7v-3.6c0-0.4 0.2-0.6 0.6-0.6h49.5c0.4 0 0.7 0.2 0.7 0.6v3.6c0 0.4-0.3 0.7-0.7 0.7z"/><path class="h" d="m498.8 337h-26.6c-0.3 0-0.6-0.3-0.6-0.7v-3.6c0-0.4 0.3-0.6 0.6-0.6h26.6c0.4 0 0.6 0.2 0.6 0.6v3.6c0 0.4-0.2 0.7-0.6 0.7z"/><path class="h" d="m454.3 346.6h-35.9c-0.4 0-0.6-0.3-0.6-0.6v-3.7c0-0.3 0.2-0.6 0.6-0.6h35.9c0.3 0 0.6 0.3 0.6 0.6v3.7c0 0.3-0.3 0.6-0.6 0.6z"/><path class="h" d="m495.1 346.6h-35.9c-0.3 0-0.6-0.3-0.6-0.6v-3.7c0-0.3 0.3-0.6 0.6-0.6h35.9c0.3 0 0.6 0.3 0.6 0.6v3.7c0 0.3-0.3 0.6-0.6 0.6z"/><path class="h" d="m474.1 356.3h-55.7c-0.4 0-0.6-0.3-0.6-0.7v-3.6c0-0.4 0.2-0.6 0.6-0.6h55.7c0.4 0 0.6 0.2 0.6 0.6v3.6c0 0.4-0.2 0.7-0.6 0.7z"/><g style="opacity:.23"><path class="k" d="m457.8 373h-39.4c-0.3 0-0.6-0.3-0.6-0.7v-4c0-0.4 0.3-0.7 0.6-0.7h39.4c0.4 0 0.7 0.3 0.7 0.7v4c0 0.4-0.3 0.7-0.7 0.7z"/></g><path class="h" d="m467.9 383.1h-49.5c-0.4 0-0.6-0.3-0.6-0.6v-3.7c0-0.3 0.2-0.6 0.6-0.6h49.5c0.4 0 0.7 0.3 0.7 0.6v3.7c0 0.3-0.3 0.6-0.7 0.6z"/><path class="h" d="m498.8 383.1h-26.6c-0.3 0-0.6-0.3-0.6-0.6v-3.7c0-0.3 0.3-0.6 0.6-0.6h26.6c0.4 0 0.6 0.3 0.6 0.6v3.7c0 0.3-0.2 0.6-0.6 0.6z"/><path class="h" d="m454.3 392.8h-35.9c-0.4 0-0.6-0.3-0.6-0.7v-3.6c0-0.4 0.2-0.6 0.6-0.6h35.9c0.3 0 0.6 0.2 0.6 0.6v3.6c0 0.4-0.3 0.7-0.6 0.7z"/><path class="h" d="m495.1 392.8h-35.9c-0.3 0-0.6-0.3-0.6-0.7v-3.6c0-0.4 0.3-0.6 0.6-0.6h35.9c0.3 0 0.6 0.2 0.6 0.6v3.6c0 0.4-0.3 0.7-0.6 0.7z"/><path class="h" d="m474.1 402.4h-55.7c-0.4 0-0.6-0.3-0.6-0.6v-3.7c0-0.3 0.2-0.6 0.6-0.6h55.7c0.4 0 0.6 0.3 0.6 0.6v3.7c0 0.3-0.2 0.6-0.6 0.6z"/><g style="opacity:.23"><path class="k" d="m457.8 419.2h-39.4c-0.3 0-0.6-0.3-0.6-0.7v-4c0-0.4 0.3-0.7 0.6-0.7h39.4c0.4 0 0.7 0.3 0.7 0.7v4c0 0.4-0.3 0.7-0.7 0.7z"/></g><path class="h" d="m467.9 429.3h-49.5c-0.4 0-0.6-0.3-0.6-0.7v-3.6c0-0.4 0.2-0.6 0.6-0.6h49.5c0.4 0 0.7 0.2 0.7 0.6v3.6c0 0.4-0.3 0.7-0.7 0.7z"/><path class="h" d="m498.8 429.3h-26.6c-0.3 0-0.6-0.3-0.6-0.7v-3.6c0-0.4 0.3-0.6 0.6-0.6h26.6c0.4 0 0.6 0.2 0.6 0.6v3.6c0 0.4-0.2 0.7-0.6 0.7z"/><path class="h" d="m454.3 438.9h-35.9c-0.4 0-0.6-0.3-0.6-0.6v-3.7c0-0.3 0.2-0.6 0.6-0.6h35.9c0.3 0 0.6 0.3 0.6 0.6v3.7c0 0.3-0.3 0.6-0.6 0.6z"/><path class="h" d="m495.1 438.9h-35.9c-0.3 0-0.6-0.3-0.6-0.6v-3.7c0-0.3 0.3-0.6 0.6-0.6h35.9c0.3 0 0.6 0.3 0.6 0.6v3.7c0 0.3-0.3 0.6-0.6 0.6z"/><path class="h" d="m474.1 448.6h-55.7c-0.4 0-0.6-0.3-0.6-0.6v-3.7c0-0.4 0.2-0.6 0.6-0.6h55.7c0.4 0 0.6 0.2 0.6 0.6v3.7c0 0.3-0.2 0.6-0.6 0.6z"/><path class="h" d="m677.3 322.5h-159.9v-14.8h159.9z"/><path class="m" d="m673.4 341.7h-142.5v-12h142.5z"/><path class="m" d="m673.4 357.4h-142.5v-12.1h142.5z"/><path class="n" d="m677.3 360.2h-149.4v-33.1h149.4z"/><path class="h" d="m576 376.5h-49.6c-0.3 0-0.6-0.3-0.6-0.6v-3.7c0-0.4 0.3-0.6 0.6-0.6h49.6c0.3 0 0.6 0.2 0.6 0.6v3.7c0 0.3-0.3 0.6-0.6 0.6z"/><path class="h" d="m629.6 372.5c0 2.5-2 4.6-4.5 4.6-2.5 0-4.5-2.1-4.5-4.6 0-2.5 2-4.5 4.5-4.5 2.5 0 4.5 2 4.5 4.5z"/><path class="h" d="m643.2 372.5c0 2.5-2 4.6-4.5 4.6-2.5 0-4.5-2.1-4.5-4.6 0-2.5 2-4.5 4.5-4.5 2.5 0 4.5 2 4.5 4.5z"/><path class="h" d="m656.8 372.5c0 2.5-2 4.6-4.5 4.6-2.5 0-4.5-2.1-4.5-4.6 0-2.5 2-4.5 4.5-4.5 2.5 0 4.5 2 4.5 4.5z"/><path class="h" d="m670.4 372.5c0 2.5-2 4.6-4.5 4.6-2.5 0-4.5-2.1-4.5-4.6 0-2.5 2-4.5 4.5-4.5 2.5 0 4.5 2 4.5 4.5z"/><path class="h" d="m677.3 399.3h-159.9v-14.8h159.9z"/><path class="m" d="m673.4 418.5h-142.5v-12h142.5z"/><path class="m" d="m673.4 434.2h-142.5v-12h142.5z"/><path class="n" d="m677.3 437h-149.4v-33.1h149.4z"/><path class="h" d="m576 453.3h-49.6c-0.3 0-0.6-0.3-0.6-0.6v-3.7c0-0.3 0.3-0.6 0.6-0.6h49.6c0.3 0 0.6 0.3 0.6 0.6v3.7c0 0.3-0.3 0.6-0.6 0.6z"/><path class="h" d="m629.6 449.3c0 2.5-2 4.6-4.5 4.6-2.5 0-4.5-2.1-4.5-4.6 0-2.5 2-4.5 4.5-4.5 2.5 0 4.5 2 4.5 4.5z"/><path class="h" d="m643.2 449.3c0 2.5-2 4.6-4.5 4.6-2.5 0-4.5-2.1-4.5-4.6 0-2.5 2-4.5 4.5-4.5 2.5 0 4.5 2 4.5 4.5z"/><path class="h" d="m656.8 449.3c0 2.5-2 4.6-4.5 4.6-2.5 0-4.5-2.1-4.5-4.6 0-2.5 2-4.5 4.5-4.5 2.5 0 4.5 2 4.5 4.5z"/><path class="h" d="m670.4 449.3c0 2.5-2 4.6-4.5 4.6-2.5 0-4.5-2.1-4.5-4.6 0-2.5 2-4.5 4.5-4.5 2.5 0 4.5 2 4.5 4.5z"/><path class="n" d="m751.9 297.2h-64.1v-10.8h64.1z"/><path class="h" d="m756.2 437.8h-74.2v-12.6h74.2z"/><path class="m" d="m756.2 451.7h-74.2v-9.4h74.2z"/><path class="m" d="m756.2 462.4h-74.2v-9.3h74.2z"/><path class="o" d="m582 308.2l1.5 6.5c0 0-0.8 3.1-5.3 3.3-4.5 0.2-6.4-2.7-6.4-2.7l0.6-9.3z"/><path class="p" d="m611.8 297.9v5.6c0 0 3.5 1.7 7.4 1.5 4-0.2 5.6-3.5 5.6-3.5l-4.7-6.9z"/><path fill-rule="evenodd" class="m" d="m709.3 178.3c-5.6 5-33.2 8.6-33.2 8.6v10.7c0 0-13.7 5.7-39.7 4-25.9-1.8-23.2-7.9-23.2-7.9l1.5-36.1-8 13.6-9.8-1.9c0 0 15.2-54.7 17.1-56.2 7-5.3 21.2-9.1 21.2-9.1 0 0 1.1 7.3 10.3 5.9 9.2-1.3 8.1-7.1 8.1-7.1 0 0 22.2 4 25.9 4.8 3.6 0.8 16.1 30 22.3 41.3 6.1 11.4 13 24.4 7.5 29.4zm-22-12.3l-9.3-24.7-1.6 28.9z"/><path class="q" d="m624.2 73c0 0-0.3 9.3 0.9 11.2 1.3 1.9 2 2 1.3 3.4-0.7 1.5-0.8 3.5 1.3 8.2 2.2 4.6 3.5 6.2 5.5 6.5 2.1 0.3 3.3-0.6 3.3-0.6l-1.2 3.5c0 0 0.7 4.3 9.1 4.2 8.4-0.1 11-5.9 11-5.9l-1-10.1c0 0 6.9-11.8 4.3-17-2.6-5.2-15.2-7.1-15.2-7.1z"/><path class="r" d="m636.5 101.7c0 0 2.8 0.2 7-2 4.2-2.2 7.4-4.8 7.4-4.8 0 0-3.3 3.2-5.3 5.6-2 2.4-3.7 8.8-3.7 8.8 0 0-2.4-0.4-4.1-1-1.7-0.5-2.4-2.6-2.4-2.6z"/><path class="c" d="m621.4 75.3c0 0 4.3 4.8 12.7 4 8.4-0.9 10.8-2.4 11.4-2.5 0.7-0.1-0.3 4.6 1.6 5.3 1.8 0.7 2.1 0.7 2.4 2.2 0.3 1.4 1.1 4.2 1.1 4.2l1.7-0.9c0 0 0.1-6.1 2.5-5.7 2.3 0.4-0.9 7.4-0.3 7.9 0.7 0.5 5.6-5.8 6.3-9.1 0.6-3.3 1.4-7.1-1-10.8-2.4-3.6-4.8-3.7-4.8-3.7 0 0-2.2-7.2-15.4-6.3-13.3 1-17.9 10.1-18.2 15.4z"/><path class="c" d="m672.1 198.8v15.2c0 6.6-5.1 12-11.7 12.4l-70.8 3.8 31.5 64.4c0 0 3.2 1.1-3.4 4-6.7 3-6.8 0.6-6.8 0.6l-21.3-29.8-6.2 38.8c0 0-1.4 3-6.5 3-3.7 0-5.5-2.4-5.5-2.4l-10.3-75.1c0 0-15-19.1-12.9-28.8 2-9.6 8.9-12.4 21.8-11.7 12.9 0.7 43.3 1.9 43.3 1.9 0 0 14.5 6.1 58.8 3.7z"/><path class="s" d="m633.8 200.5l-17.2-41.1h-58.6l17.1 41.1z"/><path class="f" d="m616.6 159.4l1.7-0.8 16.6 40-1.1 1.9z"/><path class="f" d="m558 159.4l1.8-0.8h58.5l-1.7 0.8z"/><g style="opacity:.25"><path class="b" d="m589.6 230.2c0 0 1.8 8.7 2 17.5 0.1 8.7-3.5 21.7-2 21.7 1.5 0 22.2 30.6 22.2 30.6 0 0-18.9-31.1-18.6-33.8 0.3-2.7 1.2-10.7 1.8-17.8 0.5-7.2-0.9-9.8-0.9-9.8z"/></g><g style="opacity:.25"><path class="b" d="m574.3 198.4c0 0-8.4 2-10.8 12.5-2.3 10.5-2.4 22.8-2.4 22.8l-3.1-4.4c0 0-1.1-14.9 4.1-23.4 5.1-8.4 11.4-9.3 11.4-9.3z"/></g><path class="t" d="m614.1 158.6c0 0 3.4-23.5 4.2-26.8 0.8-3.2 2.2-5 2.2-5l-2.2 31.8z"/><path class="t" d="m678 141.3c0 0-3.2-7.3-3.8-10.3-0.7-3-0.7-3-0.7-3 0 0-1.6 41.8-1.4 42.9 0.2 1.2-23.9 11.8-23.9 11.8l28.2-12.5z"/><path class="t" d="m676.1 186.9l-19.7 5.3c0 0 16.5-2.7 17.6-1.3 1.1 1.5 0 7.5 0 7.5l2.1-0.8z"/><path class="f" d="m634.5 103.6l9.5 6-6.7 4.7-5.8-9.8z"/><path class="f" d="m655.6 102.8l-11.6 7.1 4.9 4.9 9.8-10.8z"/><path class="d" d="m644.2 109.4l-4.1 4.2h1.4l-8.3 71.3 3.8 5.7 7.9-4.3 1.8-72.1 1.5-0.1z"/><path class="f" d="m633.8 200.5h38.3z"/><path class="f" d="m634.9 198.6h37.2v1.9h-38.3z"/><path class="u" d="m650.2 183.9c0 0 1.9 0 3.9 2.5 2 2.5 1.6 5.8 1.6 5.8 0 0-4.9 3.3-9.5 2.2-4.7-1-11.9 2.7-11.9 2.7l-1.8-4.4c0 0 6.9-5.1 11.6-7.3 4.7-2.1 6.1-1.5 6.1-1.5z"/><path class="c" d="m583.8 312.1c0 0-2.1 3.2-6.7 3.1-4.6-0.2-6.1-2.6-6.6-1.1-0.5 1.6-0.5 10.2-6.6 14-6.1 3.8-1 7.8-1 7.8 0 0 24.4-16.8 24.2-18.7-0.2-1.9-3.3-5.1-3.3-5.1z"/><path class="c" d="m624.5 300.2c0 0-2.1 3.2-6.7 3.1-4.6-0.2-6.1-2.6-6.7-1.1-0.5 1.6-0.5 10.2-6.6 14-6 3.8-1 7.8-1 7.8 0 0 24.5-16.8 24.3-18.7-0.2-1.9-3.3-5.1-3.3-5.1z"/><g style="opacity:.25"><path class="b" d="m575.1 200.5h97v10.4c0 0-2.6-7.1-4.3-7.2-1.7-0.2-91.5-0.4-92.7-3.2z"/></g><path class="v" d="m235.3 158.1h-69.3c-17.5 0-31.7 14.3-31.7 31.8v39.9c0 4.9 4 8.8 8.9 8.8h22.8 31.8 43z"/><path class="w" d="m235.3 158.1c-17.5 0-31.8 14.3-31.8 31.8v48.7h63.6v-48.7c0-17.5-14.2-31.8-31.8-31.8z"/><path class="x" d="m261.4 189.9v43h-6.6v-43c0-13.3-9.9-24.2-22.7-25.8q1.6-0.2 3.2-0.2c14.4 0 26.1 11.6 26.1 26z"/><path class="y" d="m254.8 189.9v43h-45.6v-43c0-13.3 10-24.3 22.9-25.8 12.8 1.6 22.7 12.5 22.7 25.8z"/><path class="c" d="m214.7 188.8c0 2.3 1.9 4.2 4.2 4.2h26.2c2.3 0 4.2-1.9 4.2-4.2 0-2.3-1.9-4.2-4.2-4.2h-26.2c-2.3 0-4.2 1.9-4.2 4.2z"/><path class="z" d="m273 238.6h-69.5v-5.7h69.5z"/><path class="A" d="m209.3 472h-5.8v-233.4h5.7z"/><path class="B" d="m218.4 246.5h-24c-0.9 0-1.6-0.7-1.6-1.6v-6.3h27.2v6.3c0 0.9-0.7 1.6-1.6 1.6z"/><path class="c" d="m289 434.1v-153.1c0-2.5 2-4.5 4.4-4.5h227.9c2.4 0 4.4 2 4.4 4.5v153.1c0 2.4-2 4.4-4.4 4.4h-227.9c-2.4 0-4.4-2-4.4-4.4z"/><path class="f" d="m518.1 433.8h-221.5c-1.6 0-2.9-1.3-2.9-2.9v-146.7c0-1.6 1.3-2.9 2.9-2.9h221.5c1.6 0 2.9 1.3 2.9 2.9v146.7c0 1.6-1.3 2.9-2.9 2.9z"/><path class="c" d="m459.2 447.7h-99v-20.2h99z"/><path class="C" d="m360.2 447.7l-34.3 107.4h1.7l38.4-107.4z"/><path class="D" d="m456.6 447.7l34.2 107.4h-1.6l-38.5-107.4z"/><path class="E" d="m405.9 447.7l1.4 107.4h2.4l1.4-107.4z"/><path class="c" d="m433.3 291.2h-51.9c-0.7 0-1.3-0.6-1.3-1.3v-19c0-0.7 0.6-1.3 1.3-1.3h51.9c0.7 0 1.3 0.6 1.3 1.3v19c0 0.7-0.6 1.3-1.3 1.3z"/><path class="F" d="m425.6 275.6h-36.5c-0.6 0-1.1-0.5-1.1-1.1v-14.2c0-0.6 0.5-1.1 1.1-1.1h36.5c0.6 0 1.1 0.5 1.1 1.1v14.2c0 0.6-0.5 1.1-1.1 1.1z"/><path fill-rule="evenodd" class="G" d="m317.9 313.3v87.8h132.8"/><path class="l" d="m355.9 366.7h-19.4v29.6h19.4z"/><path class="H" d="m384.3 348.5h-19.4v47.8h19.4z"/><path class="l" d="m412.7 337h-19.4v59.3h19.4z"/><path class="H" d="m441.1 320h-19.4v76.3h19.4z"/><path class="l" d="m510.5 311.4h-46.2v-5.3h46.2z"/><path class="h" d="m510.5 325.3h-46.2v-5.3h46.2z"/><path class="h" d="m510.5 339.2h-46.2v-5.3h46.2z"/><path class="h" d="m490.8 353.1h-26.5v-5.3h26.5z"/><path class="l" d="m510.5 368.3h-46.2v-5.3h46.2z"/><path class="h" d="m510.5 382.2h-46.2v-5.3h46.2z"/><path class="h" d="m510.5 396.1h-46.2v-5.3h46.2z"/><path class="h" d="m490.8 410h-26.5v-5.3h26.5z"/><path class="I" d="m838.7 576c7.2 25.4 9.2 28.2 8.5 36.4-0.5 6.1-1.1 14-3 18.5-0.7 1.7-1.5 3-2.6 3.6-4.2 2.1-7.1 2.3-7.1 5.3 0 2.9 13.2 2.9 17.5-0.5 4.4-3.3 6.9-23 8.7-23 1.8 0 2.4 21.5 2.4 21.5l3.3-0.2c0 0 0.2-22 0-27.3-0.2-5.2-8.7-11.7-8.7-11.7 0 0-1.5-35.8-6.8-53.3-5.3-17.5-9.2-20.1-9.3-22.9-0.2-2.9-25 1.6-25 1.6 0 0 0.4 3.6 4.8 10.5 4.3 6.9 10 16.1 17.3 41.5z"/><path class="c" d="m822.9 274.8c0 0 5.9-4.6 13.6-0.1 7.6 4.5 9 18.2 2.3 30.1-6.6 11.9 4.5 16.8 4.5 16.8 0 0-14.9 0.8-19.3-5.3-4.3-6.1 2.8-14.7 3.9-24.3 1.2-9.5-5-17.2-5-17.2z"/><path class="J" d="m792.4 289.5c0 0 0.1 3.1 0.6 4.9 0.6 1.9 0.9 3.2 0.1 4.1-0.9 0.9-1.8 3.9-0.6 8.6 1.3 4.8 1.7 11.6 3.8 12.7 2.1 1.1 9.2-1.5 9.6-0.2 0.3 1.3-1.3 8.2-1.3 8.2 0 0-0.2 1.3 5.5 2.4 5.7 1.1 13.9-3.6 13.9-3.6 0 0-3.4-14.7-2.5-17.1 0.9-2.4-6.2-22.2-7.2-22.3-0.9-0.1-21.9 2.3-21.9 2.3z"/><path class="c" d="m791 286.5c-0.4 8.7 17.8 15.6 17.8 15.6 0 0 1.3-5.6 4.8-5.7 3.4 0 2.4 3.3 1.1 5.6-1.3 2.3-0.7 9.4 4 10 4.8 0.7 10.2-1.7 14.4-14 4.2-12.3-4.7-17.3-4.7-17.3 0 0-3.5-8.5-17.3-9.7-13.8-1.2-19.8 9.1-20.1 15.5z"/><path class="K" d="m725.2 347.5c0 0-6.3-1.2-9.4-3.4-3.1-2.3-6.1-6-6.1-6 0 0 0.9-1.3 3.5 0.2 2.5 1.5 4.5 1.2 4.5 1.2 0 0-4.9-4-8.1-7-3.1-2.9-2.8-4.8-1.9-4.9 0.9-0.1 13.9 6 15.1 7.2 1.2 1.1 6 7.7 6 7.7 0 0-2.9 1.2-3.6 5z"/><path class="l" d="m823.1 322.2c0 0-4.2 6.7-12 5.8-7.8-1-5.4-3.5-5.4-3.5 0 0-13.8-1.1-17.2 2.7-3.4 3.8-19.6 32.6-24.5 33-4.8 0.3-30.9-18.6-31.5-19-0.5-0.4-4.1-1.2-6.4 2.6-2.3 3.8-2.1 7.6-2.1 7.6 0 0 33.6 27 39 27.5 5.3 0.6 20.9-13.7 20.9-13.7 0 0 3.9 16.2 3 31.2-0.9 14.9-1 22.3-1 22.3 0 0-2.4 5.7 25.5 8 27.9 2.3 28.7-4.6 28.7-4.6v-11c0 0 20.4 3.8 21.8-2.6 1.4-6.5-7.9-74.1-14.5-80.5-6.6-6.5-24.3-5.8-24.3-5.8z"/><path class="L" d="m838 336.2c0 0-4.9 8.6-2.5 19.6 2.4 10.9 3.8 33.3 6.7 37 2.8 3.7 9.1 9.2 9.1 9.2 0 0-12-8.7-15.7-9.2-3.7-0.4-32.4-4-32.4-4 0 0 32.2 2.5 33.1 0.9 0.8-1.6-3.9-31.7-3.3-41.2 0.6-9.5 5-12.3 5-12.3z"/><path class="L" d="m789.7 336.2c0 0-10.1 13.1-10.1 16.3 0 3.1 4.3 12.7 4.3 12.7 0 0-14.7 13-19.1 13.5-4.5 0.5-6.5-1.9-6.5-1.9 0 0 6.3 1.5 13.3-4.1 7-5.7 9-5.7 8.2-8.6-0.9-3-3.8-9.5-2.3-12.9 1.5-3.4 12.2-15 12.2-15z"/><path class="M" d="m803.7 388.8c0 0 0.5 8.4 0 8.7-0.6 0.3-6.6 0.6-9-3.1-2.3-3.7-1.2-5.7-5.5-6.8-4.2-1.1-6.6-1.3-7.4-2.4-0.7-1.2-0.5-1.5-0.5-1.5 0 0 10 1.4 11.5 1.4 1.4 0 3.9-0.5 5.7 0.4 1.7 1 5.2 3.3 5.2 3.3z"/><path class="c" d="m786.7 420.7c0 0-5.3 8.6-5.4 19.2-0.1 10.7 5.4 80.1 5.4 80.1 0 0 11.1 4.4 36.4 4 25.2-0.4 36.3-7.1 36.3-7.1 0 0-6.6-2.4-8.1-12.7-1.4-10.2 6.9-39.4 2.9-54-3.9-14.6-14.1-28.1-14.1-28.1 0 0-23.1 10.1-53.4-1.4z"/><path class="N" d="m785 640.9c-0.2 3 5.8 3.1 14.9 3.1 9.1 0 6.8-5.9 9.8-11.6 2.9-5.8 7.2-11.7 9.5-8.3 2.3 3.4 0 19.9 0 19.9h5.7c0 0-0.2-13.5 0-20.5 0.2-4.8-3.1-9.2-5.5-13.2-1.2-1.8-2.1-3.6-2.4-5.3-0.9-5.3 1.8-19.9 3.3-44.1 1.6-24.2-6.8-36.9-6.8-36.9-5.5 0-21.5-2.5-21.5-2.5 0 0 0.3 5.7 4.9 14.6 4.7 8.9 7.7 56.4 7.5 60.6-0.3 4.3-3 18.5-5.8 29.1-0.8 3.1-2.2 5.4-3.9 7.2-4.2 4.4-9.6 5.8-9.7 7.9z"/><path class="c" d="m785 640.9c-0.2 3 5.8 3.1 14.9 3.1 9.1 0 6.8-5.9 9.8-11.6 2.9-5.8 7.2-11.7 9.5-8.3 2.3 3.4 0 19.9 0 19.9h5.7c0 0-0.2-13.5 0-20.5 0.2-4.8-3.1-9.2-5.5-13.2 0 0-8.4 0.9-10.4 8.7-2 7.9-3 13.7-7.4 14.2-2.9 0.4-5.4 0.1-6.9-0.2-4.2 4.4-9.6 5.8-9.7 7.9z"/><path class="c" d="m834.5 639.8c0 2.9 13.2 2.9 17.5-0.5 4.4-3.3 6.9-23 8.7-23 1.8 0 2.4 21.5 2.4 21.5l3.3-0.2c0 0 0.2-22 0-27.3-0.2-5.2-8.7-11.7-8.7-11.7 0 0-2.8 15.8-4.2 23.3-1.4 7.5-1.4 9.5-5.8 9.5-1.4 0-2.5-0.2-3.5-0.5-0.7 1.7-1.5 3-2.6 3.6-4.2 2.1-7.1 2.3-7.1 5.3z"/><path class="O" d="m595.1 604.4v8.6c0 0 5.7 4.1 9.1 2.9 3.3-1.3 5.4-3.3 5.4-3.3v-11.8z"/><path class="c" d="m609.6 611.3c0 0-6 4.4-10.5 1.2-4.5-3.2-6.3-3.2-7.6-0.6-1.2 2.6-12.2 3-14.7 4.6-2.5 1.6-1.3 5.3-1.3 5.3h37.7c0 0 0.7-10.2-3.6-10.5z"/><path class="c" d="m585.1 541l8.9 61.7c0 0-0.3 3.2 7.5 3.6 7.8 0.3 8.1-3.4 8.1-3.4v-67.2z"/><path class="P" d="m546.3 625.9v9.6c0 0 6.3 4.6 10.1 3.2 3.8-1.4 6.1-3.7 6.1-3.7v-13.2z"/><path class="Q" d="m655.1 484.3h-211v-7.5h211z"/><path class="R" d="m463.2 484.3l-45.6 113.3h3.1l50.1-113.3z"/><path class="S" d="m633.7 357.5c0 0-1.1 9.1 0 9.7 1.2 0.5 2.4 2.9 1.5 4.3-0.9 1.3-2.1 3.8-0.8 8.1 1.2 4.3 2.3 12.4 7.2 12.3 5-0.1 6.4-3.3 8.7-1.4 2.3 1.9 1.5 4.3 1.5 4.3h20.4c0 0-2.7-21.2-2.7-23.9 0-2.6-16.7-13.8-21.4-15-4.8-1.3-14.4 1.6-14.4 1.6z"/><path class="c" d="m630.7 352.4c0.1 3.3 0.1 7.3 6.1 7.2 5.9-0.1 3.7 6 5.8 6.6 2.2 0.5 3.3 0.5 3.4 3 0.1 2.5-0.4 3.4 1 4 1.5 0.5 2.3-8.7 5.7-8.3 3.4 0.4 1.4 5.5 2.8 10.1 1.3 4.5 14.2 7.1 18.2 1.2 3.9-5.9 4.7-11.7 3.9-16.2-0.9-4.6-4.5-6.9-4.5-6.9 0 0 1.1-7.1-1.7-9.5-2.7-2.4-21.9-2.7-28.8-1-6.8 1.8-12 7.9-11.9 9.8z"/><path class="c" d="m684.3 510.9v30.8l-105.5-0.7c-4.3 0.2-7.9 3.6-8.3 7.9l-8.1 77.2c0 0-5 3-10.7 2.6-5.7-0.4-7.2-2.3-7.2-2.3 0 0 2.6-62.1 0-76.8-2.7-14.6-7.3-37.6 15.9-41.7 23.2-4.1 71.3-6.4 71.3-6.4z"/><path class="m" d="m710.7 454.6h-14.9l-2.4-7.1-3.6 61.9c0 0 1.1 14.1-26.1 15.4-16.1 0.7-25.6-8.1-30.7-15.5-3.5-5.2-4.9-9.6-4.9-9.6l-1.1-45.2q-0.2 0.8-0.6 2l-0.1 0.1c-2.7 7.2-10.7 20.5-10.7 20.5h-56.1c0 0-4.3-2.9-3-7.6 1.4-4.6 6.8-5.5 6.8-5.5 0 0 34.9-0.8 36.6-1.2 1.6-0.3 22.2-57.6 23.1-58.7 0.9-1.1 19.4-5 19.4-5l5-4.8h27.6l2.8 4.8c0 0 14.3 3.7 18.9 5 4.6 1.3 14 50.5 14 50.5z"/><path class="c" d="m741.4 458.4l-19.7 81c-1.3 5.4-6.2 9.2-11.7 9.2h-130.3v-7.6l52.5 1.5c5.2 0 9.6-3.5 10.8-8.5l17.7-71.7c1.6-6.8 7.8-11.7 14.8-11.7h58.9c4.6 0 6.8 0.7 7.2 5q0.1 1.4-0.2 2.8z"/><path class="T" d="m721.7 539.4c-1.4 5.4-6.2 9.2-11.7 9.2h-76.2c3.5-0.2 13.5-1.4 16.4-11.7 3-10.7 15.5-61.8 19.2-77 0.7-2.5 2.9-4.3 5.5-4.3h63.1c1.8 0 3.2 1.8 2.8 3.6-3.6 16-19.1 80.2-19.1 80.2z"/><path class="c" d="m562.4 633.6c0 0-6.7 4.9-11.7 1.3-5.1-3.6-7.1-3.6-8.5-0.7-1.3 3-13.8 3.4-16.6 5.2-2.7 1.8-1.4 5.9-1.4 5.9h42.3c0 0 0.9-11.4-4.1-11.7z"/><path class="U" d="m557.8 467.2c0 0-11.1-1.4-16.5-1.4-5.5-0.1-19.5 9.5-18.3 10.2 1.3 0.8 12.3-1 18-1 5.8 0 16.8 0.5 16.8 0.5 0 0-1.7-4.6 0-8.3z"/><path class="m" d="m626.4 456.4l0.6-1.9q-0.2 0.8-0.6 1.9z"/><path class="t" d="m633.8 453c-1.4 6.4-1.1 39-0.8 56.3-3.5-5.2-4.9-9.6-4.9-9.6l-1.1-45.2c0 0 4.7-9.8 6.8-16.6 2.2-6.8 2.2-8.8 2.2-8.8 0 0-0.1 15.2-2.2 23.9z"/><path class="t" d="m693.2 450.4v-27.6l5.4 27.6z"/><path class="V" d="m671.5 560.2h-30.5c-1.4 0-2.5-1.1-2.5-2.5v-9.1h35.5v9.1c0 1.4-1.1 2.5-2.5 2.5z"/><path class="W" d="m658.9 623.1h-5.3v-62.9h5.3z"/><path class="X" d="m679.7 626.8h-46.9v-2.8c0-0.5 0.5-0.9 1-0.9h44.9c0.5 0 1 0.4 1 0.9z"/><path class="Y" d="m638.5 631.5h-4.9c-0.4 0-0.8-0.3-0.8-0.7v-4h6.6v3.9c0 0.4-0.4 0.8-0.9 0.8z"/><path class="Z" d="m678.8 631.5h-4.9c-0.4 0-0.7-0.3-0.7-0.7v-4h6.5v3.9c0 0.4-0.4 0.8-0.9 0.8z"/><path fill-rule="evenodd" class="a0" d="m575.1 175.6q0 0 0-0.8"/><path fill-rule="evenodd" class="a1" d="m575.1 173.2c-0.1-10.1-2.4-50.6-32.9-69.7-35-21.9-74.9-25.9-92.6-10.1-17.7 15.7-5.7 46.2 20.1 39.3 25.8-6.9 17-33.3-33.9-45.7-46.1-11.2-94.2 10.3-103 14.5"/><path fill-rule="evenodd" class="a0" d="m332.1 101.8q-0.7 0.4-0.7 0.4"/><path class="a2" d="m340.6 54.2l-66.3 51 61.6-27.3z"/><path class="a3" d="m335.9 77.9l13.8 22.3-75.4 5z"/><path class="a2" d="m274.3 105.2l61.6 1.1v-16.7z"/><path class="a4" d="m335.9 89.6l13.8 10.6-13.8 0.9z"/><path class="a5" d="m191.8 587.1c0 0 2.4 13.9 4.3 16.8 1.9 2.8 5.6 4.3 0.7 4.7-4.8 0.4-19-11.2-19.6-14.6-0.6-3.3 1.7-9 1.7-9z"/><path class="c" d="m177.4 589.5c0 0 9.3-0.2 9.9 5.5 0.5 5.6 4.1 9.9 7.1 10.2 2.9 0.4 5.3-0.9 5.3-0.9 0 0 3.7 7.1 6.4 7.7 2.8 0.5 7.3 3.3 5.7 5.2-1.5 1.9-15.7 1.1-19.9-2.6-4.1-3.7-12.9-16.1-12.9-16.1v17l-4.2-0.9c0 0-1.6-23.5 2.6-25.1z"/><path class="a6" d="m232.5 588.3c0 0 2.4 13.9 4.3 16.8 1.9 2.9 5.6 4.4 0.8 4.8-4.9 0.3-19.1-11.3-19.7-14.6-0.5-3.4 1.7-9 1.7-9z"/><path class="c" d="m181.5 587.7c7.2 2.8 11.9 0.8 11.9 0.8 0 0 0 0 4.8-23.8 4.8-23.9 14.3-50.5 20.3-62.6 2.3-4.8 3.7-14 4.5-23.5 0.1-2.2 0.3-4.4 0.4-6.6-0.1 3.4-0.1 8.2-0.4 13.4-0.2 5-0.7 10.4-1.6 15.4-0.9 4.6-2.2 8.8-4.1 12-6.4 10.5 0 74.5 0 74.5 0 0 1.7 2.3 7.5 3q1.4 0.2 3.2 0.2c8.3 0 6.4-2.4 6.4-2.4 0 0-1.6-18.3 0-31.4 1.5-13.1 15-47.5 20.1-58.5 5.1-11.1-6.3-100.8-6.3-100.8-13.6 10.3-52.8 5.9-52.8 5.9 0 0-4.7 6-7.1 25.2-2.4 19.1 7.1 66.1 7.1 66.1 0 0-8.7 5.3-13.9 27.8-5.2 22.6-7.1 62.5 0 65.3z"/><path class="c" d="m250.7 261.2c0 0 3.6 7.5 2.4 11.3-2.3 8.2-0.7 12.4 1.8 17.2 2.7 5 7.4 11.8 0.2 14.4-7.2 2.7-24.1 0.2-25-5.4-0.8-5.5 5-38.2 5-38.2z"/><path class="a7" d="m246.4 268.4c0 0 2.2 4.8 1.7 7.9-0.4 3-0.5 14.5-3.4 15.8-4 1.7-9.3-0.2-9.4 1.6-0.2 1.8 0 7 0 7 0 0-4.8 2.3-11 1.4-6.2-1-7.3-3.2-7.3-3.2 0 0 3.1-28.6 7.4-30.5 4.3-2 22 0 22 0z"/><path class="c" d="m250.5 257c5.3 4-1.5 13-11.1 15.5-4.1 1.1-7.6 1.1-10.1 0.7-2.6-0.4-4.9 1.6-4.9 4.2 0 8.3-1.6 22.8-12.4 24.9-15.3 3.1-14.7 15.2-14.7 15.2 0 0-12.1-7.5-12.4-14.5-0.3-6.9 1.8-21.2 10.4-26 8.6-4.9 13.8-6.3 15.4-13.5 1.7-7.2 15.3-24.9 39.8-6.5z"/><path class="m" d="m217 298.9c0 0-20.8 1.4-27.5 9.6-6.6 8.2-17.2 70.8-13.6 76.2 3.6 5.4 23.1 4.1 23.1 4.1l-3.9 16.1c0 0 21.5 10.4 37.5 7.1 15.9-3.2 17.7-14.6 17.7-14.6 0 0-2.5-32.4 0-42.7 2.6-10.2 3.1-12.6 3.1-12.6 0 0 6.4 14.2 8.2 17.1 1.8 3 34.9 12.2 37.5 10.3 2.6-2 6.1-17.1 6.1-17.1 0 0-26.4-3.8-32.8-13.8-6.4-10.1-17.2-31-25.1-34.5-8-3.5-12-3.4-12-3.4 0 0-10.2 4.2-18.3-1.8z"/><path class="c" d="m218.1 590.8c0 0 9.4-0.2 9.9 5.4 0.5 5.6 4.1 9.9 7.1 10.3 2.9 0.4 5.3-0.9 5.3-0.9 0 0 3.7 7.1 6.4 7.6 2.8 0.6 7.3 3.4 5.7 5.3-1.5 1.8-15.7 1.1-19.8-2.7-4.2-3.7-13-16-13-16v17l-4.2-1c0 0-1.6-23.5 2.6-25z"/><path class="L" d="m217.3 587.3c0 0 1.7 2.3 7.5 3-1.9-9.3-9.2-48.6-1.7-69.2 7.9-22 16-24.2 17-24.4-1.1 0.1-10.2 0.5-11.2-12.1-0.6-7.2-3.8-43.1-3.8-43.2-1.6-6.5-3.5-12.9-4.4 4.1 0.1 1.2 1.9 17.9 2.3 33.1 0 2.3 0 4.6 0 6.8-0.1 6.4-0.5 12.1-1.6 15.4-0.9 4.6-2.2 8.8-4.1 12-6.4 10.5 0 74.5 0 74.5z"/><path class="a8" d="m245.6 317.5c0 0 11.9 13.3 11.7 16.6-0.1 3.3-3.9 8-3.9 8l7.3 15.4c0 0-4.3-13.8-2.3-15.4 2.1-1.7 4.5-5.5 0.5-11.3-3.9-5.8-13.3-13.3-13.3-13.3z"/><path class="a9" d="m256.1 357.1v57.9c0 1.6 0.5 3.1 1.2 4.4 1.5 2.5 4.2 4.2 7.4 4.2h98.1c2.7 0 5.1-1.2 6.7-3.1 1.2-1.5 1.9-3.4 1.9-5.5v-57.9c0-2.2-0.8-4.2-2.2-5.8-1.6-1.7-3.9-2.8-6.4-2.8h-98.1c-2.5 0-4.7 1.1-6.3 2.8-1.4 1.5-2.3 3.6-2.3 5.8z"/><path class="aa" d="m257.3 419.4c1.5 2.5 4.2 4.2 7.4 4.2h98.1c2.7 0 5.1-1.2 6.7-3.1l-49.2-49.7h-21.1z"/><path class="ab" d="m258.4 351.3l51 43.4 59.8-43.4c-1.6-1.7-3.8-2.8-6.4-2.8h-98.1c-2.5 0-4.7 1.1-6.3 2.8z"/><path class="a8" d="m205.3 316c0 0-6.9 53-9 54.8-2.2 1.9-11.4 8.6-11.4 8.6 0 0 11.6-7.2 17.5-7.2 5.9-0.1 31.8-4.2 31.8-4.2 0 0-32.6 2.9-33 0.2-0.4-2.8 4.9-26.1 5.5-36.9 0.6-10.8-1.4-15.3-1.4-15.3z"/><path class="ac" d="m234.2 368.7c0 0 3.1-5.9 6.8-6.1 3.8-0.2 8.5-1.8 8.5-1.8 0 0 1.2 2.3-1.8 3.2-3.1 1-0.7 3.3 3.2 3.1 3.8-0.2 8.2-1.8 10.1-1.4 2 0.3-2.6 8.6-10.1 11.2-7.6 2.6-16.7 2.5-16.7 2.5 0 0 2.8-7.3 0-10.7z"/><path class="ad" d="m427.3 153.7v57.9c0 1.6-0.4 3.1-1.2 4.4-1.5 2.5-4.2 4.2-7.4 4.2h-98.1c-2.7 0-5.1-1.2-6.7-3.1-1.2-1.5-1.9-3.4-1.9-5.5v-57.9c0-2.2 0.9-4.2 2.2-5.8 1.6-1.7 3.9-2.8 6.4-2.8h98.1c2.5 0 4.7 1.1 6.3 2.8 1.4 1.5 2.3 3.6 2.3 5.8z"/><path class="ae" d="m426.1 216c-1.5 2.5-4.2 4.2-7.4 4.2h-98.1c-2.7 0-5.1-1.2-6.7-3.1l49.2-49.7h21.1z"/><path class="af" d="m425 147.9l-50.9 43.5-59.9-43.5c1.6-1.7 3.9-2.8 6.4-2.8h98.1c2.5 0 4.7 1.1 6.3 2.8z"/><path fill-rule="evenodd" class="ag" d="m701.1 586.3v-163.5"/></svg>