<svg version="1.2" xmlns="http://www.w3.org/2000/svg" viewBox="0 0 3000 2500" width="1000" height="833">
	<title>vecteezy_team-business-analytics-data-email_8258372-0</title>
	<defs>
		<linearGradient id="g1" x2="1" gradientUnits="userSpaceOnUse" gradientTransform="matrix(35.138,0,0,36.217,1714.49,1118.88)">
			<stop offset="0" stop-color="#ffcaca"/>
			<stop offset="1" stop-color="#f99b9b"/>
		</linearGradient>
		<linearGradient id="g2" x2="1" gradientUnits="userSpaceOnUse" gradientTransform="matrix(38.754,0,0,31.232,1834.493,1084.85)">
			<stop offset="0" stop-color="#ffcaca"/>
			<stop offset="1" stop-color="#f99b9b"/>
		</linearGradient>
		<linearGradient id="g3" x2="1" gradientUnits="userSpaceOnUse" gradientTransform="matrix(105.391,0,0,120.342,1871.51,408.815)">
			<stop offset="0" stop-color="#ffcaca"/>
			<stop offset="1" stop-color="#f99b9b"/>
		</linearGradient>
		<linearGradient id="g4" x2="1" gradientUnits="userSpaceOnUse" gradientTransform="matrix(227.192,0,0,123.214,1673.084,679.26)">
			<stop offset="0" stop-color="#ffffff"/>
			<stop offset="1" stop-color="#cecece"/>
		</linearGradient>
		<linearGradient id="g5" x2="1" gradientUnits="userSpaceOnUse" gradientTransform="matrix(69.718,0,0,39.797,1896.423,752.45)">
			<stop offset="0" stop-color="#ffcaca"/>
			<stop offset="1" stop-color="#f99b9b"/>
		</linearGradient>
		<linearGradient id="g6" x2="1" gradientUnits="userSpaceOnUse" gradientTransform="matrix(59.203,228.646,-271.584,70.321,641.322,630.73)">
			<stop offset=".016" stop-color="#d9d2c7"/>
			<stop offset="1" stop-color="#f3f3f6"/>
		</linearGradient>
		<linearGradient id="g7" x2="1" gradientUnits="userSpaceOnUse" gradientTransform="matrix(190.616,0,0,241.542,609.606,675.412)">
			<stop offset=".016" stop-color="#d9d2c7"/>
			<stop offset="1" stop-color="#f3f3f6"/>
		</linearGradient>
		<linearGradient id="g8" x2="1" gradientUnits="userSpaceOnUse" gradientTransform="matrix(87.888,0,0,207.227,695.2,692.574)">
			<stop offset=".016" stop-color="#bdb0a6"/>
			<stop offset="1" stop-color="#a09c9c"/>
		</linearGradient>
		<linearGradient id="g9" x2="1" gradientUnits="userSpaceOnUse" gradientTransform="matrix(-133.855,179.726,-167.765,-124.946,933.355,789.451)">
			<stop offset=".016" stop-color="#d9d2c7"/>
			<stop offset="1" stop-color="#f3f3f6"/>
		</linearGradient>
		<linearGradient id="g10" x2="1" gradientUnits="userSpaceOnUse" gradientTransform="matrix(-218.059,1.268,-0.112,-19.216,837.31,916.241)">
			<stop offset=".016" stop-color="#bdb0a6"/>
			<stop offset="1" stop-color="#a09c9c"/>
		</linearGradient>
		<linearGradient id="g11" x2="1" gradientUnits="userSpaceOnUse" gradientTransform="matrix(0,-534.093,13.081,0,-13674.464,1535.006)">
			<stop offset="0" stop-color="#ffffff"/>
			<stop offset="1" stop-color="#cecece"/>
		</linearGradient>
		<linearGradient id="g12" x2="1" gradientUnits="userSpaceOnUse" gradientTransform="matrix(-69.325,0,0,-20.098,657.843,940.647)">
			<stop offset="0" stop-color="#ffffff"/>
			<stop offset="1" stop-color="#cecece"/>
		</linearGradient>
		<linearGradient id="g13" x2="1" gradientUnits="userSpaceOnUse" gradientTransform="matrix(120.271,0,0,322.015,976.855,1544.192)">
			<stop offset="0" stop-color="#d9d3cc"/>
			<stop offset="1" stop-color="#c8cbcc"/>
		</linearGradient>
		<linearGradient id="g14" x2="1" gradientUnits="userSpaceOnUse" gradientTransform="matrix(-120.271,0,0,-322.015,1471.516,1544.192)">
			<stop offset="0" stop-color="#d9d3cc"/>
			<stop offset="1" stop-color="#c8cbcc"/>
		</linearGradient>
		<linearGradient id="g15" x2="1" gradientUnits="userSpaceOnUse" gradientTransform="matrix(15.769,0,0,322.015,1216.663,1544.192)">
			<stop offset="0" stop-color="#d9d3cc"/>
			<stop offset="1" stop-color="#c8cbcc"/>
		</linearGradient>
		<linearGradient id="g16" x2="1" gradientUnits="userSpaceOnUse" gradientTransform="matrix(115.918,0,0,49.042,1163.07,978.74)">
			<stop offset="0" stop-color="#d9d3cc"/>
			<stop offset="1" stop-color="#c8cbcc"/>
		</linearGradient>
		<linearGradient id="g17" x2="1" gradientUnits="userSpaceOnUse" gradientTransform="matrix(-149.551,0,0,-361.499,2598.468,1765.259)">
			<stop offset="0" stop-color="#ffcaca"/>
			<stop offset="1" stop-color="#f99b9b"/>
		</linearGradient>
		<linearGradient id="g18" x2="1" gradientUnits="userSpaceOnUse" gradientTransform="matrix(-95.932,.508,-0.687,-129.578,2470.475,1062.387)">
			<stop offset="0" stop-color="#ffcaca"/>
			<stop offset="1" stop-color="#f99b9b"/>
		</linearGradient>
		<linearGradient id="g19" x2="1" gradientUnits="userSpaceOnUse" gradientTransform="matrix(-55.22,10.455,-12.709,-67.124,2174.957,1173.815)">
			<stop offset="0" stop-color="#ffcaca"/>
			<stop offset="1" stop-color="#f99b9b"/>
		</linearGradient>
		<linearGradient id="g20" x2="1" gradientUnits="userSpaceOnUse" gradientTransform="matrix(-67.861,0,0,-42.045,2410.755,1352.01)">
			<stop offset="0" stop-color="#ffcaca"/>
			<stop offset="1" stop-color="#f99b9b"/>
		</linearGradient>
		<linearGradient id="g21" x2="1" gradientUnits="userSpaceOnUse" gradientTransform="matrix(-119.933,0,0,-367.61,2473.824,1765.49)">
			<stop offset="0" stop-color="#ffcaca"/>
			<stop offset="1" stop-color="#f99b9b"/>
		</linearGradient>
		<linearGradient id="g22" x2="1" gradientUnits="userSpaceOnUse" gradientTransform="matrix(43.246,0,0,45.903,1784.416,2003.433)">
			<stop offset="0" stop-color="#ffcaca"/>
			<stop offset="1" stop-color="#f99b9b"/>
		</linearGradient>
		<linearGradient id="g23" x2="1" gradientUnits="userSpaceOnUse" gradientTransform="matrix(48.588,0,0,51.573,1637.766,2066.336)">
			<stop offset="0" stop-color="#ffcaca"/>
			<stop offset="1" stop-color="#f99b9b"/>
		</linearGradient>
		<linearGradient id="g24" x2="1" gradientUnits="userSpaceOnUse" gradientTransform="matrix(633.006,0,0,22.746,1331.164,1631.305)">
			<stop offset="0" stop-color="#d9d3cc"/>
			<stop offset="1" stop-color="#c8cbcc"/>
		</linearGradient>
		<linearGradient id="g25" x2="1" gradientUnits="userSpaceOnUse" gradientTransform="matrix(159.628,0,0,339.74,1251.743,1654.051)">
			<stop offset="0" stop-color="#d9d3cc"/>
			<stop offset="1" stop-color="#c8cbcc"/>
		</linearGradient>
		<linearGradient id="g26" x2="1" gradientUnits="userSpaceOnUse" gradientTransform="matrix(116.901,0,0,117.688,1898.676,1267.74)">
			<stop offset="0" stop-color="#ffcaca"/>
			<stop offset="1" stop-color="#f99b9b"/>
		</linearGradient>
		<linearGradient id="g27" x2="1" gradientUnits="userSpaceOnUse" gradientTransform="matrix(47.867,-251.931,201.16,38.221,1898.341,1787.184)">
			<stop offset="0" stop-color="#f0f0ed"/>
			<stop offset="1" stop-color="#c8cbcc"/>
		</linearGradient>
		<linearGradient id="g28" x2="1" gradientUnits="userSpaceOnUse" gradientTransform="matrix(104.409,0,0,31.226,1567.914,1598.38)">
			<stop offset="0" stop-color="#ffcaca"/>
			<stop offset="1" stop-color="#f99b9b"/>
		</linearGradient>
		<linearGradient id="g29" x2="1" gradientUnits="userSpaceOnUse" gradientTransform="matrix(106.584,0,0,34.91,1914.463,1846.691)">
			<stop offset="0" stop-color="#f0f0ed"/>
			<stop offset="1" stop-color="#c8cbcc"/>
		</linearGradient>
		<linearGradient id="g30" x2="1" gradientUnits="userSpaceOnUse" gradientTransform="matrix(15.652,0,0,188.572,1959.929,1881.601)">
			<stop offset="0" stop-color="#f0f0ed"/>
			<stop offset="1" stop-color="#c8cbcc"/>
		</linearGradient>
		<linearGradient id="g31" x2="1" gradientUnits="userSpaceOnUse" gradientTransform="matrix(140.477,0,0,11.13,1897.517,2070.173)">
			<stop offset="0" stop-color="#f0f0ed"/>
			<stop offset="1" stop-color="#c8cbcc"/>
		</linearGradient>
		<linearGradient id="g32" x2="1" gradientUnits="userSpaceOnUse" gradientTransform="matrix(19.538,0,0,14.32,1897.517,2081.303)">
			<stop offset="0" stop-color="#f0f0ed"/>
			<stop offset="1" stop-color="#c8cbcc"/>
		</linearGradient>
		<linearGradient id="g33" x2="1" gradientUnits="userSpaceOnUse" gradientTransform="matrix(19.538,0,0,14.32,2018.456,2081.303)">
			<stop offset="0" stop-color="#f0f0ed"/>
			<stop offset="1" stop-color="#c8cbcc"/>
		</linearGradient>
		<linearGradient id="g34" x2="1" gradientUnits="userSpaceOnUse" gradientTransform="matrix(-66.38,0,0,-70.726,596.703,1956.135)">
			<stop offset="0" stop-color="#ffcaca"/>
			<stop offset="1" stop-color="#f99b9b"/>
		</linearGradient>
		<linearGradient id="g35" x2="1" gradientUnits="userSpaceOnUse" gradientTransform="matrix(-66.381,0,0,-70.726,718.854,1959.859)">
			<stop offset="0" stop-color="#ffcaca"/>
			<stop offset="1" stop-color="#f99b9b"/>
		</linearGradient>
		<linearGradient id="g36" x2="1" gradientUnits="userSpaceOnUse" gradientTransform="matrix(-93.744,0,0,-104.367,743.609,1003.527)">
			<stop offset="0" stop-color="#ffcaca"/>
			<stop offset="1" stop-color="#f99b9b"/>
		</linearGradient>
		<linearGradient id="g37" x2="1" gradientUnits="userSpaceOnUse" gradientTransform="matrix(0,204.196,-313.63,0,867.049,1250.199)">
			<stop offset=".016" stop-color="#d68d2d"/>
			<stop offset="1" stop-color="#ffd773"/>
		</linearGradient>
		<linearGradient id="g38" x2="1" gradientUnits="userSpaceOnUse" gradientTransform="matrix(-336.545,0,0,-158.322,1107.514,1313.496)">
			<stop offset=".016" stop-color="#d68d2d"/>
			<stop offset="1" stop-color="#ffd773"/>
		</linearGradient>
		<linearGradient id="g39" x2="1" gradientUnits="userSpaceOnUse" gradientTransform="matrix(-332.244,0,0,-138.657,1106.567,1246.581)">
			<stop offset=".016" stop-color="#d68d2d"/>
			<stop offset="1" stop-color="#ffd773"/>
		</linearGradient>
		<linearGradient id="g40" x2="1" gradientUnits="userSpaceOnUse" gradientTransform="matrix(-81.914,0,0,-55.682,783.429,1283.397)">
			<stop offset="0" stop-color="#ffcaca"/>
			<stop offset="1" stop-color="#f99b9b"/>
		</linearGradient>
		<linearGradient id="g41" x2="1" gradientUnits="userSpaceOnUse" gradientTransform="matrix(-8.241,102.418,-148.059,-11.913,1197.097,664.546)">
			<stop offset=".016" stop-color="#d68d2d"/>
			<stop offset="1" stop-color="#ffd773"/>
		</linearGradient>
		<linearGradient id="g42" x2="1" gradientUnits="userSpaceOnUse" gradientTransform="matrix(-15.84,261.965,-518.573,-31.356,1158.443,660.571)">
			<stop offset=".016" stop-color="#d68d2d"/>
			<stop offset="1" stop-color="#ffd773"/>
		</linearGradient>
		<linearGradient id="g43" x2="1" gradientUnits="userSpaceOnUse" gradientTransform="matrix(-6.174,-108.667,244.251,-13.878,1078.599,769.648)">
			<stop offset=".016" stop-color="#d68d2d"/>
			<stop offset="1" stop-color="#ffd773"/>
		</linearGradient>
	</defs>
	<style>
		.s0 { fill: #f3f3f6 } 
		.s1 { fill: #1e1e1e } 
		.s2 { fill: #1f366a } 
		.s3 { fill: #ff4141 } 
		.s4 { fill: #413f56 } 
		.s5 { fill: #ffffff } 
		.s6 { fill: #dbdbde } 
		.s7 { fill: #dfe6f5 } 
		.s8 { fill: #83c0aa } 
		.s9 { fill: #f8eadf } 
		.s10 { fill: #303b37 } 
		.s11 { fill: #ee4037 } 
		.s12 { fill: #f0f3f7 } 
		.s13 { fill: none;stroke: #65c8d0;stroke-miterlimit:10;stroke-width: .4 } 
		.s14 { fill: url(#g1) } 
		.s15 { fill: url(#g2) } 
		.s16 { fill: url(#g3) } 
		.s17 { fill: #ff9b96 } 
		.s18 { fill: url(#g4) } 
		.s19 { opacity: .17;fill: #222b28 } 
		.s20 { fill: url(#g5) } 
		.s21 { fill: url(#g6) } 
		.s22 { fill: url(#g7) } 
		.s23 { fill: url(#g8) } 
		.s24 { fill: url(#g9) } 
		.s25 { fill: url(#g10) } 
		.s26 { fill: url(#g11) } 
		.s27 { fill: url(#g12) } 
		.s28 { fill: url(#g13) } 
		.s29 { fill: url(#g14) } 
		.s30 { fill: url(#g15) } 
		.s31 { fill: url(#g16) } 
		.s32 { fill: none;stroke: #a09e9d;stroke-miterlimit:10;stroke-width: 3.1 } 
		.s33 { fill: #1e3569 } 
		.s34 { fill: url(#g17) } 
		.s35 { fill: url(#g18) } 
		.s36 { fill: url(#g19) } 
		.s37 { opacity: .3;fill: #222b28 } 
		.s38 { fill: url(#g20) } 
		.s39 { fill: url(#g21) } 
		.s40 { fill: url(#g22) } 
		.s41 { fill: url(#g23) } 
		.s42 { fill: url(#g24) } 
		.s43 { fill: url(#g25) } 
		.s44 { fill: url(#g26) } 
		.s45 { fill: url(#g27) } 
		.s46 { fill: url(#g28) } 
		.s47 { fill: url(#g29) } 
		.s48 { fill: url(#g30) } 
		.s49 { fill: url(#g31) } 
		.s50 { fill: url(#g32) } 
		.s51 { fill: url(#g33) } 
		.s52 { fill: none;stroke: #9b9595;stroke-miterlimit:10;stroke-width: 4.7 } 
		.s53 { fill: none;stroke: #9b9595;stroke-miterlimit:10;stroke-width: 4.7;stroke-dasharray: 4.705939999999999,4.705939999999999 } 
		.s54 { fill: #f4f2f2 } 
		.s55 { fill: #d8cece } 
		.s56 { fill: #9e9797 } 
		.s57 { fill: url(#g34) } 
		.s58 { fill: url(#g35) } 
		.s59 { fill: url(#g36) } 
		.s60 { opacity: .09;fill: #222b28 } 
		.s61 { fill: url(#g37) } 
		.s62 { fill: url(#g38) } 
		.s63 { fill: url(#g39) } 
		.s64 { fill: url(#g40) } 
		.s65 { fill: url(#g41) } 
		.s66 { fill: url(#g42) } 
		.s67 { fill: url(#g43) } 
		.s68 { fill: none;stroke: #9b9595;stroke-miterlimit:10;stroke-width: 1.2;stroke-dasharray: 4.71903 } 
	</style>
	<g id="_Artboards_">
	</g>
	<g id="Layer 4">
		<g id="&lt;Group&gt;">
			<g id="&lt;Group&gt;">
				<g id="&lt;Group&gt;">
					<path id="&lt;Path&gt;" class="s0" d="m2285.75 908.28v711.28c0 13.04-10.57 23.55-23.55 23.55h-1114.71c-12.98 0-23.55-10.51-23.55-23.55v-711.28c0-12.98 10.57-23.55 23.55-23.55h1114.71c12.98 0 23.55 10.57 23.55 23.55z"/>
				</g>
				<g id="&lt;Group&gt;">
					<path id="&lt;Path&gt;" class="s1" d="m2285.75 908.28v36.05h-1161.81v-36.05c0-12.98 10.57-23.55 23.55-23.55h1114.71c12.98 0 23.55 10.57 23.55 23.55z"/>
				</g>
				<g id="&lt;Group&gt;">
					<path id="&lt;Path&gt;" class="s2" d="m2285.75 995.86h-1161.81v-51.53h1161.81z"/>
				</g>
				<g id="&lt;Group&gt;">
					<path id="&lt;Path&gt;" class="s3" d="m2221.88 933.86h-116.91c-1.44 0-2.62-1.18-2.62-2.62v-31.76c0-1.45 1.18-2.62 2.62-2.62h116.91c1.45 0 2.62 1.17 2.62 2.62v31.76c0 1.44-1.17 2.62-2.62 2.62z"/>
				</g>
				<path id="&lt;Path&gt;" class="s3" d="m1168.57 912.8c0 4.09-3.31 7.41-7.4 7.41-4.1 0-7.41-3.32-7.41-7.41 0-4.09 3.31-7.41 7.41-7.41 4.09 0 7.4 3.32 7.4 7.41z"/>
				<g id="&lt;Group&gt;">
					<path id="&lt;Path&gt;" class="s4" d="m1194.8 912.8c0 4.09-3.31 7.41-7.41 7.41-4.09 0-7.4-3.32-7.4-7.41 0-4.09 3.31-7.41 7.4-7.41 4.1 0 7.41 3.32 7.41 7.41z"/>
				</g>
				<g id="&lt;Group&gt;">
					<path id="&lt;Path&gt;" class="s0" d="m1221.03 912.8c0 4.09-3.32 7.41-7.41 7.41-4.09 0-7.41-3.32-7.41-7.41 0-4.09 3.32-7.41 7.41-7.41 4.09 0 7.41 3.32 7.41 7.41z"/>
				</g>
				<path id="&lt;Path&gt;" class="s5" d="m1216.77 1624.08h-76.92c-2.35 0-4.26-1.91-4.26-4.26v-609.53c0-2.35 1.91-4.26 4.26-4.26h76.92c2.35 0 4.26 1.91 4.26 4.26v609.53c0 2.35-1.91 4.26-4.26 4.26z"/>
				<path id="&lt;Path&gt;" class="s5" d="m1536.12 1624.08h-299.05c-2.36 0-4.27-1.91-4.27-4.26v-609.53c0-2.35 1.91-4.26 4.27-4.26h299.05c2.35 0 4.26 1.91 4.26 4.26v609.53c0 2.35-1.91 4.26-4.26 4.26z"/>
				<path id="&lt;Path&gt;" class="s5" d="m2263.29 1624.08h-213.88c-2.36 0-4.27-1.91-4.27-4.26v-609.53c0-2.35 1.91-4.26 4.27-4.26h213.88c2.35 0 4.26 1.91 4.26 4.26v609.53c0 2.35-1.91 4.26-4.26 4.26z"/>
				<path id="&lt;Path&gt;" class="s5" d="m2026.53 1624.08h-471.21c-2.36 0-4.27-1.91-4.27-4.26v-609.53c0-2.35 1.91-4.26 4.27-4.26h471.21c2.35 0 4.26 1.91 4.26 4.26v609.53c0 2.35-1.91 4.26-4.26 4.26z"/>
				<g id="&lt;Group&gt;">
					<path id="&lt;Path&gt;" class="s6" d="m1205.37 1084.73h-54.12c-0.92 0-1.67-0.75-1.67-1.67v-48.7c0-0.92 0.75-1.67 1.67-1.67h54.12c0.92 0 1.67 0.75 1.67 1.67v48.7c0 0.92-0.75 1.67-1.67 1.67z"/>
				</g>
				<g id="&lt;Group&gt;">
					<path id="&lt;Path&gt;" class="s7" d="m1205.37 1164.17h-54.12c-0.92 0-1.67-0.75-1.67-1.66v-48.7c0-0.92 0.75-1.67 1.67-1.67h54.12c0.92 0 1.67 0.75 1.67 1.67v48.7c0 0.91-0.75 1.66-1.67 1.66z"/>
				</g>
				<g id="&lt;Group&gt;">
					<path id="&lt;Path&gt;" class="s8" d="m1205.37 1243.62h-54.12c-0.92 0-1.67-0.75-1.67-1.67v-48.69c0-0.92 0.75-1.67 1.67-1.67h54.12c0.92 0 1.67 0.75 1.67 1.67v48.69c0 0.92-0.75 1.67-1.67 1.67z"/>
				</g>
				<g id="&lt;Group&gt;">
					<path id="&lt;Path&gt;" class="s9" d="m1205.37 1323.07h-54.12c-0.92 0-1.67-0.75-1.67-1.67v-48.7c0-0.91 0.75-1.66 1.67-1.66h54.12c0.92 0 1.67 0.75 1.67 1.66v48.7c0 0.92-0.75 1.67-1.67 1.67z"/>
				</g>
				<g id="&lt;Group&gt;">
					<g id="&lt;Group&gt;" style="opacity: .23">
						<path id="&lt;Path&gt;" class="s10" d="m1372.37 1043.11h-118.02c-1.11 0-2.03-0.91-2.03-2.03v-12.09c0-1.11 0.92-2.03 2.03-2.03h118.02c1.11 0 2.03 0.92 2.03 2.03v12.09c0 1.12-0.92 2.03-2.03 2.03z"/>
					</g>
					<g id="&lt;Group&gt;">
						<path id="&lt;Path&gt;" class="s7" d="m1402.85 1073.43h-148.68c-1.02 0-1.85-0.83-1.85-1.85v-11.02c0-1.02 0.83-1.85 1.85-1.85h148.68c1.02 0 1.85 0.83 1.85 1.85v11.02c0 1.02-0.83 1.85-1.85 1.85z"/>
					</g>
					<g id="&lt;Group&gt;">
						<path id="&lt;Path&gt;" class="s7" d="m1495.46 1073.43h-79.85c-1.02 0-1.85-0.83-1.85-1.85v-11.02c0-1.02 0.83-1.85 1.85-1.85h79.85c1.02 0 1.85 0.83 1.85 1.85v11.02c0 1.02-0.83 1.85-1.85 1.85z"/>
					</g>
					<g id="&lt;Group&gt;">
						<path id="&lt;Path&gt;" class="s7" d="m1361.79 1102.38h-107.62c-1.02 0-1.85-0.83-1.85-1.85v-11.02c0-1.02 0.83-1.85 1.85-1.85h107.62c1.02 0 1.85 0.83 1.85 1.85v11.02c0 1.02-0.83 1.85-1.85 1.85z"/>
					</g>
					<g id="&lt;Group&gt;">
						<path id="&lt;Path&gt;" class="s7" d="m1484.23 1102.38h-107.62c-1.01 0-1.85-0.83-1.85-1.85v-11.02c0-1.02 0.84-1.85 1.85-1.85h107.62c1.02 0 1.85 0.83 1.85 1.85v11.02c0 1.02-0.83 1.85-1.85 1.85z"/>
					</g>
					<g id="&lt;Group&gt;">
						<path id="&lt;Path&gt;" class="s7" d="m1421.4 1131.33h-167.23c-1.02 0-1.85-0.83-1.85-1.85v-11.02c0-1.02 0.83-1.85 1.85-1.85h167.23c1.02 0 1.85 0.83 1.85 1.85v11.02c0 1.02-0.83 1.85-1.85 1.85z"/>
					</g>
				</g>
				<g id="&lt;Group&gt;">
					<g id="&lt;Group&gt;">
						<path id="&lt;Path&gt;" class="s11" d="m1696.41 1048.69h-118.01c-1.12 0-2.03-0.91-2.03-2.03v-12.09c0-1.11 0.91-2.03 2.03-2.03h118.01c1.12 0 2.03 0.92 2.03 2.03v12.09c0 1.12-0.91 2.03-2.03 2.03z"/>
					</g>
					<g id="&lt;Group&gt;">
						<path id="&lt;Path&gt;" class="s7" d="m1726.9 1079.01h-148.68c-1.02 0-1.85-0.83-1.85-1.85v-11.02c0-1.02 0.83-1.85 1.85-1.85h148.68c1.02 0 1.85 0.83 1.85 1.85v11.02c0 1.02-0.83 1.85-1.85 1.85z"/>
					</g>
					<g id="&lt;Group&gt;">
						<path id="&lt;Path&gt;" class="s7" d="m1819.5 1079.01h-79.85c-1.02 0-1.85-0.83-1.85-1.85v-11.02c0-1.02 0.83-1.85 1.85-1.85h79.85c1.02 0 1.86 0.83 1.86 1.85v11.02c0 1.02-0.84 1.85-1.86 1.85z"/>
					</g>
					<g id="&lt;Group&gt;">
						<path id="&lt;Path&gt;" class="s7" d="m1685.84 1107.96h-107.62c-1.02 0-1.85-0.83-1.85-1.85v-11.02c0-1.02 0.83-1.85 1.85-1.85h107.62c1.01 0 1.85 0.83 1.85 1.85v11.02c0 1.02-0.84 1.85-1.85 1.85z"/>
					</g>
					<g id="&lt;Group&gt;">
						<path id="&lt;Path&gt;" class="s7" d="m1808.28 1107.96h-107.62c-1.02 0-1.85-0.83-1.85-1.85v-11.02c0-1.02 0.83-1.85 1.85-1.85h107.62c1.01 0 1.85 0.83 1.85 1.85v11.02c0 1.02-0.84 1.85-1.85 1.85z"/>
					</g>
					<g id="&lt;Group&gt;">
						<path id="&lt;Path&gt;" class="s7" d="m2023.33 1107.96h-107.62c-1.01 0-1.85-0.83-1.85-1.85v-11.02c0-1.02 0.84-1.85 1.85-1.85h107.62c1.02 0 1.85 0.83 1.85 1.85v11.02c0 1.02-0.83 1.85-1.85 1.85z"/>
					</g>
				</g>
				<g id="&lt;Group&gt;">
					<g id="&lt;Group&gt;">
						<path id="&lt;Path&gt;" class="s11" d="m2166.99 1121.95h-85.66c-0.81 0-1.48-0.66-1.48-1.47v-8.78c0-0.81 0.67-1.47 1.48-1.47h85.66c0.81 0 1.47 0.66 1.47 1.47v8.78c0 0.81-0.66 1.47-1.47 1.47z"/>
					</g>
					<g id="&lt;Group&gt;">
						<path id="&lt;Path&gt;" class="s7" d="m2067.42 1121.95h-14.5c-0.81 0-1.47-0.66-1.47-1.47v-8.78c0-0.81 0.66-1.47 1.47-1.47h14.5c0.81 0 1.47 0.66 1.47 1.47v8.78c0 0.81-0.66 1.47-1.47 1.47z"/>
					</g>
					<g id="&lt;Group&gt;">
						<path id="&lt;Path&gt;" class="s7" d="m2067.42 1144.48h-14.5c-0.81 0-1.47-0.67-1.47-1.48v-8.77c0-0.81 0.66-1.47 1.47-1.47h14.5c0.81 0 1.47 0.66 1.47 1.47v8.77c0 0.81-0.66 1.48-1.47 1.48z"/>
					</g>
					<g id="&lt;Group&gt;">
						<path id="&lt;Path&gt;" class="s7" d="m2067.42 1167h-14.5c-0.81 0-1.47-0.66-1.47-1.47v-8.77c0-0.81 0.66-1.48 1.47-1.48h14.5c0.81 0 1.47 0.67 1.47 1.48v8.77c0 0.81-0.66 1.47-1.47 1.47z"/>
					</g>
					<g id="&lt;Group&gt;">
						<path id="&lt;Path&gt;" class="s7" d="m2189.12 1143.96h-107.92c-0.74 0-1.35-0.6-1.35-1.34v-8c0-0.74 0.61-1.35 1.35-1.35h107.92c0.74 0 1.34 0.61 1.34 1.35v8c0 0.74-0.6 1.34-1.34 1.34z"/>
					</g>
					<g id="&lt;Group&gt;">
						<path id="&lt;Path&gt;" class="s7" d="m2256.34 1143.96h-57.96c-0.74 0-1.35-0.6-1.35-1.34v-8c0-0.74 0.61-1.35 1.35-1.35h57.96c0.73 0 1.34 0.61 1.34 1.35v8c0 0.74-0.61 1.34-1.34 1.34z"/>
					</g>
					<g id="&lt;Group&gt;">
						<path id="&lt;Path&gt;" class="s7" d="m2159.31 1164.97h-78.11c-0.74 0-1.35-0.6-1.35-1.34v-8c0-0.74 0.61-1.34 1.35-1.34h78.11c0.74 0 1.35 0.6 1.35 1.34v8c0 0.74-0.61 1.34-1.35 1.34z"/>
					</g>
					<g id="&lt;Group&gt;">
						<path id="&lt;Path&gt;" class="s7" d="m2248.19 1164.97h-78.12c-0.74 0-1.34-0.6-1.34-1.34v-8c0-0.74 0.6-1.34 1.34-1.34h78.12c0.73 0 1.34 0.6 1.34 1.34v8c0 0.74-0.61 1.34-1.34 1.34z"/>
					</g>
				</g>
				<g id="&lt;Group&gt;">
					<g id="&lt;Group&gt;">
						<path id="&lt;Path&gt;" class="s11" d="m2166.99 1215.25h-85.66c-0.81 0-1.48-0.66-1.48-1.47v-8.78c0-0.81 0.67-1.47 1.48-1.47h85.66c0.81 0 1.47 0.66 1.47 1.47v8.78c0 0.81-0.66 1.47-1.47 1.47z"/>
					</g>
					<g id="&lt;Group&gt;">
						<path id="&lt;Path&gt;" class="s7" d="m2067.42 1215.25h-14.5c-0.81 0-1.47-0.66-1.47-1.47v-8.78c0-0.81 0.66-1.47 1.47-1.47h14.5c0.81 0 1.47 0.66 1.47 1.47v8.78c0 0.81-0.66 1.47-1.47 1.47z"/>
					</g>
					<g id="&lt;Group&gt;">
						<path id="&lt;Path&gt;" class="s7" d="m2067.42 1237.77h-14.5c-0.81 0-1.47-0.66-1.47-1.47v-8.77c0-0.81 0.66-1.48 1.47-1.48h14.5c0.81 0 1.47 0.67 1.47 1.48v8.77c0 0.81-0.66 1.47-1.47 1.47z"/>
					</g>
					<g id="&lt;Group&gt;">
						<path id="&lt;Path&gt;" class="s7" d="m2067.42 1260.3h-14.5c-0.81 0-1.47-0.66-1.47-1.47v-8.78c0-0.81 0.66-1.47 1.47-1.47h14.5c0.81 0 1.47 0.66 1.47 1.47v8.78c0 0.81-0.66 1.47-1.47 1.47z"/>
					</g>
					<g id="&lt;Group&gt;">
						<path id="&lt;Path&gt;" class="s7" d="m2189.12 1237.26h-107.92c-0.74 0-1.35-0.61-1.35-1.35v-8c0-0.73 0.61-1.34 1.35-1.34h107.92c0.74 0 1.34 0.61 1.34 1.34v8c0 0.74-0.6 1.35-1.34 1.35z"/>
					</g>
					<g id="&lt;Group&gt;">
						<path id="&lt;Path&gt;" class="s7" d="m2256.34 1237.26h-57.96c-0.74 0-1.35-0.61-1.35-1.35v-8c0-0.73 0.61-1.34 1.35-1.34h57.96c0.73 0 1.34 0.61 1.34 1.34v8c0 0.74-0.61 1.35-1.34 1.35z"/>
					</g>
					<g id="&lt;Group&gt;">
						<path id="&lt;Path&gt;" class="s7" d="m2159.31 1258.27h-78.11c-0.74 0-1.35-0.6-1.35-1.34v-8c0-0.74 0.61-1.35 1.35-1.35h78.11c0.74 0 1.35 0.61 1.35 1.35v8c0 0.74-0.61 1.34-1.35 1.34z"/>
					</g>
					<g id="&lt;Group&gt;">
						<path id="&lt;Path&gt;" class="s7" d="m2248.19 1258.27h-78.12c-0.74 0-1.34-0.6-1.34-1.34v-8c0-0.74 0.6-1.35 1.34-1.35h78.12c0.73 0 1.34 0.61 1.34 1.35v8c0 0.74-0.61 1.34-1.34 1.34z"/>
					</g>
				</g>
				<g id="&lt;Group&gt;">
					<g id="&lt;Group&gt;">
						<path id="&lt;Path&gt;" class="s8" d="m2166.99 1308.55h-85.66c-0.81 0-1.48-0.67-1.48-1.48v-8.77c0-0.81 0.67-1.47 1.48-1.47h85.66c0.81 0 1.47 0.66 1.47 1.47v8.77c0 0.81-0.66 1.48-1.47 1.48z"/>
					</g>
					<g id="&lt;Group&gt;">
						<path id="&lt;Path&gt;" class="s7" d="m2067.42 1308.55h-14.5c-0.81 0-1.47-0.67-1.47-1.48v-8.77c0-0.81 0.66-1.47 1.47-1.47h14.5c0.81 0 1.47 0.66 1.47 1.47v8.77c0 0.81-0.66 1.48-1.47 1.48z"/>
					</g>
					<g id="&lt;Group&gt;">
						<path id="&lt;Path&gt;" class="s7" d="m2067.42 1331.07h-14.5c-0.81 0-1.47-0.66-1.47-1.47v-8.78c0-0.81 0.66-1.47 1.47-1.47h14.5c0.81 0 1.47 0.66 1.47 1.47v8.78c0 0.81-0.66 1.47-1.47 1.47z"/>
					</g>
					<g id="&lt;Group&gt;">
						<path id="&lt;Path&gt;" class="s7" d="m2067.42 1353.6h-14.5c-0.81 0-1.47-0.67-1.47-1.48v-8.77c0-0.81 0.66-1.47 1.47-1.47h14.5c0.81 0 1.47 0.66 1.47 1.47v8.77c0 0.81-0.66 1.48-1.47 1.48z"/>
					</g>
					<g id="&lt;Group&gt;">
						<path id="&lt;Path&gt;" class="s7" d="m2189.12 1330.56h-107.92c-0.74 0-1.35-0.61-1.35-1.35v-8c0-0.74 0.61-1.34 1.35-1.34h107.92c0.74 0 1.34 0.6 1.34 1.34v8c0 0.74-0.6 1.35-1.34 1.35z"/>
					</g>
					<g id="&lt;Group&gt;">
						<path id="&lt;Path&gt;" class="s7" d="m2256.34 1330.56h-57.96c-0.74 0-1.35-0.61-1.35-1.35v-8c0-0.74 0.61-1.34 1.35-1.34h57.96c0.73 0 1.34 0.6 1.34 1.34v8c0 0.74-0.61 1.35-1.34 1.35z"/>
					</g>
					<g id="&lt;Group&gt;">
						<path id="&lt;Path&gt;" class="s7" d="m2159.31 1351.57h-78.11c-0.74 0-1.35-0.61-1.35-1.35v-8c0-0.74 0.61-1.34 1.35-1.34h78.11c0.74 0 1.35 0.6 1.35 1.34v8c0 0.74-0.61 1.35-1.35 1.35z"/>
					</g>
					<g id="&lt;Group&gt;">
						<path id="&lt;Path&gt;" class="s7" d="m2248.19 1351.57h-78.12c-0.74 0-1.34-0.61-1.34-1.35v-8c0-0.74 0.6-1.34 1.34-1.34h78.12c0.73 0 1.34 0.6 1.34 1.34v8c0 0.74-0.61 1.35-1.34 1.35z"/>
					</g>
				</g>
				<g id="&lt;Group&gt;">
					<g id="&lt;Group&gt;">
						<path id="&lt;Path&gt;" class="s8" d="m2166.99 1401.84h-85.66c-0.81 0-1.48-0.66-1.48-1.47v-8.77c0-0.81 0.67-1.48 1.48-1.48h85.66c0.81 0 1.47 0.67 1.47 1.48v8.77c0 0.81-0.66 1.47-1.47 1.47z"/>
					</g>
					<g id="&lt;Group&gt;">
						<path id="&lt;Path&gt;" class="s7" d="m2067.42 1401.84h-14.5c-0.81 0-1.47-0.66-1.47-1.47v-8.77c0-0.81 0.66-1.48 1.47-1.48h14.5c0.81 0 1.47 0.67 1.47 1.48v8.77c0 0.81-0.66 1.47-1.47 1.47z"/>
					</g>
					<g id="&lt;Group&gt;">
						<path id="&lt;Path&gt;" class="s7" d="m2067.42 1424.37h-14.5c-0.81 0-1.47-0.66-1.47-1.47v-8.78c0-0.81 0.66-1.47 1.47-1.47h14.5c0.81 0 1.47 0.66 1.47 1.47v8.78c0 0.81-0.66 1.47-1.47 1.47z"/>
					</g>
					<g id="&lt;Group&gt;">
						<path id="&lt;Path&gt;" class="s7" d="m2067.42 1446.89h-14.5c-0.81 0-1.47-0.66-1.47-1.47v-8.77c0-0.81 0.66-1.48 1.47-1.48h14.5c0.81 0 1.47 0.67 1.47 1.48v8.77c0 0.81-0.66 1.47-1.47 1.47z"/>
					</g>
					<g id="&lt;Group&gt;">
						<path id="&lt;Path&gt;" class="s7" d="m2189.12 1423.85h-107.92c-0.74 0-1.35-0.6-1.35-1.34v-8c0-0.74 0.61-1.35 1.35-1.35h107.92c0.74 0 1.34 0.61 1.34 1.35v8c0 0.74-0.6 1.34-1.34 1.34z"/>
					</g>
					<g id="&lt;Group&gt;">
						<path id="&lt;Path&gt;" class="s7" d="m2256.34 1423.85h-57.96c-0.74 0-1.35-0.6-1.35-1.34v-8c0-0.74 0.61-1.35 1.35-1.35h57.96c0.73 0 1.34 0.61 1.34 1.35v8c0 0.74-0.61 1.34-1.34 1.34z"/>
					</g>
					<g id="&lt;Group&gt;">
						<path id="&lt;Path&gt;" class="s7" d="m2159.31 1444.86h-78.11c-0.74 0-1.35-0.6-1.35-1.34v-8c0-0.74 0.61-1.34 1.35-1.34h78.11c0.74 0 1.35 0.6 1.35 1.34v8c0 0.74-0.61 1.34-1.35 1.34z"/>
					</g>
					<g id="&lt;Group&gt;">
						<path id="&lt;Path&gt;" class="s7" d="m2248.19 1444.86h-78.12c-0.74 0-1.34-0.6-1.34-1.34v-8c0-0.74 0.6-1.34 1.34-1.34h78.12c0.73 0 1.34 0.6 1.34 1.34v8c0 0.74-0.61 1.34-1.34 1.34z"/>
					</g>
				</g>
				<g id="&lt;Group&gt;">
					<g id="&lt;Group&gt;">
						<path id="&lt;Path&gt;" class="s11" d="m2182.38 1042.73h-118.01c-1.12 0-2.03-0.92-2.03-2.03v-12.09c0-1.12 0.91-2.03 2.03-2.03h118.01c1.12 0 2.03 0.91 2.03 2.03v12.09c0 1.11-0.91 2.03-2.03 2.03z"/>
					</g>
				</g>
				<g id="&lt;Group&gt;">
					<g id="&lt;Group&gt;" style="opacity: .23">
						<path id="&lt;Path&gt;" class="s10" d="m1372.37 1181.57h-118.02c-1.11 0-2.03-0.91-2.03-2.03v-12.09c0-1.11 0.92-2.03 2.03-2.03h118.02c1.11 0 2.03 0.92 2.03 2.03v12.09c0 1.12-0.92 2.03-2.03 2.03z"/>
					</g>
					<g id="&lt;Group&gt;">
						<path id="&lt;Path&gt;" class="s7" d="m1402.85 1211.89h-148.68c-1.02 0-1.85-0.83-1.85-1.85v-11.02c0-1.02 0.83-1.85 1.85-1.85h148.68c1.02 0 1.85 0.83 1.85 1.85v11.02c0 1.02-0.83 1.85-1.85 1.85z"/>
					</g>
					<g id="&lt;Group&gt;">
						<path id="&lt;Path&gt;" class="s7" d="m1495.46 1211.89h-79.85c-1.02 0-1.85-0.83-1.85-1.85v-11.02c0-1.02 0.83-1.85 1.85-1.85h79.85c1.02 0 1.85 0.83 1.85 1.85v11.02c0 1.02-0.83 1.85-1.85 1.85z"/>
					</g>
					<g id="&lt;Group&gt;">
						<path id="&lt;Path&gt;" class="s7" d="m1361.79 1240.84h-107.62c-1.02 0-1.85-0.83-1.85-1.85v-11.02c0-1.02 0.83-1.86 1.85-1.86h107.62c1.02 0 1.85 0.84 1.85 1.86v11.02c0 1.02-0.83 1.85-1.85 1.85z"/>
					</g>
					<g id="&lt;Group&gt;">
						<path id="&lt;Path&gt;" class="s7" d="m1484.23 1240.84h-107.62c-1.01 0-1.85-0.83-1.85-1.85v-11.02c0-1.02 0.84-1.86 1.85-1.86h107.62c1.02 0 1.85 0.84 1.85 1.86v11.02c0 1.02-0.83 1.85-1.85 1.85z"/>
					</g>
					<g id="&lt;Group&gt;">
						<path id="&lt;Path&gt;" class="s7" d="m1421.4 1269.79h-167.23c-1.02 0-1.85-0.84-1.85-1.85v-11.03c0-1.01 0.83-1.85 1.85-1.85h167.23c1.02 0 1.85 0.84 1.85 1.85v11.03c0 1.01-0.83 1.85-1.85 1.85z"/>
					</g>
				</g>
				<g id="&lt;Group&gt;">
					<g id="&lt;Group&gt;" style="opacity: .23">
						<path id="&lt;Path&gt;" class="s10" d="m1372.37 1320.03h-118.02c-1.11 0-2.03-0.92-2.03-2.03v-12.09c0-1.12 0.92-2.03 2.03-2.03h118.02c1.11 0 2.03 0.91 2.03 2.03v12.09c0 1.11-0.92 2.03-2.03 2.03z"/>
					</g>
					<g id="&lt;Group&gt;">
						<path id="&lt;Path&gt;" class="s7" d="m1402.85 1350.35h-148.68c-1.02 0-1.85-0.83-1.85-1.85v-11.03c0-1.01 0.83-1.85 1.85-1.85h148.68c1.02 0 1.85 0.84 1.85 1.85v11.03c0 1.02-0.83 1.85-1.85 1.85z"/>
					</g>
					<g id="&lt;Group&gt;">
						<path id="&lt;Path&gt;" class="s7" d="m1495.46 1350.35h-79.85c-1.02 0-1.85-0.83-1.85-1.85v-11.03c0-1.01 0.83-1.85 1.85-1.85h79.85c1.02 0 1.85 0.84 1.85 1.85v11.03c0 1.02-0.83 1.85-1.85 1.85z"/>
					</g>
					<g id="&lt;Group&gt;">
						<path id="&lt;Path&gt;" class="s7" d="m1361.79 1379.3h-107.62c-1.02 0-1.85-0.84-1.85-1.86v-11.02c0-1.02 0.83-1.85 1.85-1.85h107.62c1.02 0 1.85 0.83 1.85 1.85v11.02c0 1.02-0.83 1.86-1.85 1.86z"/>
					</g>
					<g id="&lt;Group&gt;">
						<path id="&lt;Path&gt;" class="s7" d="m1484.23 1379.3h-107.62c-1.01 0-1.85-0.84-1.85-1.86v-11.02c0-1.02 0.84-1.85 1.85-1.85h107.62c1.02 0 1.85 0.83 1.85 1.85v11.02c0 1.02-0.83 1.86-1.85 1.86z"/>
					</g>
					<g id="&lt;Group&gt;">
						<path id="&lt;Path&gt;" class="s7" d="m1421.4 1408.24h-167.23c-1.02 0-1.85-0.83-1.85-1.85v-11.02c0-1.02 0.83-1.85 1.85-1.85h167.23c1.02 0 1.85 0.83 1.85 1.85v11.02c0 1.02-0.83 1.85-1.85 1.85z"/>
					</g>
				</g>
				<g id="&lt;Group&gt;">
					<g id="&lt;Group&gt;" style="opacity: .23">
						<path id="&lt;Path&gt;" class="s10" d="m1372.37 1458.48h-118.02c-1.11 0-2.03-0.91-2.03-2.03v-12.08c0-1.12 0.92-2.03 2.03-2.03h118.02c1.11 0 2.03 0.91 2.03 2.03v12.08c0 1.12-0.92 2.03-2.03 2.03z"/>
					</g>
					<g id="&lt;Group&gt;">
						<path id="&lt;Path&gt;" class="s7" d="m1402.85 1488.81h-148.68c-1.02 0-1.85-0.84-1.85-1.86v-11.02c0-1.02 0.83-1.85 1.85-1.85h148.68c1.02 0 1.85 0.83 1.85 1.85v11.02c0 1.02-0.83 1.86-1.85 1.86z"/>
					</g>
					<g id="&lt;Group&gt;">
						<path id="&lt;Path&gt;" class="s7" d="m1495.46 1488.81h-79.85c-1.02 0-1.85-0.84-1.85-1.86v-11.02c0-1.02 0.83-1.85 1.85-1.85h79.85c1.02 0 1.85 0.83 1.85 1.85v11.02c0 1.02-0.83 1.86-1.85 1.86z"/>
					</g>
					<g id="&lt;Group&gt;">
						<path id="&lt;Path&gt;" class="s7" d="m1361.79 1517.75h-107.62c-1.02 0-1.85-0.83-1.85-1.85v-11.02c0-1.02 0.83-1.85 1.85-1.85h107.62c1.02 0 1.85 0.83 1.85 1.85v11.02c0 1.02-0.83 1.85-1.85 1.85z"/>
					</g>
					<g id="&lt;Group&gt;">
						<path id="&lt;Path&gt;" class="s7" d="m1484.23 1517.75h-107.62c-1.01 0-1.85-0.83-1.85-1.85v-11.02c0-1.02 0.84-1.85 1.85-1.85h107.62c1.02 0 1.85 0.83 1.85 1.85v11.02c0 1.02-0.83 1.85-1.85 1.85z"/>
					</g>
					<g id="&lt;Group&gt;">
						<path id="&lt;Path&gt;" class="s7" d="m1421.4 1546.7h-167.23c-1.02 0-1.85-0.83-1.85-1.85v-11.02c0-1.02 0.83-1.85 1.85-1.85h167.23c1.02 0 1.85 0.83 1.85 1.85v11.02c0 1.02-0.83 1.85-1.85 1.85z"/>
					</g>
				</g>
				<g id="&lt;Group&gt;">
					<g id="&lt;Group&gt;">
						<path id="&lt;Path&gt;" class="s7" d="m2030.79 1168.53h-479.74v-44.56h479.74z"/>
					</g>
					<g id="&lt;Group&gt;">
						<path id="&lt;Path&gt;" class="s12" d="m2019.21 1226.11h-427.65v-36.03h427.65z"/>
					</g>
					<g id="&lt;Group&gt;">
						<path id="&lt;Path&gt;" class="s12" d="m2019.21 1273.08h-427.65v-36.04h427.65z"/>
					</g>
					<path id="&lt;Path&gt;" class="s13" d="m2030.79 1281.48h-448.16v-99.13h448.16z"/>
					<g id="&lt;Group&gt;">
						<path id="&lt;Path&gt;" class="s7" d="m1726.9 1330.43h-148.68c-1.02 0-1.85-0.83-1.85-1.85v-11.02c0-1.02 0.83-1.85 1.85-1.85h148.68c1.02 0 1.85 0.83 1.85 1.85v11.02c0 1.02-0.83 1.85-1.85 1.85z"/>
					</g>
					<path id="&lt;Path&gt;" class="s7" d="m1887.92 1318.56c0 7.51-6.09 13.6-13.6 13.6-7.52 0-13.61-6.09-13.61-13.6 0-7.51 6.09-13.6 13.61-13.6 7.51 0 13.6 6.09 13.6 13.6z"/>
					<path id="&lt;Path&gt;" class="s7" d="m1928.72 1318.56c0 7.51-6.09 13.6-13.6 13.6-7.51 0-13.6-6.09-13.6-13.6 0-7.51 6.09-13.6 13.6-13.6 7.51 0 13.6 6.09 13.6 13.6z"/>
					<path id="&lt;Path&gt;" class="s7" d="m1969.52 1318.56c0 7.51-6.09 13.6-13.6 13.6-7.51 0-13.6-6.09-13.6-13.6 0-7.51 6.09-13.6 13.6-13.6 7.51 0 13.6 6.09 13.6 13.6z"/>
					<path id="&lt;Path&gt;" class="s7" d="m2010.33 1318.56c0 7.51-6.09 13.6-13.6 13.6-7.52 0-13.61-6.09-13.61-13.6 0-7.51 6.09-13.6 13.61-13.6 7.51 0 13.6 6.09 13.6 13.6z"/>
				</g>
				<g id="&lt;Group&gt;">
					<g id="&lt;Group&gt;">
						<path id="&lt;Path&gt;" class="s7" d="m2030.79 1398.95h-479.74v-44.56h479.74z"/>
					</g>
					<g id="&lt;Group&gt;">
						<path id="&lt;Path&gt;" class="s12" d="m2019.21 1456.53h-427.65v-36.03h427.65z"/>
					</g>
					<g id="&lt;Group&gt;">
						<path id="&lt;Path&gt;" class="s12" d="m2019.21 1503.5h-427.65v-36.04h427.65z"/>
					</g>
					<path id="&lt;Path&gt;" class="s13" d="m2030.79 1511.9h-448.16v-99.13h448.16z"/>
					<g id="&lt;Group&gt;">
						<path id="&lt;Path&gt;" class="s7" d="m1726.9 1560.85h-148.68c-1.02 0-1.85-0.83-1.85-1.85v-11.02c0-1.02 0.83-1.86 1.85-1.86h148.68c1.02 0 1.85 0.84 1.85 1.86v11.02c0 1.02-0.83 1.85-1.85 1.85z"/>
					</g>
					<path id="&lt;Path&gt;" class="s7" d="m1887.92 1548.98c0 7.51-6.09 13.6-13.6 13.6-7.52 0-13.61-6.09-13.61-13.6 0-7.51 6.09-13.6 13.61-13.6 7.51 0 13.6 6.09 13.6 13.6z"/>
					<path id="&lt;Path&gt;" class="s7" d="m1928.72 1548.98c0 7.51-6.09 13.6-13.6 13.6-7.51 0-13.6-6.09-13.6-13.6 0-7.51 6.09-13.6 13.6-13.6 7.51 0 13.6 6.09 13.6 13.6z"/>
					<path id="&lt;Path&gt;" class="s7" d="m1969.52 1548.98c0 7.51-6.09 13.6-13.6 13.6-7.51 0-13.6-6.09-13.6-13.6 0-7.51 6.09-13.6 13.6-13.6 7.51 0 13.6 6.09 13.6 13.6z"/>
					<path id="&lt;Path&gt;" class="s7" d="m2010.33 1548.98c0 7.51-6.09 13.6-13.6 13.6-7.52 0-13.61-6.09-13.61-13.6 0-7.51 6.09-13.6 13.61-13.6 7.51 0 13.6 6.09 13.6 13.6z"/>
				</g>
				<path id="&lt;Path&gt;" class="s13" d="m2254.74 1092.69h-192.4v-32.43h192.4z"/>
				<g id="&lt;Group&gt;">
					<path id="&lt;Path&gt;" class="s7" d="m2267.55 1514.47h-222.41v-37.99h222.41z"/>
				</g>
				<g id="&lt;Group&gt;">
					<path id="&lt;Path&gt;" class="s12" d="m2267.55 1555.98h-222.41v-28.09h222.41z"/>
				</g>
				<g id="&lt;Group&gt;">
					<path id="&lt;Path&gt;" class="s12" d="m2267.55 1588.26h-222.41v-28.09h222.41z"/>
				</g>
			</g>
			<g id="&lt;Group&gt;">
				<path id="&lt;Path&gt;" class="s14" d="m1744.97 1125.61l4.66 19.46c0 0-2.54 9.4-16.09 10-13.55 0.59-19.05-8.3-19.05-8.3l1.69-27.89z"/>
				<path id="&lt;Path&gt;" class="s15" d="m1834.49 1094.7v16.94c0 0 10.39 4.98 22.25 4.39 11.85-0.58 16.51-10.64 16.51-10.64l-13.97-20.54z"/>
				<g id="&lt;Group&gt;">
					<g id="&lt;Group&gt;">
						<path id="&lt;Compound Path&gt;" fill-rule="evenodd" class="s12" d="m2126.79 735.94c-16.74 14.97-99.57 25.85-99.57 25.85v32.04c0 0-41.06 17.01-118.89 11.88-77.82-5.2-69.7-23.64-69.7-23.64l4.58-108.37-24.19 40.92-29.39-5.74c0 0 45.68-164.1 51.43-168.47 20.93-16.07 63.61-27.4 63.61-27.4 0 0 3.2 21.76 30.87 17.73 27.67-4.03 24.19-21.32 24.19-21.32 0 0 66.75 12.1 77.69 14.42 10.99 2.32 48.44 89.93 66.89 123.95 18.45 33.97 39.16 73.19 22.48 88.15zm-65.95-37.06l-27.92-74.01-4.6 86.78z"/>
					</g>
				</g>
				<g id="&lt;Group&gt;">
					<path id="&lt;Path&gt;" class="s16" d="m1871.6 420.12c0 0-0.89 27.76 2.85 33.54 3.74 5.78 5.84 5.81 3.8 10.23-2.04 4.42-2.49 10.43 3.97 24.37 6.46 13.93 10.36 18.63 16.48 19.65 6.12 1.02 9.81-1.86 9.81-1.86l-3.67 10.47c0 0 2.07 12.97 27.35 12.64 25.28-0.34 33.13-17.77 33.13-17.77l-3.16-30.24c0 0 20.8-35.28 12.98-50.92-7.81-15.64-45.55-21.42-45.55-21.42z"/>
					<path id="&lt;Path&gt;" class="s17" d="m1908.51 506.05c0 0 8.26 0.64 20.89-6 12.64-6.64 22.17-14.28 22.17-14.28 0 0-9.86 9.42-15.85 16.7-6 7.28-11.13 26.33-11.13 26.33 0 0-7.07-1.06-12.21-2.77-5.14-1.71-7.08-8.05-7.08-8.05z"/>
					<g id="&lt;Group&gt;">
						<path id="&lt;Path&gt;" class="s2" d="m1863.28 426.8c0 0 12.91 14.57 38.03 12.04 25.12-2.54 32.26-7.27 34.34-7.44 2.07-0.16-0.92 13.89 4.61 15.97 5.53 2.07 6.22 2.07 7.14 6.45 0.92 4.38 3.27 12.79 3.27 12.79l5.1-2.72c0 0 0.39-18.29 7.53-17.18 7.14 1.1-2.65 22.05-0.75 23.68 1.9 1.63 16.87-17.49 18.72-27.4 1.85-9.91 4.27-21.33-2.93-32.21-7.2-10.89-14.35-11.12-14.35-11.12 0 0-6.66-21.76-46.31-18.83-39.64 2.93-53.5 30.25-54.4 45.97z"/>
					</g>
				</g>
				<g id="&lt;Group&gt;">
					<path id="&lt;Path&gt;" class="s2" d="m2015.28 797.26v45.77c0 19.72-15.41 36-35.1 37.07l-212.39 11.63 94.45 193.12c0 0 9.8 3.16-10.22 12.03-20.02 8.86-20.26 1.62-20.26 1.62l-63.97-89.24-18.59 116.35c0 0-4.23 8.89-19.47 8.89-11.01 0-16.51-7.2-16.51-7.2l-31-225.24c0 0-44.92-57.3-38.71-86.3 6.22-29 26.93-37.28 65.59-35.21 38.67 2.07 129.93 5.76 129.93 5.76 0 0 43.29 18.28 176.25 10.95z"/>
				</g>
				<path id="&lt;Path&gt;" class="s18" d="m1900.28 802.47l-51.34-123.21h-175.86l51.34 123.21z"/>
				<path id="&lt;Path&gt;" class="s5" d="m1848.94 679.26l4.84-2.46 50.04 119.89-3.54 5.78z"/>
				<path id="&lt;Path&gt;" class="s5" d="m1673.08 679.26l5.37-2.46h175.33l-4.84 2.46z"/>
				<g id="&lt;Group&gt;" style="opacity: .25">
					<path id="&lt;Path&gt;" class="s1" d="m1767.79 891.73c0 0 5.37 25.95 5.9 52.23 0.54 26.28-10.3 65.3-5.9 65.3 4.39 0 66.7 91.78 66.7 91.78 0 0-56.68-93.36-55.79-101.39 0.88-8.03 3.49-32.05 5.17-53.55 1.68-21.5-2.49-29.22-2.49-29.22z"/>
				</g>
				<g id="&lt;Group&gt;" style="opacity: .25">
					<path id="&lt;Path&gt;" class="s1" d="m1721.79 796.16c0 0-25.2 5.91-32.16 37.5-6.96 31.59-7.41 68.4-7.41 68.4l-9.14-13.15c0 0-3.31-44.7 12.24-70.25 15.24-25.03 34.29-27.75 34.29-27.75z"/>
				</g>
				<path id="&lt;Path&gt;" class="s19" d="m1841.38 676.8c0 0 9.99-70.38 12.4-80.25 2.41-9.87 6.64-15.16 6.64-15.16l-6.64 95.41z"/>
				<path id="&lt;Path&gt;" class="s19" d="m2032.92 624.87c0 0-9.52-21.85-11.42-30.88-1.91-9.04-1.91-9.04-1.91-9.04 0 0-4.82 125.57-4.31 128.9 0.51 3.33-71.79 35.2-71.79 35.2l84.83-37.4z"/>
				<path id="&lt;Path&gt;" class="s19" d="m2027.22 761.79l-59 15.8c0 0 49.47-8.09 52.8-3.81 3.33 4.28 0 22.36 0 22.36l6.2-2.31z"/>
				<path id="&lt;Path&gt;" class="s5" d="m1902.57 511.68l28.57 18.01-20.18 14.29-17.31-29.54z"/>
				<path id="&lt;Path&gt;" class="s5" d="m1965.66 509.42l-34.52 21.32 14.52 14.57 29.39-32.3z"/>
				<g id="&lt;Group&gt;">
					<path id="&lt;Path&gt;" class="s3" d="m1931.62 529.16l-12.23 12.58h4.18l-24.91 213.93 11.38 17.17 23.81-12.91 5.12-216.48h4.52z"/>
				</g>
				<path id="&lt;Path&gt;" class="s5" d="m1900.28 802.47h115z"/>
				<path id="&lt;Path&gt;" class="s5" d="m1903.82 796.69h111.46v5.78h-115z"/>
				<path id="&lt;Path&gt;" class="s20" d="m1949.7 752.68c0 0 5.53 0 11.57 7.52 6.05 7.52 4.75 17.37 4.75 17.37 0 0-14.51 9.84-28.51 6.73-13.99-3.11-35.54 7.95-35.54 7.95l-5.55-13.28c0 0 20.85-15.14 34.86-21.62 14.01-6.48 18.42-4.67 18.42-4.67z"/>
				<g id="&lt;Group&gt;">
					<path id="&lt;Path&gt;" class="s2" d="m1750.49 1137.32c0 0-6.3 9.58-20.13 9.18-13.82-0.4-18.27-7.81-19.89-3.09-1.61 4.71-1.61 30.58-19.81 41.9-18.19 11.32-3.01 23.39-3.01 23.39 0 0 73.24-50.48 72.69-56.14-0.55-5.66-9.85-15.24-9.85-15.24z"/>
				</g>
				<g id="&lt;Group&gt;">
					<path id="&lt;Path&gt;" class="s2" d="m1872.47 1101.63c0 0-6.3 9.58-20.13 9.18-13.83-0.4-18.28-7.81-19.89-3.09-1.62 4.71-1.62 30.58-19.81 41.9-18.19 11.32-3.02 23.39-3.02 23.39 0 0 73.24-50.48 72.7-56.14-0.55-5.66-9.85-15.24-9.85-15.24z"/>
				</g>
				<g id="&lt;Group&gt;" style="opacity: .25">
					<path id="&lt;Path&gt;" class="s1" d="m1724.42 802.47h290.86v31.24c0 0-7.91-21.17-12.97-21.63-5.07-0.46-274.33-1.07-277.89-9.61z"/>
				</g>
			</g>
			<g id="&lt;Group&gt;">
				<g id="&lt;Group&gt;">
					<path id="&lt;Path&gt;" class="s21" d="m704.91 675.41h-207.76c-52.63 0-95.3 42.67-95.3 95.31v119.62c0 14.7 11.91 26.61 26.61 26.61h68.69 95.31 128.85z"/>
					<path id="&lt;Path&gt;" class="s22" d="m704.91 675.41c-52.63 0-95.3 42.67-95.3 95.31v146.23h190.61v-146.23c0-52.64-42.67-95.31-95.31-95.31z"/>
					<path id="&lt;Path&gt;" class="s23" d="m783.09 770.74v129.06h-19.56v-129.06c0-39.8-29.9-72.73-68.33-77.54 3.2-0.4 6.4-0.63 9.72-0.63 43.06 0 78.17 35.06 78.17 78.17z"/>
					<path id="&lt;Path&gt;" class="s24" d="m763.53 770.74v129.06h-136.78v-129.06c0-39.8 29.91-72.79 68.45-77.54 38.43 4.81 68.33 37.74 68.33 77.54z"/>
					<g id="&lt;Group&gt;">
						<path id="&lt;Path&gt;" class="s2" d="m643.15 767.41c0 6.98 5.66 12.64 12.64 12.64h78.56c6.98 0 12.64-5.66 12.64-12.64 0-6.99-5.66-12.64-12.64-12.64h-78.56c-6.98 0-12.64 5.65-12.64 12.64z"/>
					</g>
					<path id="&lt;Path&gt;" class="s25" d="m817.91 916.95h-208.3v-17.15h208.3z"/>
				</g>
				<path id="&lt;Path&gt;" class="s26" d="m626.75 1617.09h-17.14v-700.14h17.14z"/>
				<path id="&lt;Path&gt;" class="s27" d="m654.05 940.65h-71.74c-2.76 0-4.99-2.24-4.99-4.99v-18.71h81.72v18.71c0 2.75-2.23 4.99-4.99 4.99z"/>
			</g>
			<g id="&lt;Group&gt;">
				<g id="&lt;Group&gt;">
					<path id="&lt;Path&gt;" class="s2" d="m865.88 1503.27v-459.29c0-7.38 5.98-13.36 13.35-13.36h683.6c7.37 0 13.35 5.98 13.35 13.36v459.29c0 7.37-5.98 13.35-13.35 13.35h-683.6c-7.37 0-13.35-5.98-13.35-13.35z"/>
				</g>
				<path id="&lt;Path&gt;" class="s5" d="m1553.29 1502.36h-664.52c-4.77 0-8.63-3.86-8.63-8.63v-440.21c0-4.77 3.86-8.64 8.63-8.64h664.52c4.77 0 8.63 3.87 8.63 8.64v440.21c0 4.77-3.86 8.63-8.63 8.63z"/>
				<g id="&lt;Group&gt;">
					<path id="&lt;Path&gt;" class="s2" d="m1376.46 1544.19h-296.79v-60.56h296.79z"/>
				</g>
				<path id="&lt;Path&gt;" class="s28" d="m1079.67 1544.19l-102.82 322.02h4.85l115.43-322.02z"/>
				<path id="&lt;Path&gt;" class="s29" d="m1368.7 1544.19l102.82 322.02h-4.85l-115.42-322.02z"/>
				<path id="&lt;Path&gt;" class="s30" d="m1216.66 1544.19l4.37 322.02h7.04l4.36-322.02z"/>
				<g id="&lt;Group&gt;">
					<path id="&lt;Path&gt;" class="s2" d="m1298.96 1074.6h-155.86c-2.1 0-3.81-1.71-3.81-3.81v-57.04c0-2.1 1.71-3.8 3.81-3.8h155.86c2.1 0 3.81 1.7 3.81 3.8v57.04c0 2.1-1.71 3.81-3.81 3.81z"/>
				</g>
				<path id="&lt;Path&gt;" class="s31" d="m1275.7 1027.78h-109.34c-1.82 0-3.29-1.47-3.29-3.29v-42.46c0-1.82 1.47-3.29 3.29-3.29h109.34c1.82 0 3.29 1.47 3.29 3.29v42.46c0 1.82-1.47 3.29-3.29 3.29z"/>
				<path id="&lt;Path&gt;" class="s32" d="m952.66 1140.82v263.38h398.59"/>
				<g id="&lt;Group&gt;">
					<path id="&lt;Path&gt;" class="s11" d="m1066.73 1301.04h-58.25v88.95h58.25z"/>
				</g>
				<g id="&lt;Group&gt;">
					<path id="&lt;Path&gt;" class="s33" d="m1151.95 1246.54h-58.25v143.45h58.25z"/>
				</g>
				<g id="&lt;Group&gt;">
					<path id="&lt;Path&gt;" class="s11" d="m1237.17 1212.09h-58.25v177.9h58.25z"/>
				</g>
				<g id="&lt;Group&gt;">
					<path id="&lt;Path&gt;" class="s33" d="m1322.39 1160.92h-58.25v229.07h58.25z"/>
				</g>
				<g id="&lt;Group&gt;">
					<path id="&lt;Path&gt;" class="s11" d="m1530.51 1135.2h-138.68v-15.96h138.68z"/>
				</g>
				<g id="&lt;Group&gt;">
					<path id="&lt;Path&gt;" class="s7" d="m1530.51 1176.88h-138.68v-15.96h138.68z"/>
				</g>
				<g id="&lt;Group&gt;">
					<path id="&lt;Path&gt;" class="s7" d="m1530.51 1218.57h-138.68v-15.97h138.68z"/>
				</g>
				<g id="&lt;Group&gt;">
					<path id="&lt;Path&gt;" class="s7" d="m1471.52 1260.25h-79.69v-15.96h79.69z"/>
				</g>
				<g id="&lt;Group&gt;">
					<path id="&lt;Path&gt;" class="s11" d="m1530.51 1306h-138.68v-15.97h138.68z"/>
				</g>
				<g id="&lt;Group&gt;">
					<path id="&lt;Path&gt;" class="s7" d="m1530.51 1347.68h-138.68v-15.96h138.68z"/>
				</g>
				<g id="&lt;Group&gt;">
					<path id="&lt;Path&gt;" class="s7" d="m1530.51 1389.36h-138.68v-15.96h138.68z"/>
				</g>
				<g id="&lt;Group&gt;">
					<path id="&lt;Path&gt;" class="s7" d="m1471.52 1431.04h-79.69v-15.96h79.69z"/>
				</g>
			</g>
			<g id="&lt;Group&gt;">
				<path id="&lt;Path&gt;" class="s34" d="m2514.99 1929c21.86 76.1 27.85 84.56 25.66 109.23-1.61 18.39-3.28 41.82-8.98 55.61-2.04 5.08-4.66 8.84-7.99 10.6-12.4 6.46-21.1 7.03-21.1 15.87 0 8.84 39.55 8.75 52.52-1.28 13.03-10.03 20.68-69.06 26-69.06 5.28 0 7.09 64.31 7.09 64.31l10.02-0.57c0 0 0.58-66.02 0-81.71-0.61-15.69-26-35.13-26-35.13 0 0-4.7-107.42-20.62-159.94-15.93-52.52-27.48-60.46-27.91-68.87-0.42-8.46-74.76 4.94-74.76 4.94 0 0 1.14 10.84 14.16 31.47 12.98 20.67 30.09 48.38 51.91 124.53z"/>
				<g id="&lt;Group&gt;">
					<g id="&lt;Group&gt;">
						<path id="&lt;Path&gt;" class="s2" d="m2467.65 1025.33c0 0 17.87-13.6 40.71-0.22 22.84 13.38 27.07 54.53 7.17 90.31-19.9 35.77 13.24 50.33 13.24 50.33 0 0-44.66 2.47-57.7-15.77-13.05-18.23 8.25-44.24 11.67-72.83 3.42-28.6-15.09-51.82-15.09-51.82z"/>
					</g>
					<path id="&lt;Path&gt;" class="s35" d="m2376.3 1069.62c0 0 0.14 9.31 1.8 14.73 1.66 5.42 2.56 9.55 0.07 12.15-2.49 2.6-5.29 11.67-1.59 25.87 3.69 14.21 5.09 34.63 11.32 37.96 6.22 3.33 27.73-4.46 28.79-0.59 1.05 3.87-3.84 24.77-3.84 24.77 0 0-0.75 3.88 16.33 7.16 17.09 3.27 41.92-10.83 41.92-10.83 0 0-10.4-44.17-7.59-51.43 2.81-7.25-18.71-66.62-21.56-66.87-2.85-0.24-65.65 7.08-65.65 7.08z"/>
					<g id="&lt;Group&gt;">
						<path id="&lt;Path&gt;" class="s2" d="m2372.06 1060.37c-1.21 26.11 53.45 46.81 53.45 46.81 0 0 3.86-16.77 14.2-16.83 10.35-0.05 7.44 9.82 3.54 16.74-3.91 6.91-2.32 28.09 11.98 29.98 14.3 1.9 30.52-5.27 43.13-42.19 12.61-36.92-14.07-51.65-14.07-51.65 0 0-10.48-25.48-51.88-29.2-41.4-3.72-59.47 27.32-60.35 46.34z"/>
					</g>
				</g>
				<path id="&lt;Path&gt;" class="s36" d="m2174.58 1243.42c0 0-18.77-3.42-28.13-10.27-9.36-6.84-18.4-17.92-18.4-17.92 0 0 2.89-3.79 10.42 0.71 7.52 4.51 13.76 3.7 13.76 3.7 0 0-14.97-12.27-24.35-21.06-9.37-8.79-8.51-14.51-5.78-14.75 2.74-0.24 41.6 17.98 45.26 21.46 3.67 3.47 17.95 23.2 17.95 23.2 0 0-8.63 3.71-10.73 14.93z"/>
				<g id="&lt;Group&gt;">
					<path id="&lt;Path&gt;" class="s11" d="m2468.2 1167.64c0 0-12.61 19.92-35.97 17.21-23.35-2.72-16.18-10.5-16.18-10.5 0 0-41.24-3.14-51.43 8.26-10.2 11.39-59.04 97.8-73.53 98.87-14.49 1.08-92.84-55.81-94.45-56.88-1.61-1.08-12.35-3.68-19.33 7.82-6.97 11.5-6.44 22.77-6.44 22.77 0 0 100.9 81.04 117 82.65 16.1 1.61 62.79-41.33 62.79-41.33 0 0 11.81 48.67 9.13 93.57-2.69 44.89-3.22 66.9-3.22 66.9 0 0-6.98 17.17 76.74 24.15 83.72 6.98 85.87-13.95 85.87-13.95v-32.74c0 0 61.18 11.27 65.48-8.05 4.29-19.32-23.61-222.19-43.47-241.51-19.86-19.32-72.99-17.24-72.99-17.24z"/>
				</g>
				<path id="&lt;Path&gt;" class="s37" d="m2513.01 1209.63c0 0-14.68 25.79-7.56 58.69 7.11 32.91 11.56 100.05 20.01 111.17 8.44 11.11 27.56 27.56 27.56 27.56 0 0-36.01-26.23-47.13-27.56-11.11-1.34-97.38-12.01-97.38-12.01 0 0 96.71 7.56 99.27 2.67 2.56-4.89-11.67-95.16-9.89-123.61 1.78-28.46 15.12-36.91 15.12-36.91z"/>
				<path id="&lt;Path&gt;" class="s37" d="m2367.96 1209.63c0 0-30.14 39.27-30.14 48.76 0 9.49 12.84 38.12 12.84 38.12 0 0-43.97 39.16-57.31 40.61-13.34 1.46-19.34-5.73-19.34-5.73 0 0 18.9 4.52 39.79-12.38 20.9-16.89 27.13-16.89 24.46-25.79-2.67-8.89-11.12-28.45-6.67-38.68 4.45-10.23 36.37-44.91 36.37-44.91z"/>
				<path id="&lt;Path&gt;" class="s38" d="m2410.01 1367.33c0 0 1.67 25.15 0 26.17-1.67 1.02-19.75 1.85-26.82-9.26-7.08-11.11-3.75-17.23-16.53-20.56-12.78-3.33-20-3.89-22.22-7.22-2.23-3.34-1.39-4.45-1.39-4.45 0 0 29.87 4.16 34.24 4.16 4.38 0.01 11.88-1.38 17.16 1.4 5.28 2.78 15.56 9.76 15.56 9.76z"/>
				<g id="&lt;Group&gt;">
					<path id="&lt;Path&gt;" class="s2" d="m2359.03 1463.03c0 0-15.96 25.8-16.14 57.76-0.17 31.96 16.14 240.29 16.14 240.29 0 0 33.4 13.02 109.16 11.84 75.76-1.18 108.9-21.31 108.9-21.31 0 0-19.72-7.1-24.07-37.88-4.34-30.77 20.52-118.37 8.68-162.16-11.84-43.8-42.52-84.39-42.52-84.39 0 0-69.27 30.41-160.15-4.15z"/>
				</g>
				<path id="&lt;Path&gt;" class="s39" d="m2353.9 2123.74c-0.62 8.93 17.45 9.36 44.82 9.36 27.33 0 20.35-17.82 29.24-35.03 8.93-17.16 21.67-34.98 28.66-24.81 6.98 10.17 0 59.84 0 59.84h17.2c0 0-0.66-40.73-0.04-61.74 0.47-14.31-9.41-27.43-16.64-39.36h-0.05c-3.37-5.56-6.18-10.93-7.08-16.02-2.8-15.87 5.32-59.79 9.98-132.33 4.66-72.53-20.58-110.65-20.58-110.65-16.54 0-64.31-7.51-64.31-7.51 0 0 0.71 16.97 14.69 43.68 14.02 26.76 22.91 169.26 22.29 182-0.67 12.74-8.94 55.37-17.21 87.17-2.42 9.27-6.79 16.21-11.88 21.63-12.36 13.26-28.61 17.44-29.09 23.77z"/>
				<g id="&lt;Group&gt;">
					<path id="&lt;Path&gt;" class="s2" d="m2353.9 2123.74c-0.62 8.93 17.45 9.36 44.82 9.36 27.33 0 20.35-17.82 29.24-35.03 8.93-17.16 21.67-34.98 28.66-24.81 6.98 10.17 0 59.84 0 59.84h17.2c0 0-0.66-40.73-0.04-61.74 0.47-14.31-9.41-27.43-16.64-39.36h-0.05c0 0-25.19 2.66-31.13 26.09-5.99 23.49-8.98 40.93-22.2 42.64-8.51 1.09-16.3 0.1-20.77-0.76-12.36 13.26-28.61 17.44-29.09 23.77z"/>
				</g>
				<g id="&lt;Group&gt;">
					<path id="&lt;Path&gt;" class="s2" d="m2502.58 2120.31c0 8.84 39.55 8.75 52.52-1.28 13.03-10.03 20.68-69.06 26-69.06 5.28 0 7.09 64.31 7.09 64.31l10.02-0.57c0 0 0.58-66.02 0-81.71-0.61-15.69-26-35.13-26-35.13 0 0-8.6 47.3-12.69 69.83-4.08 22.58-4.08 28.47-17.39 28.47-4.09 0-7.61-0.57-10.46-1.33-2.04 5.08-4.66 8.84-7.99 10.6-12.4 6.46-21.1 7.03-21.1 15.87z"/>
				</g>
			</g>
			<g id="&lt;Group&gt;">
				<path id="&lt;Path&gt;" class="s40" d="m1784.42 2014.35v25.78c0 0 17.03 12.21 27.08 8.51 10.05-3.71 16.16-9.82 16.16-9.82v-35.39z"/>
				<g id="&lt;Group&gt;">
					<path id="&lt;Path&gt;" class="s2" d="m1827.66 2034.88c0 0-17.91 13.11-31.45 3.5-13.54-9.61-18.94-9.61-22.58-1.75-3.63 7.86-36.83 9.17-44.25 13.98-7.43 4.81-3.94 15.73-3.94 15.73h113.14c0 0 2.19-30.58-10.92-31.46z"/>
				</g>
				<g id="&lt;Group&gt;">
					<path id="&lt;Path&gt;" class="s2" d="m1754.27 1824.14l26.6 185.06c0 0-0.77 9.45 22.68 10.59 23.45 1.13 24.22-10.06 24.22-10.06v-201.48z"/>
				</g>
				<path id="&lt;Path&gt;" class="s41" d="m1637.77 2078.61v28.95c0 0 19.14 13.73 30.42 9.56 11.29-4.16 18.16-11.03 18.16-11.03v-39.75z"/>
				<g id="&lt;Group&gt;">
					<path id="&lt;Path&gt;" class="s42" d="m1964.17 1654.05h-633.01v-22.75h633.01z"/>
					<path id="&lt;Path&gt;" class="s43" d="m1388.57 1654.05l-136.83 339.74h9.44l150.19-339.74z"/>
				</g>
				<path id="&lt;Path&gt;" class="s44" d="m1900.18 1273.52c0 0-3.38 27.21 0 28.95 3.38 1.74 7.11 8.85 4.4 12.91-2.71 4.06-6.33 11.6-2.49 24.41 3.84 12.81 7.06 37.15 21.86 36.82 14.81-0.32 19.07-9.68 25.91-3.98 6.84 5.71 4.47 12.8 4.47 12.8h61.25c0 0-8.12-63.71-8.12-71.62 0-7.91-50.09-41.41-64.3-45.13-14.21-3.73-42.98 4.84-42.98 4.84z"/>
				<g id="&lt;Group&gt;">
					<path id="&lt;Path&gt;" class="s2" d="m1891.04 1258.24c0.26 9.76 0.34 21.79 18.28 21.53 17.93-0.26 11.16 18.01 17.59 19.7 6.43 1.69 9.82 1.69 10.16 9.14 0.34 7.44-1.36 10.19 3.04 11.87 4.4 1.67 6.77-25.84 16.92-24.78 10.16 1.07 4.4 16.63 8.46 30.17 4.06 13.53 42.73 21.32 54.49 3.72 11.75-17.6 14.37-35.19 11.75-48.73-2.62-13.54-13.45-20.51-13.45-20.51 0 0 3.18-21.49-5.07-28.58-8.25-7.08-65.65-8.13-86.3-2.87-20.64 5.26-36.02 23.71-35.87 29.34z"/>
				</g>
				<g id="&lt;Group&gt;">
					<path id="&lt;Path&gt;" class="s2" d="m2051.79 1733.71v92.24l-316.31-1.87c-13.02 0.61-23.64 10.63-25.01 23.59l-24.4 231.54c0 0-14.88 9.03-32.03 7.9-17.15-1.13-21.66-6.77-21.66-6.77 0 0 7.9-186.42 0-230.42-7.9-44.01-21.9-112.83 47.72-125.24 69.62-12.41 214.04-19.18 214.04-19.18z"/>
				</g>
				<g id="&lt;Group&gt;">
					<path id="&lt;Path&gt;" class="s12" d="m2130.96 1564.93h-44.7l-7.17-21.52-10.79 185.65c0 0 3.41 42.39-78.25 46.25-48.16 2.26-76.7-24.33-92.05-46.5-10.58-15.4-14.85-28.69-14.85-28.69l-3.11-135.74q-0.67 2.64-1.95 5.97l-0.2 0.5c-8.23 21.47-32.06 61.4-32.06 61.4h-168.44c0 0-12.94-8.53-8.83-22.63 4.11-14.04 20.42-16.55 20.42-16.55 0 0 104.68-2.46 109.65-3.56 4.97-1.11 66.52-172.91 69.27-176.22 2.76-3.31 58.34-14.9 58.34-14.9l14.85-14.4h82.82l8.53 14.4c0 0 42.79 10.94 56.58 14.9 13.8 3.96 41.94 151.64 41.94 151.64z"/>
				</g>
				<g id="&lt;Group&gt;">
					<path id="&lt;Path&gt;" class="s2" d="m2223.1 1576.12l-59.14 243.03c-3.91 16.2-18.41 27.54-35.01 27.54h-390.82v-22.62l157.54 4.38c15.4 0.1 28.79-10.43 32.35-25.43l52.98-215.02c4.91-20.62 23.37-35.21 44.64-35.21h176.67c13.8 0 20.39 2.21 21.45 15.05q0.39 4.06-0.66 8.28z"/>
				</g>
				<path id="&lt;Path&gt;" class="s45" d="m2163.96 1819.15c-3.91 16.2-18.41 27.54-35.01 27.54h-228.64c10.48-0.35 40.48-4.06 49.21-35.01 9.02-32.02 46.63-185.33 57.8-230.99 1.86-7.56 8.63-12.85 16.42-12.85h189.15c5.64 0 9.83 5.21 8.57 10.7-10.97 47.99-57.5 240.61-57.5 240.61z"/>
				<g id="&lt;Group&gt;">
					<path id="&lt;Path&gt;" class="s2" d="m1686.35 2101.67c0 0-20.12 14.73-35.33 3.93-15.22-10.8-21.29-10.8-25.37-1.96-4.08 8.83-41.38 10.3-49.72 15.7-8.35 5.4-4.42 17.67-4.42 17.67h127.11c0 0 2.46-34.36-12.27-35.34z"/>
				</g>
				<path id="&lt;Path&gt;" class="s46" d="m1672.32 1602.46c0 0-33.18-3.94-49.53-4.08-16.35-0.14-58.39 28.44-54.65 30.68 3.73 2.24 36.64-3.18 53.88-3.16 17.25 0.02 50.3 1.53 50.3 1.53 0 0-5.11-13.74 0-24.97z"/>
				<path id="&lt;Path&gt;" class="s12" d="m1878.09 1570.35l1.95-5.97q-0.67 2.64-1.95 5.97z"/>
				<path id="&lt;Path&gt;" class="s19" d="m1900.51 1560.06c-4.46 19.06-3.41 116.98-2.51 168.75-10.58-15.4-14.85-28.69-14.85-28.69l-3.11-135.74c0 0 14.1-29.15 20.47-49.61 6.42-20.47 6.42-26.54 6.42-26.54 0 0-0.25 45.65-6.42 71.83z"/>
				<path id="&lt;Path&gt;" class="s19" d="m2078.57 1552.29v-83.01l16.36 83.01z"/>
				<path id="&lt;Path&gt;" class="s47" d="m2013.45 1881.6h-91.39c-4.2 0-7.6-3.4-7.6-7.6v-27.31h106.59v27.31c0 4.2-3.4 7.6-7.6 7.6z"/>
				<path id="&lt;Path&gt;" class="s48" d="m1975.58 2070.17h-15.65v-188.57h15.65z"/>
				<path id="&lt;Path&gt;" class="s49" d="m2037.99 2081.3h-140.47v-8.33c0-1.54 1.25-2.8 2.8-2.8h134.88c1.54 0 2.79 1.26 2.79 2.8z"/>
				<path id="&lt;Path&gt;" class="s50" d="m1914.42 2095.62h-14.63c-1.25 0-2.27-1.02-2.27-2.27v-12.05h19.53v11.69c0 1.45-1.18 2.63-2.63 2.63z"/>
				<path id="&lt;Path&gt;" class="s51" d="m2035.36 2095.62h-14.63c-1.26 0-2.27-1.02-2.27-2.27v-12.05h19.53v11.69c0 1.45-1.18 2.63-2.63 2.63z"/>
			</g>
			<g id="&lt;Group&gt;">
				<g id="&lt;Group&gt;">
					<path id="&lt;Path&gt;" class="s52" d="m1724.35 727.7c0 0 0.03-0.82 0.06-2.35"/>
					<path id="&lt;Path&gt;" class="s53" d="m1724.41 720.65c-0.28-30.49-7.29-151.94-98.73-209.19-105.03-65.75-224.92-77.56-277.97-30.33-53.05 47.23-16.98 138.76 60.47 117.97 77.45-20.78 50.93-99.8-101.85-137.04-138.2-33.69-282.58 30.73-308.87 43.33"/>
					<path id="&lt;Path&gt;" class="s52" d="m995.33 506.42c-1.38 0.68-2.1 1.05-2.1 1.05"/>
				</g>
			</g>
			<g id="&lt;Group&gt;">
				<path id="&lt;Path&gt;" class="s54" d="m1020.89 363.51l-198.87 153.17 184.69-81.83z"/>
				<path id="&lt;Path&gt;" class="s55" d="m1006.71 434.85l41.54 66.81-226.23 15.02z"/>
				<path id="&lt;Path&gt;" class="s54" d="m822.02 516.68l184.7 3.36-0.07-50.11z"/>
				<path id="&lt;Path&gt;" class="s56" d="m1006.65 469.93l41.6 31.73-41.55 2.76z"/>
			</g>
			<g id="&lt;Group&gt;">
				<path id="&lt;Path&gt;" class="s57" d="m574.37 1962.31c0 0 7.29 41.66 12.9 50.29 5.61 8.63 16.84 13.12 2.25 14.24-14.6 1.13-57.25-33.67-58.93-43.77-1.68-10.1 5.05-26.94 5.05-26.94z"/>
				<g id="&lt;Group&gt;">
					<path id="&lt;Path&gt;" class="s2" d="m531.21 1969.59c0 0 28.02-0.55 29.58 16.29 1.56 16.83 12.46 29.74 21.28 30.86 8.82 1.13 16.09-2.8 16.09-2.8 0 0 10.9 21.32 19.2 23.01 8.31 1.68 21.8 10.1 17.13 15.71-4.67 5.61-47.23 3.37-59.69-7.86-12.45-11.22-38.92-48.26-38.92-48.26v51.07l-12.46-2.81c0 0-4.94-70.64 7.79-75.21z"/>
				</g>
				<path id="&lt;Path&gt;" class="s58" d="m696.52 1966.03c0 0 7.29 41.66 12.9 50.29 5.61 8.64 16.84 13.13 2.25 14.25-14.59 1.12-57.24-33.67-58.93-43.77-1.68-10.11 5.05-26.94 5.05-26.94z"/>
				<g id="&lt;Group&gt;">
					<path id="&lt;Path&gt;" class="s2" d="m543.53 1964.08c21.49 8.37 35.79 2.38 35.79 2.38 0 0 0 0 14.31-71.49 14.26-71.54 42.87-151.44 60.79-187.75 6.99-14.21 11.08-41.92 13.46-70.35v-0.05c0.52-6.56 0.99-13.21 1.37-19.72-0.33 10.07-0.42 24.38-1.23 39.97-0.72 15.02-2.05 31.33-4.95 46.3-2.61 13.78-6.46 26.47-12.26 36.03-19.06 31.61 0 223.49 0 223.49 0 0 5.32 7.04 22.67 9.03 2.81 0.34 5.99 0.53 9.51 0.53 25.05 0 19.11-7.18 19.11-7.18 0 0-4.8-54.81 0-94.16 4.75-39.31 45.11-142.36 60.41-175.58 15.31-33.28-18.92-302.45-18.92-302.45-40.73 30.99-158.28 17.83-158.28 17.83 0 0-14.35 17.91-21.48 75.48-7.18 57.56 21.43 198.3 21.43 198.3 0 0-26.23 15.97-41.73 83.65-15.49 67.69-21.43 187.42 0 195.74z"/>
				</g>
				<g id="&lt;Group&gt;">
					<path id="&lt;Path&gt;" class="s2" d="m751.04 984.72c0 0 10.73 22.35 7.39 33.87-7.11 24.53-2.31 37.12 5.31 51.45 8.06 15.13 22.14 35.49 0.51 43.39-21.63 7.9-72.37 0.42-74.87-16.22-2.5-16.64 14.97-114.8 14.97-114.8z"/>
				</g>
				<path id="&lt;Path&gt;" class="s59" d="m738.05 1006.12c0 0 6.65 14.55 5.4 23.7-1.24 9.16-1.63 43.59-10.39 47.42-12.03 5.26-27.87-0.41-28.29 5-0.42 5.4 0 20.79 0 20.79 0 0-14.14 7.07-32.86 4.16-18.72-2.91-22.05-9.56-22.05-9.56 0 0 9.57-85.69 22.47-91.51 12.89-5.83 65.72 0 65.72 0z"/>
				<g id="&lt;Group&gt;">
					<path id="&lt;Path&gt;" class="s2" d="m750.53 972.01c15.99 12.01-4.58 39.1-33.28 46.58-12.46 3.25-22.72 3.13-30.35 1.96-7.68-1.19-14.63 4.77-14.66 12.55-0.09 24.91-4.98 68.45-37.35 74.92-45.75 9.16-44.09 45.34-44.09 45.34 0 0-36.19-22.46-37.02-43.26-0.83-20.79 5.41-63.64 31.2-78.2 25.78-14.55 41.18-18.71 46.17-40.34 4.99-21.63 45.75-74.87 119.38-19.55z"/>
				</g>
				<g id="&lt;Group&gt;">
					<path id="&lt;Path&gt;" class="s12" d="m649.86 1097.63c0 0-62.25 4.33-82.26 28.96-20.02 24.63-51.58 212.45-40.8 228.61 10.78 16.17 69.28 12.32 69.28 12.32l-11.93 48.09c0 0 64.78 31.14 112.59 21.53 47.8-9.6 53.29-44.05 53.29-44.05 0 0-7.7-97.16 0-127.95 7.69-30.79 9.23-37.95 9.23-37.95 0 0 19.25 42.78 24.64 51.53 5.38 8.75 104.68 36.52 112.38 30.72 7.7-5.81 18.47-51.24 18.47-51.24 0 0-79.28-11.4-98.53-41.48-19.24-30.09-51.57-92.95-75.43-103.47-23.86-10.52-36.02-10.22-36.02-10.22 0 0-30.37 12.58-54.91-5.4z"/>
				</g>
				<g id="&lt;Group&gt;">
					<path id="&lt;Path&gt;" class="s2" d="m653.42 1973.31c0 0 28.01-0.54 29.56 16.29 1.56 16.84 12.45 29.75 21.27 30.87 8.82 1.12 16.08-2.81 16.08-2.81 0 0 10.89 21.33 19.19 23.01 8.3 1.68 21.79 10.1 17.12 15.71-4.67 5.62-47.2 3.37-59.65-7.85-12.45-11.23-38.9-48.27-38.9-48.27v51.07l-12.45-2.8c0 0-4.94-70.65 7.78-75.22z"/>
				</g>
				<path id="&lt;Path&gt;" class="s37" d="m650.81 1962.89c0 0 5.32 7.04 22.67 9.03-5.7-27.95-27.61-145.87-5.27-207.62 23.86-65.97 48.24-72.58 51.19-73.15-3.28 0.24-30.61 1.38-33.75-36.36-1.76-21.63-11.44-129.15-11.48-129.48-4.76-19.73-10.42-38.92-13 12.22 0.38 3.66 5.71 53.66 6.71 99.29v0.05c0.19 6.89 0.23 13.69 0.14 20.2-0.19 19.4-1.57 36.41-4.95 46.3-2.61 13.78-6.46 26.47-12.26 36.03-19.06 31.61 0 223.49 0 223.49z"/>
				<path id="&lt;Path&gt;" class="s60" d="m735.85 1153.36c0 0 35.62 40.05 35.12 49.94-0.5 9.89-11.71 23.89-11.71 23.89l21.75 46.26c0 0-12.73-41.33-6.69-46.26 6.04-4.94 13.28-16.48 1.42-33.78-11.86-17.31-39.89-40.05-39.89-40.05z"/>
				<g id="&lt;Group&gt;">
					<path id="&lt;Path&gt;" class="s61" d="m767.4 1272.38v173.71c0 4.74 1.31 9.18 3.57 12.97 4.45 7.66 12.68 12.76 22.23 12.76h294.34c8.02 0 15.24-3.65 19.97-9.4 3.65-4.45 5.84-10.21 5.84-16.33v-173.71c0-6.77-2.63-12.82-6.78-17.42-4.74-5.17-11.52-8.38-19.03-8.38h-294.34c-7.51 0-14.21 3.21-18.88 8.31-4.3 4.59-6.92 10.72-6.92 17.49z"/>
					<path id="&lt;Path&gt;" class="s62" d="m770.97 1459.06c4.45 7.66 12.68 12.76 22.23 12.76h294.34c8.02 0 15.24-3.65 19.97-9.4l-147.68-148.92h-63.12z"/>
					<path id="&lt;Path&gt;" class="s63" d="m774.32 1254.89l152.74 130.35 179.51-130.28c-4.74-5.17-11.52-8.38-19.03-8.38h-294.34c-7.51 0-14.21 3.21-18.88 8.31z"/>
				</g>
				<path id="&lt;Path&gt;" class="s60" d="m614.95 1148.87c0 0-20.61 159.07-27.09 164.63-6.47 5.55-34.15 25.57-34.15 25.57 0 0 34.74-21.34 52.41-21.56 17.66-0.22 95.39-12.59 95.39-12.59 0 0-97.75 8.83-98.93 0.59-1.17-8.25 14.73-78.32 16.49-110.71 1.77-32.39-4.12-45.93-4.12-45.93z"/>
				<path id="&lt;Path&gt;" class="s64" d="m701.51 1307.13c0 0 9.53-17.64 20.64-18.24 11.11-0.6 25.34-5.49 25.34-5.49 0 0 3.65 6.82-5.53 9.72-9.18 2.9-1.93 9.66 9.66 9.18 11.6-0.49 24.74-5.32 30.49-4.35 5.75 0.96-7.78 26.09-30.49 33.82-22.71 7.73-50.11 7.3-50.11 7.3 0 0 8.36-21.8 0-31.94z"/>
			</g>
			<g id="&lt;Group&gt;">
				<path id="&lt;Path&gt;" class="s65" d="m1280.89 662.23v173.71c0 4.73-1.31 9.18-3.57 12.97-4.45 7.66-12.69 12.76-22.24 12.76h-294.34c-8.01 0-15.23-3.65-19.97-9.41-3.64-4.44-5.83-10.2-5.83-16.32v-173.71c0-6.78 2.62-12.83 6.78-17.42 4.74-5.17 11.52-8.38 19.02-8.38h294.34c7.51 0 14.22 3.21 18.88 8.31 4.3 4.59 6.93 10.71 6.93 17.49z"/>
				<path id="&lt;Path&gt;" class="s66" d="m1277.32 848.91c-4.45 7.66-12.69 12.76-22.24 12.76h-294.34c-8.01 0-15.23-3.65-19.97-9.41l147.68-148.91h63.13z"/>
				<path id="&lt;Path&gt;" class="s67" d="m1273.96 644.74l-152.73 130.35-179.51-130.28c4.74-5.17 11.52-8.38 19.02-8.38h294.34c7.51 0 14.22 3.21 18.88 8.31z"/>
			</g>
			<path id="&lt;Path&gt;" class="s68" d="m2102.35 1959.86v-490.58"/>
		</g>
	</g>
</svg>