<svg width="100" height="100" id="Layer_1" data-name="Layer 1" xmlns="http://www.w3.org/2000/svg" viewBox="0 0 176 176"><defs><style>.cls-1{fill:none;}.cls-2{fill:#606094;}</style></defs><title>php-black20181026</title><rect class="cls-1" width="176" height="176"/><path class="cls-2" d="M116.8,79.1h-4.7l-2.5,13.2h4.1c2.8,0,4.8-.5,6.1-1.6a9,9,0,0,0,2.8-5.2c.5-2.4.3-4-.7-4.9C121.1,79.6,119.5,79.1,116.8,79.1Z"/><path class="cls-2" d="M63.1,79.1H58.4L55.9,92.3H60c2.8,0,4.8-.5,6.1-1.6a9,9,0,0,0,2.8-5.2c.5-2.4.3-4-.7-4.9S65.7,79.1,63.1,79.1Z"/><path class="cls-2" d="M88,56.5C54.8,56.5,28,70.6,28,88s26.8,31.5,60,31.5,60-14.1,60-31.5S121.2,56.5,88,56.5ZM71.7,93.7a12.9,12.9,0,0,1-4.5,2.8,23,23,0,0,1-6.5.8H54.8l-1.6,8.4H46.3l6.1-31.5H65.6c4,0,6.9,1.1,8.7,3.2s2.4,5.1,1.6,8.8a15.67,15.67,0,0,1-1.5,4.3A15.31,15.31,0,0,1,71.7,93.7Zm20.2,3.6,2.7-14a4.23,4.23,0,0,0-.3-3.2c-.4-.5-1.7-.9-3.5-.9H85.3L81.8,97.3H75l6.1-31.5H88l-1.6,8.4h6.1c3.9,0,6.5.7,7.9,2s1.9,3.5,1.3,6.5L98.9,97.3Zm38-11.3a15.67,15.67,0,0,1-1.5,4.3,13.08,13.08,0,0,1-2.8,3.5,12.9,12.9,0,0,1-4.5,2.8,23.49,23.49,0,0,1-6.5.8h-5.9l-1.6,8.4H100l6.1-31.5h13.2c4,0,6.9,1.1,8.7,3.2S130.5,82.2,129.9,86Z"/></svg>
