<svg width="100" height="100" id="Layer_1" data-name="Layer 1" xmlns="http://www.w3.org/2000/svg" viewBox="0 0 176 176"><defs><style>.cls-1{fill:none;}.cls-2{fill:#40dbff;}</style></defs><title>react-black20181026</title><rect class="cls-1" width="176" height="176"/><path class="cls-2" d="M119.2,72.9c-1-.3-2-.6-3.1-1a19.14,19.14,0,0,0,.4-2.1c2.4-11.4.9-20.6-4.4-23.6-5.1-2.9-13.3.1-21.6,7.3a17,17,0,0,0-2.4,2.3c-.5-.5-1.1-1-1.6-1.5-8.8-7.7-17.5-11-22.8-7.9-5.1,2.9-6.6,11.6-4.4,22.4a18.73,18.73,0,0,0,.8,3.2c-1.3.3-2.5.8-3.6,1.1C46.2,76.6,39.6,82.2,39.6,88c0,6,7,12,17.8,15.7a26.72,26.72,0,0,1,2.6.9c-.3,1.2-.5,2.4-.8,3.4-2,10.6-.4,19.1,4.6,22,5.2,3,13.9-.1,22.4-7.5.6-.5,1.4-1.2,2-1.8.9.9,1.7,1.6,2.6,2.4,8.2,7.1,16.4,9.9,21.4,7,5.2-3,6.9-12.1,4.7-23.1-.2-.9-.3-1.7-.5-2.6.6-.2,1.2-.3,1.8-.5,11.1-3.7,18.3-9.6,18.3-15.7s-6.8-11.7-17.3-15.3Zm-2.4,26.8c-.5.2-1.1.3-1.6.5a85.07,85.07,0,0,0-5-12.2,98.33,98.33,0,0,0,4.7-12c1,.3,1.9.5,2.9.9,8.9,3.1,14.4,7.6,14.4,11.2.2,3.6-5.8,8.4-15.4,11.6Zm-3.9,7.8a33.07,33.07,0,0,1,.4,12.8c-.5,3.1-1.7,5.2-3.1,6-3,1.7-9.6-.5-16.6-6.6a25.06,25.06,0,0,1-2.5-2.3,90.13,90.13,0,0,0,8.1-10.3,95.14,95.14,0,0,0,13.1-2,14,14,0,0,0,.6,2.4ZM72.6,126c-3,1.1-5.4,1.1-6.8.2-3-1.7-4.3-8.6-2.6-17.6a18.73,18.73,0,0,1,.8-3.2,99,99,0,0,0,13,1.9,99,99,0,0,0,8.3,10.2c-.6.6-1.2,1.2-1.8,1.7A36.26,36.26,0,0,1,72.6,126Zm-14-26.3a35.11,35.11,0,0,1-11.3-6c-2.4-2-3.7-4.1-3.7-5.7,0-3.5,5.3-8.1,14-11.1,1.1-.3,2.2-.8,3.3-1.1A92.39,92.39,0,0,0,65.6,88a86.63,86.63,0,0,0-4.7,12.4,15.46,15.46,0,0,0-2.3-.7Zm4.7-31.9c-1.8-9.2-.6-16.3,2.5-18s10.4.8,18,7.5c.4.4,1,.9,1.5,1.3A99,99,0,0,0,77,68.8a99.58,99.58,0,0,0-12.9,2,16.66,16.66,0,0,1-.8-3Zm41.8,10.3c-1-1.6-1.9-3.2-2.9-4.8,3.1.4,6,.9,8.8,1.5a77.06,77.06,0,0,1-3.1,8.3c-1-1.7-1.8-3.3-2.8-5ZM88,61.6a83.82,83.82,0,0,1,5.7,6.9c-1.9-.1-3.8-.1-5.7-.1s-3.8,0-5.7.1A83.82,83.82,0,0,1,88,61.6ZM70.9,78.1c-1,1.6-1.8,3.3-2.7,5a87.32,87.32,0,0,1-3.1-8.4c2.8-.6,5.7-1.1,8.8-1.5-1.1,1.7-2.1,3.3-3,4.9ZM74,102.8c-3.1-.3-6.1-.9-8.9-1.4.9-2.8,1.9-5.6,3.1-8.5.9,1.7,1.8,3.3,2.8,5h0a35.77,35.77,0,0,0,3,4.9Zm14.1,11.7a86.32,86.32,0,0,1-5.8-7c1.8.1,3.8.1,5.7.1s3.9,0,5.8-.1a59.54,59.54,0,0,1-5.7,7Zm19.8-21.8a69.19,69.19,0,0,1,3.2,8.5,76.73,76.73,0,0,1-9,1.5c1-1.6,2-3.2,3-4.9a50.54,50.54,0,0,0,2.8-5.1Zm-6.3,3c-1.5,2.6-3.1,5.2-4.6,7.5-2.9.2-5.8.3-8.8.3s-5.9-.1-8.7-.3c-1.6-2.4-3.2-4.9-4.7-7.5h0c-1.5-2.6-2.9-5.2-4.1-7.8,1.3-2.6,2.6-5.3,4.1-7.8h0c1.5-2.6,3.1-5,4.7-7.4,2.9-.2,5.8-.3,8.8-.3h0c3,0,5.9.1,8.8.3,1.6,2.4,3.1,4.8,4.6,7.4s2.9,5.3,4.2,7.7c-1.4,2.8-2.8,5.4-4.3,7.9Zm8.5-46c3.2,1.8,4.5,9.3,2.5,19.2-.1.6-.3,1.3-.4,1.9a84.92,84.92,0,0,0-12.9-2,98.58,98.58,0,0,0-8.2-10.2,20.53,20.53,0,0,1,2.3-2c7-6.2,13.7-8.7,16.7-6.9ZM88,79.3a8.6,8.6,0,1,1-8.6,8.6A8.66,8.66,0,0,1,88,79.3Z"/></svg>
